STARTFONT 2.1
COMMENT
COMMENT Converted from TrueType font "LucidaSansRegular.ttf" by "ttf2bdf 2.6".
COMMENT
FONT -FreeType-Lucida Sans-Medium-R-Normal--22-160-100-100-P-123-ISO10646-1
SIZE 16 100 100
FONTBOUNDINGBOX 50 42 -14 -16
STARTPROPERTIES 22
FOUNDRY "FreeType"
FAMILY_NAME "Lucida Sans"
WEIGHT_NAME "Medium"
SLANT "R"
SETWIDTH_NAME "Normal"
ADD_STYLE_NAME ""
PIXEL_SIZE 22
POINT_SIZE 160
RESOLUTION_X 100
RESOLUTION_Y 100
SPACING "P"
AVERAGE_WIDTH 123
CHARSET_REGISTRY "ISO10646"
CHARSET_ENCODING "1"
FONT_ASCENT 20
FONT_DESCENT 4
COPYRIGHT "Copyright (c) 1999 by Bigelow & Holmes Inc. Pat. Des. 289,420."
_TTF_FONTFILE "LucidaSansRegular.ttf"
_TTF_PSNAME "LucidaSans"
_XFREE86_GLYPH_RANGES "32_126 160_383 402 506_511 536_539 592_680 688_734 736_745 768_837 884_885 890 894 900_906 908 910_929 931_974 976_982 986 988 990 992 994_1011 1025_1036 1038_1103 1105_1116 1118_1158 1168_1220 1223_1224 1227_1228 1232_1259 1262_1269 1272_1273 1425_1441 1443_1465 1467_1476 1488_1514 1520_1524 1548 1563 1567 1569_1594 1600_1618 1632_1645 1648_1719 1722_1726 1728_1742 1744_1773 1776_1785 2305_2307 2309_2361 2364_2381 2384_2388 2392_2416 3585_3642 3647_3675 7808_7813 7922_7923 8192_8238"
_XFREE86_GLYPH_RANGES "8240_8262 8298_8304 8308_8334 8337 8352_8364 8448_8504 8531_8578 8592_8682 8704_8945 8962 8976 8992_8993 9312_9321 9472 9474 9484 9488 9492 9496 9500 9508 9516 9524 9532 9552_9580 9600 9604 9608 9612 9616_9619 9632_9633 9642_9644 9650 9658 9660 9668 9670 9674_9676 9679 9687_9689 9702 9733 9742 9755 9758 9786_9788 9792 9794 9824 9827 9829_9830 9834_9835 9985_9988 9990_9993 9996_10023 10025_10059 10061 10063_10066 10070 10072_10078 10081_10087 10102_10132 10136_10159 10161_10174"
_XFREE86_GLYPH_RANGES "61440_61442 62977_62981 62986_62998 63488_63495 63498_63499 63502_63505 63508_63509 63519_63520 63539 64256_64260 64286_64287 64297_64310 64312_64316 64318 64320_64321 64323_64324 64326_64334 64606_64610 65136_65138 65140 65142_65276 65279"
ENDPROPERTIES
CHARS 2388
STARTCHAR 0020
ENCODING 32
SWIDTH 315 0
DWIDTH 7 0
BBX 1 1 0 0
BITMAP
00
ENDCHAR
STARTCHAR 0021
ENCODING 33
SWIDTH 315 0
DWIDTH 7 0
BBX 2 16 2 0
BITMAP
C0
C0
C0
C0
C0
C0
C0
C0
C0
C0
C0
00
00
C0
C0
C0
ENDCHAR
STARTCHAR 0022
ENCODING 34
SWIDTH 360 0
DWIDTH 8 0
BBX 6 5 1 12
BITMAP
CC
CC
CC
CC
CC
ENDCHAR
STARTCHAR 0023
ENCODING 35
SWIDTH 630 0
DWIDTH 14 0
BBX 13 16 0 0
BITMAP
0220
0220
0440
0440
0440
7FF8
0880
0880
0880
0880
FFF0
1100
1100
1100
2200
2200
ENDCHAR
STARTCHAR 0024
ENCODING 36
SWIDTH 630 0
DWIDTH 14 0
BBX 9 18 2 -1
BITMAP
0800
3F00
7F80
E880
C800
C800
E800
7800
1C00
0E00
0B00
0980
0980
0980
8B80
FF00
7E00
0800
ENDCHAR
STARTCHAR 0025
ENCODING 37
SWIDTH 675 0
DWIDTH 15 0
BBX 14 16 0 0
BITMAP
3804
7C08
C610
C620
C640
C640
7C80
3900
0270
04F8
098C
098C
118C
218C
40F8
8070
ENDCHAR
STARTCHAR 0026
ENCODING 38
SWIDTH 675 0
DWIDTH 15 0
BBX 12 16 1 0
BITMAP
0F00
1F80
3180
3180
3180
1B00
1E00
7C00
6C30
C630
C730
C320
E1E0
71C0
7FE0
1F70
ENDCHAR
STARTCHAR 0027
ENCODING 39
SWIDTH 225 0
DWIDTH 5 0
BBX 2 5 1 12
BITMAP
C0
C0
C0
C0
C0
ENDCHAR
STARTCHAR 0028
ENCODING 40
SWIDTH 315 0
DWIDTH 7 0
BBX 5 20 1 -3
BITMAP
08
18
38
30
60
60
C0
C0
C0
C0
C0
C0
C0
C0
60
60
30
38
18
08
ENDCHAR
STARTCHAR 0029
ENCODING 41
SWIDTH 315 0
DWIDTH 7 0
BBX 5 20 1 -3
BITMAP
80
C0
E0
60
30
30
18
18
18
18
18
18
18
18
30
30
60
E0
C0
80
ENDCHAR
STARTCHAR 002A
ENCODING 42
SWIDTH 495 0
DWIDTH 11 0
BBX 8 8 1 8
BITMAP
18
18
DB
E7
00
3C
66
24
ENDCHAR
STARTCHAR 002B
ENCODING 43
SWIDTH 765 0
DWIDTH 17 0
BBX 14 14 1 0
BITMAP
0300
0300
0300
0300
0300
0300
FFFC
FFFC
0300
0300
0300
0300
0300
0300
ENDCHAR
STARTCHAR 002C
ENCODING 44
SWIDTH 315 0
DWIDTH 7 0
BBX 3 6 2 -3
BITMAP
E0
E0
E0
20
40
80
ENDCHAR
STARTCHAR 002D
ENCODING 45
SWIDTH 585 0
DWIDTH 13 0
BBX 9 2 2 5
BITMAP
FF80
FF80
ENDCHAR
STARTCHAR 002E
ENCODING 46
SWIDTH 315 0
DWIDTH 7 0
BBX 3 3 2 0
BITMAP
E0
E0
E0
ENDCHAR
STARTCHAR 002F
ENCODING 47
SWIDTH 540 0
DWIDTH 12 0
BBX 9 19 1 -3
BITMAP
0180
0180
0300
0300
0600
0600
0600
0C00
0C00
1C00
1800
1800
3000
3000
3000
6000
6000
C000
C000
ENDCHAR
STARTCHAR 0030
ENCODING 48
SWIDTH 630 0
DWIDTH 14 0
BBX 11 16 1 0
BITMAP
1F00
3F80
71C0
60C0
C060
C060
C060
C060
C060
C060
C060
C060
60C0
71C0
3F80
1F00
ENDCHAR
STARTCHAR 0031
ENCODING 49
SWIDTH 630 0
DWIDTH 14 0
BBX 8 16 3 0
BITMAP
38
F8
F8
18
18
18
18
18
18
18
18
18
18
18
FF
FF
ENDCHAR
STARTCHAR 0032
ENCODING 50
SWIDTH 630 0
DWIDTH 14 0
BBX 10 16 1 0
BITMAP
7E00
FF80
81C0
00C0
00C0
00C0
0180
0300
0600
0C00
1800
3000
6000
C000
FFC0
FFC0
ENDCHAR
STARTCHAR 0033
ENCODING 51
SWIDTH 630 0
DWIDTH 14 0
BBX 10 16 2 0
BITMAP
7F00
FF80
81C0
00C0
00C0
0080
0300
7C00
7E00
0700
0180
0180
0180
8380
FF00
7E00
ENDCHAR
STARTCHAR 0034
ENCODING 52
SWIDTH 630 0
DWIDTH 14 0
BBX 11 16 1 0
BITMAP
0180
0380
0780
0D80
0D80
1980
3180
6180
6180
FFE0
FFE0
0180
0180
0180
0180
0180
ENDCHAR
STARTCHAR 0035
ENCODING 53
SWIDTH 630 0
DWIDTH 14 0
BBX 9 16 2 0
BITMAP
FF80
FF80
C000
C000
C000
C000
F800
FE00
0700
0380
0180
0180
0180
8300
FF00
7C00
ENDCHAR
STARTCHAR 0036
ENCODING 54
SWIDTH 630 0
DWIDTH 14 0
BBX 11 16 1 0
BITMAP
0F80
3FC0
7040
6000
6000
C000
CF00
FFC0
E0E0
C060
C060
C060
6060
70C0
3F80
1F00
ENDCHAR
STARTCHAR 0037
ENCODING 55
SWIDTH 630 0
DWIDTH 14 0
BBX 10 16 2 0
BITMAP
FFC0
FFC0
00C0
0180
0100
0300
0600
0400
0C00
0800
1800
3000
3000
3000
6000
6000
ENDCHAR
STARTCHAR 0038
ENCODING 56
SWIDTH 630 0
DWIDTH 14 0
BBX 11 16 1 0
BITMAP
1F00
3F80
71C0
60C0
60C0
7180
3F00
1F00
3780
61C0
C060
C060
C060
E0E0
7FC0
1F00
ENDCHAR
STARTCHAR 0039
ENCODING 57
SWIDTH 630 0
DWIDTH 14 0
BBX 11 16 1 0
BITMAP
1F00
3F80
61C0
C0C0
C060
C060
C060
60E0
7FE0
1E60
0060
00C0
00C0
4180
7F00
3E00
ENDCHAR
STARTCHAR 003A
ENCODING 58
SWIDTH 315 0
DWIDTH 7 0
BBX 2 12 2 0
BITMAP
C0
C0
C0
00
00
00
00
00
00
C0
C0
C0
ENDCHAR
STARTCHAR 003B
ENCODING 59
SWIDTH 315 0
DWIDTH 7 0
BBX 2 15 2 -3
BITMAP
C0
C0
C0
00
00
00
00
00
00
C0
C0
C0
40
40
80
ENDCHAR
STARTCHAR 003C
ENCODING 60
SWIDTH 765 0
DWIDTH 17 0
BBX 12 13 2 0
BITMAP
0010
0070
01E0
0380
0E00
3C00
F000
3C00
0E00
0380
01E0
0070
0010
ENDCHAR
STARTCHAR 003D
ENCODING 61
SWIDTH 765 0
DWIDTH 17 0
BBX 12 6 2 3
BITMAP
FFF0
FFF0
0000
0000
FFF0
FFF0
ENDCHAR
STARTCHAR 003E
ENCODING 62
SWIDTH 765 0
DWIDTH 17 0
BBX 12 13 3 0
BITMAP
8000
E000
7800
1C00
0700
03C0
00F0
03C0
0700
1C00
7800
E000
8000
ENDCHAR
STARTCHAR 003F
ENCODING 63
SWIDTH 405 0
DWIDTH 9 0
BBX 8 16 0 0
BITMAP
7C
FE
83
03
03
06
0C
18
30
30
30
00
00
30
30
30
ENDCHAR
STARTCHAR 0040
ENCODING 64
SWIDTH 855 0
DWIDTH 19 0
BBX 17 16 1 0
BITMAP
01F800
060400
080200
10F900
211880
421880
441880
843080
8C3080
8C7100
8C7100
8CB200
473C00
200000
102000
0FC000
ENDCHAR
STARTCHAR 0041
ENCODING 65
SWIDTH 675 0
DWIDTH 15 0
BBX 15 16 0 0
BITMAP
0380
0380
0380
06C0
06C0
0C60
0C60
0C70
1830
1830
3FF8
3FF8
701C
600C
600C
C006
ENDCHAR
STARTCHAR 0042
ENCODING 66
SWIDTH 585 0
DWIDTH 13 0
BBX 10 16 2 0
BITMAP
FE00
FF00
C380
C180
C180
C180
C700
FE00
FE00
C380
C1C0
C0C0
C0C0
C1C0
FF80
FF00
ENDCHAR
STARTCHAR 0043
ENCODING 67
SWIDTH 675 0
DWIDTH 15 0
BBX 13 16 1 0
BITMAP
07E0
1FF8
3818
7000
6000
C000
C000
C000
C000
C000
C000
6000
7000
3818
1FF8
07F0
ENDCHAR
STARTCHAR 0044
ENCODING 68
SWIDTH 720 0
DWIDTH 16 0
BBX 13 16 2 0
BITMAP
FF80
FFC0
C0E0
C070
C030
C018
C018
C018
C018
C018
C018
C030
C070
C0E0
FFC0
FF00
ENDCHAR
STARTCHAR 0045
ENCODING 69
SWIDTH 540 0
DWIDTH 12 0
BBX 10 16 2 0
BITMAP
FFC0
FFC0
C000
C000
C000
C000
C000
FF00
FF00
C000
C000
C000
C000
C000
FFC0
FFC0
ENDCHAR
STARTCHAR 0046
ENCODING 70
SWIDTH 540 0
DWIDTH 12 0
BBX 9 16 2 0
BITMAP
FF80
FF80
C000
C000
C000
C000
C000
FF00
FF00
C000
C000
C000
C000
C000
C000
C000
ENDCHAR
STARTCHAR 0047
ENCODING 71
SWIDTH 720 0
DWIDTH 16 0
BBX 13 16 1 0
BITMAP
07E0
1FF8
3818
7000
6000
C000
C000
C000
C000
C018
C018
6018
7018
3818
1FF8
07F0
ENDCHAR
STARTCHAR 0048
ENCODING 72
SWIDTH 720 0
DWIDTH 16 0
BBX 12 16 2 0
BITMAP
C030
C030
C030
C030
C030
C030
C030
FFF0
FFF0
C030
C030
C030
C030
C030
C030
C030
ENDCHAR
STARTCHAR 0049
ENCODING 73
SWIDTH 270 0
DWIDTH 6 0
BBX 2 16 2 0
BITMAP
C0
C0
C0
C0
C0
C0
C0
C0
C0
C0
C0
C0
C0
C0
C0
C0
ENDCHAR
STARTCHAR 004A
ENCODING 74
SWIDTH 315 0
DWIDTH 7 0
BBX 7 19 -2 -3
BITMAP
06
06
06
06
06
06
06
06
06
06
06
06
06
06
06
06
0E
FC
F8
ENDCHAR
STARTCHAR 004B
ENCODING 75
SWIDTH 630 0
DWIDTH 14 0
BBX 12 16 2 0
BITMAP
C060
C0C0
C180
C300
C600
CC00
D800
F000
D800
CC00
C600
C300
C180
C0C0
C060
C030
ENDCHAR
STARTCHAR 004C
ENCODING 76
SWIDTH 540 0
DWIDTH 12 0
BBX 10 16 2 0
BITMAP
C000
C000
C000
C000
C000
C000
C000
C000
C000
C000
C000
C000
C000
C000
FFC0
FFC0
ENDCHAR
STARTCHAR 004D
ENCODING 77
SWIDTH 855 0
DWIDTH 19 0
BBX 15 16 2 0
BITMAP
E00E
F01E
F01E
F01E
D836
D836
D836
CC66
CC66
CC66
C6C6
C6C6
C6C6
C386
C386
C006
ENDCHAR
STARTCHAR 004E
ENCODING 78
SWIDTH 720 0
DWIDTH 16 0
BBX 12 16 2 0
BITMAP
E030
E030
F030
F030
D830
DC30
CC30
C630
C630
C330
C3B0
C1B0
C0F0
C0F0
C070
C070
ENDCHAR
STARTCHAR 004F
ENCODING 79
SWIDTH 765 0
DWIDTH 17 0
BBX 15 16 1 0
BITMAP
07C0
1FF0
3838
701C
600C
C006
C006
C006
C006
C006
C006
600C
701C
3838
1FF0
07C0
ENDCHAR
STARTCHAR 0050
ENCODING 80
SWIDTH 540 0
DWIDTH 12 0
BBX 10 16 2 0
BITMAP
FF00
FF80
C1C0
C0C0
C0C0
C0C0
C380
FF00
FC00
C000
C000
C000
C000
C000
C000
C000
ENDCHAR
STARTCHAR 0051
ENCODING 81
SWIDTH 765 0
DWIDTH 17 0
BBX 17 19 1 -3
BITMAP
0FE000
1FF000
383800
701C00
600C00
C00600
C00600
C00600
C00600
C00600
C00600
600C00
701C00
383800
1FF000
0FE000
003E00
000F80
000300
ENDCHAR
STARTCHAR 0052
ENCODING 82
SWIDTH 630 0
DWIDTH 14 0
BBX 12 16 2 0
BITMAP
FF00
FF80
C1C0
C0C0
C0C0
C1C0
C380
FF00
FE00
C600
C300
C180
C180
C0C0
C060
C030
ENDCHAR
STARTCHAR 0053
ENCODING 83
SWIDTH 540 0
DWIDTH 12 0
BBX 10 16 1 0
BITMAP
3F00
7F80
E080
C000
C000
E000
7800
3E00
0F00
0380
01C0
00C0
00C0
C1C0
FF80
7E00
ENDCHAR
STARTCHAR 0054
ENCODING 84
SWIDTH 630 0
DWIDTH 14 0
BBX 14 16 0 0
BITMAP
FFFC
FFFC
0300
0300
0300
0300
0300
0300
0300
0300
0300
0300
0300
0300
0300
0300
ENDCHAR
STARTCHAR 0055
ENCODING 85
SWIDTH 675 0
DWIDTH 15 0
BBX 11 16 2 0
BITMAP
C060
C060
C060
C060
C060
C060
C060
C060
C060
C060
C060
C060
C060
60C0
7FC0
1F00
ENDCHAR
STARTCHAR 0056
ENCODING 86
SWIDTH 630 0
DWIDTH 14 0
BBX 13 15 0 1
BITMAP
C018
6030
6030
6030
3060
3060
3060
18C0
18C0
1D80
0D80
0D80
0700
0700
0700
ENDCHAR
STARTCHAR 0057
ENCODING 87
SWIDTH 855 0
DWIDTH 19 0
BBX 19 16 0 0
BITMAP
C0E060
C0E060
60E0C0
60E0C0
61B0C0
71B180
31B180
31B180
331980
1B1B00
1B1B00
1B1B00
1B1F00
0E0E00
0E0E00
0E0E00
ENDCHAR
STARTCHAR 0058
ENCODING 88
SWIDTH 630 0
DWIDTH 14 0
BBX 14 16 0 0
BITMAP
C00C
6018
3030
3830
1860
0CC0
0780
0780
0780
0780
0CC0
1860
3070
3030
6018
C00C
ENDCHAR
STARTCHAR 0059
ENCODING 89
SWIDTH 630 0
DWIDTH 14 0
BBX 12 15 1 1
BITMAP
C030
6060
6060
30C0
30C0
1980
1900
0F00
0E00
0600
0600
0600
0600
0600
0600
ENDCHAR
STARTCHAR 005A
ENCODING 90
SWIDTH 585 0
DWIDTH 13 0
BBX 11 16 1 0
BITMAP
7FE0
7FE0
00E0
00C0
0180
0300
0700
0600
0C00
1C00
1800
3000
6000
E000
FFE0
FFE0
ENDCHAR
STARTCHAR 005B
ENCODING 91
SWIDTH 315 0
DWIDTH 7 0
BBX 4 20 1 -3
BITMAP
F0
F0
C0
C0
C0
C0
C0
C0
C0
C0
C0
C0
C0
C0
C0
C0
C0
C0
F0
F0
ENDCHAR
STARTCHAR 005C
ENCODING 92
SWIDTH 540 0
DWIDTH 12 0
BBX 9 19 2 -3
BITMAP
C000
C000
6000
6000
3000
3000
3000
1800
1800
1C00
0C00
0C00
0600
0600
0600
0300
0300
0180
0180
ENDCHAR
STARTCHAR 005D
ENCODING 93
SWIDTH 315 0
DWIDTH 7 0
BBX 4 20 2 -3
BITMAP
F0
F0
30
30
30
30
30
30
30
30
30
30
30
30
30
30
30
30
F0
F0
ENDCHAR
STARTCHAR 005E
ENCODING 94
SWIDTH 630 0
DWIDTH 14 0
BBX 11 12 1 4
BITMAP
0400
0400
0E00
0E00
1B00
1B00
3180
3180
60C0
60C0
C060
C060
ENDCHAR
STARTCHAR 005F
ENCODING 95
SWIDTH 495 0
DWIDTH 11 0
BBX 9 2 1 -2
BITMAP
FF80
FF80
ENDCHAR
STARTCHAR 0060
ENCODING 96
SWIDTH 630 0
DWIDTH 14 0
BBX 4 3 5 14
BITMAP
C0
60
30
ENDCHAR
STARTCHAR 0061
ENCODING 97
SWIDTH 540 0
DWIDTH 12 0
BBX 11 12 1 0
BITMAP
3F00
7F80
4180
0180
0180
1F80
7F80
E180
C180
C380
7FE0
3CE0
ENDCHAR
STARTCHAR 0062
ENCODING 98
SWIDTH 630 0
DWIDTH 14 0
BBX 11 17 1 0
BITMAP
C000
C000
C000
C000
C000
CF00
DFC0
F0C0
C060
C060
C060
C060
C060
C060
E0C0
FFC0
CF00
ENDCHAR
STARTCHAR 0063
ENCODING 99
SWIDTH 495 0
DWIDTH 11 0
BBX 8 12 1 0
BITMAP
1E
7F
71
E0
C0
C0
C0
C0
E0
71
7F
1E
ENDCHAR
STARTCHAR 0064
ENCODING 100
SWIDTH 630 0
DWIDTH 14 0
BBX 11 17 1 0
BITMAP
0060
0060
0060
0060
0060
1E60
7FE0
61E0
C060
C060
C060
C060
C060
C060
61E0
7F60
1E60
ENDCHAR
STARTCHAR 0065
ENCODING 101
SWIDTH 540 0
DWIDTH 12 0
BBX 9 12 1 0
BITMAP
1E00
7F00
7300
E180
C180
FF80
FF80
C000
E000
7080
3F80
1F00
ENDCHAR
STARTCHAR 0066
ENCODING 102
SWIDTH 360 0
DWIDTH 8 0
BBX 8 17 0 0
BITMAP
1F
3F
30
30
30
FE
FE
30
30
30
30
30
30
30
30
30
30
ENDCHAR
STARTCHAR 0067
ENCODING 103
SWIDTH 630 0
DWIDTH 14 0
BBX 11 16 1 -4
BITMAP
1E60
7FE0
61E0
C060
C060
C060
C060
C060
C060
61E0
7F60
1E60
0060
40C0
7FC0
3F00
ENDCHAR
STARTCHAR 0068
ENCODING 104
SWIDTH 630 0
DWIDTH 14 0
BBX 11 17 1 0
BITMAP
C000
C000
C000
C000
C000
C780
DFC0
F860
E060
C060
C060
C060
C060
C060
C060
C060
C060
ENDCHAR
STARTCHAR 0069
ENCODING 105
SWIDTH 270 0
DWIDTH 6 0
BBX 2 16 2 0
BITMAP
C0
C0
00
00
C0
C0
C0
C0
C0
C0
C0
C0
C0
C0
C0
C0
ENDCHAR
STARTCHAR 006A
ENCODING 106
SWIDTH 315 0
DWIDTH 7 0
BBX 6 20 -1 -4
BITMAP
0C
0C
00
00
0C
0C
0C
0C
0C
0C
0C
0C
0C
0C
0C
0C
0C
8C
F8
70
ENDCHAR
STARTCHAR 006B
ENCODING 107
SWIDTH 585 0
DWIDTH 13 0
BBX 11 17 1 0
BITMAP
C000
C000
C000
C000
C000
C0C0
C180
C300
CE00
D800
F000
D800
CC00
C600
C300
C1C0
C0E0
ENDCHAR
STARTCHAR 006C
ENCODING 108
SWIDTH 270 0
DWIDTH 6 0
BBX 2 17 2 0
BITMAP
C0
C0
C0
C0
C0
C0
C0
C0
C0
C0
C0
C0
C0
C0
C0
C0
C0
ENDCHAR
STARTCHAR 006D
ENCODING 109
SWIDTH 945 0
DWIDTH 21 0
BBX 18 12 1 0
BITMAP
CF0F80
DF9FC0
F0F0C0
E0E0C0
C0C0C0
C0C0C0
C0C0C0
C0C0C0
C0C0C0
C0C0C0
C0C0C0
C0C0C0
ENDCHAR
STARTCHAR 006E
ENCODING 110
SWIDTH 630 0
DWIDTH 14 0
BBX 11 12 1 0
BITMAP
C780
DFC0
F860
E060
C060
C060
C060
C060
C060
C060
C060
C060
ENDCHAR
STARTCHAR 006F
ENCODING 111
SWIDTH 630 0
DWIDTH 14 0
BBX 11 12 1 0
BITMAP
1F00
7FC0
60C0
C060
C060
C060
C060
C060
C060
60C0
7FC0
1F00
ENDCHAR
STARTCHAR 0070
ENCODING 112
SWIDTH 630 0
DWIDTH 14 0
BBX 11 16 1 -4
BITMAP
CF00
DFC0
F0C0
C060
C060
C060
C060
C060
C060
F0C0
FFC0
CF00
C000
C000
C000
C000
ENDCHAR
STARTCHAR 0071
ENCODING 113
SWIDTH 630 0
DWIDTH 14 0
BBX 11 16 1 -4
BITMAP
1E60
7FE0
61E0
C060
C060
C060
C060
C060
C060
61E0
7F60
1E60
0060
0060
0060
0060
ENDCHAR
STARTCHAR 0072
ENCODING 114
SWIDTH 405 0
DWIDTH 9 0
BBX 7 12 1 0
BITMAP
CE
DE
F0
E0
C0
C0
C0
C0
C0
C0
C0
C0
ENDCHAR
STARTCHAR 0073
ENCODING 115
SWIDTH 495 0
DWIDTH 11 0
BBX 8 12 1 0
BITMAP
3C
7E
C2
C0
E0
7C
1E
07
03
83
FE
7C
ENDCHAR
STARTCHAR 0074
ENCODING 116
SWIDTH 360 0
DWIDTH 8 0
BBX 6 14 0 0
BITMAP
60
60
FC
FC
60
60
60
60
60
60
60
60
7C
3C
ENDCHAR
STARTCHAR 0075
ENCODING 117
SWIDTH 630 0
DWIDTH 14 0
BBX 11 12 1 0
BITMAP
C060
C060
C060
C060
C060
C060
C060
C060
C0E0
E3E0
7F60
1C60
ENDCHAR
STARTCHAR 0076
ENCODING 118
SWIDTH 495 0
DWIDTH 11 0
BBX 11 12 0 0
BITMAP
C060
60C0
60C0
60C0
3180
3180
3180
1B00
1B00
1F00
0E00
0E00
ENDCHAR
STARTCHAR 0077
ENCODING 119
SWIDTH 765 0
DWIDTH 17 0
BBX 17 12 0 0
BITMAP
C1C180
C1C180
61C300
636300
636300
636300
363600
363600
363600
3C1C00
1C1C00
1C1C00
ENDCHAR
STARTCHAR 0078
ENCODING 120
SWIDTH 630 0
DWIDTH 14 0
BBX 10 12 1 0
BITMAP
C0C0
6180
7180
3300
1E00
0E00
1C00
1E00
3300
6380
6180
C0C0
ENDCHAR
STARTCHAR 0079
ENCODING 121
SWIDTH 540 0
DWIDTH 12 0
BBX 11 16 0 -4
BITMAP
C060
C060
60C0
60C0
60C0
3180
3180
1B00
1B00
1A00
0E00
0E00
0C00
0C00
1800
1800
ENDCHAR
STARTCHAR 007A
ENCODING 122
SWIDTH 585 0
DWIDTH 13 0
BBX 10 12 1 0
BITMAP
FFC0
FFC0
0180
0300
0600
0C00
1800
3000
6000
C000
FFC0
FFC0
ENDCHAR
STARTCHAR 007B
ENCODING 123
SWIDTH 315 0
DWIDTH 7 0
BBX 6 20 1 -3
BITMAP
0C
1C
30
30
30
30
30
30
30
E0
E0
30
30
30
30
30
30
30
1C
0C
ENDCHAR
STARTCHAR 007C
ENCODING 124
SWIDTH 360 0
DWIDTH 8 0
BBX 2 20 3 -3
BITMAP
C0
C0
C0
C0
C0
C0
C0
C0
C0
C0
C0
C0
C0
C0
C0
C0
C0
C0
C0
C0
ENDCHAR
STARTCHAR 007D
ENCODING 125
SWIDTH 315 0
DWIDTH 7 0
BBX 6 20 0 -3
BITMAP
C0
E0
30
30
30
30
30
30
30
1C
1C
30
30
30
30
30
30
30
E0
C0
ENDCHAR
STARTCHAR 007E
ENCODING 126
SWIDTH 630 0
DWIDTH 14 0
BBX 12 4 1 4
BITMAP
3830
7E30
C7E0
C1C0
ENDCHAR
STARTCHAR 00A0
ENCODING 160
SWIDTH 315 0
DWIDTH 7 0
BBX 1 1 0 0
BITMAP
00
ENDCHAR
STARTCHAR 00A1
ENCODING 161
SWIDTH 315 0
DWIDTH 7 0
BBX 2 16 2 -4
BITMAP
C0
C0
C0
00
00
C0
C0
C0
C0
C0
C0
C0
C0
C0
C0
C0
ENDCHAR
STARTCHAR 00A2
ENCODING 162
SWIDTH 630 0
DWIDTH 14 0
BBX 9 16 2 0
BITMAP
0400
0400
1F00
3F80
7480
E400
C400
C400
C400
C400
E400
7480
3F80
1F00
0400
0400
ENDCHAR
STARTCHAR 00A3
ENCODING 163
SWIDTH 630 0
DWIDTH 14 0
BBX 9 16 3 0
BITMAP
0F00
1F80
3880
3000
3000
3000
3000
FC00
FC00
3000
3000
3000
3000
6000
FF80
FF80
ENDCHAR
STARTCHAR 00A4
ENCODING 164
SWIDTH 630 0
DWIDTH 14 0
BBX 12 12 1 2
BITMAP
4020
EF70
7FE0
30C0
6060
6060
6060
6060
30C0
7FE0
EF70
4020
ENDCHAR
STARTCHAR 00A5
ENCODING 165
SWIDTH 630 0
DWIDTH 14 0
BBX 12 16 1 0
BITMAP
C030
6060
7060
30C0
19C0
1980
0F00
0F00
0600
3FC0
0600
0600
3FC0
0600
0600
0600
ENDCHAR
STARTCHAR 00A6
ENCODING 166
SWIDTH 360 0
DWIDTH 8 0
BBX 2 20 3 -3
BITMAP
C0
C0
C0
C0
C0
C0
C0
C0
00
00
00
00
C0
C0
C0
C0
C0
C0
C0
C0
ENDCHAR
STARTCHAR 00A7
ENCODING 167
SWIDTH 630 0
DWIDTH 14 0
BBX 10 20 2 -4
BITMAP
1F80
7FC0
E040
C000
C000
7000
3C00
6F00
C380
C0C0
E0C0
70C0
3D80
0F00
0380
00C0
00C0
C1C0
FF80
7F00
ENDCHAR
STARTCHAR 00A8
ENCODING 168
SWIDTH 630 0
DWIDTH 14 0
BBX 6 2 4 14
BITMAP
CC
CC
ENDCHAR
STARTCHAR 00A9
ENCODING 169
SWIDTH 855 0
DWIDTH 19 0
BBX 17 17 1 0
BITMAP
03E000
0C1800
300600
200200
41E100
471100
860080
8C0080
8C0080
8C0080
8C0080
460100
471100
21E200
300600
0C1800
03E000
ENDCHAR
STARTCHAR 00AA
ENCODING 170
SWIDTH 450 0
DWIDTH 10 0
BBX 7 8 2 9
BITMAP
78
8C
0C
7C
CC
CC
CC
7E
ENDCHAR
STARTCHAR 00AB
ENCODING 171
SWIDTH 540 0
DWIDTH 12 0
BBX 9 9 1 1
BITMAP
0880
1100
3300
6600
CC00
6600
3300
1100
0880
ENDCHAR
STARTCHAR 00AC
ENCODING 172
SWIDTH 765 0
DWIDTH 17 0
BBX 12 7 2 3
BITMAP
FFF0
FFF0
0030
0030
0030
0030
0030
ENDCHAR
STARTCHAR 00AD
ENCODING 173
SWIDTH 585 0
DWIDTH 13 0
BBX 9 2 2 5
BITMAP
FF80
FF80
ENDCHAR
STARTCHAR 00AE
ENCODING 174
SWIDTH 630 0
DWIDTH 14 0
BBX 10 10 2 6
BITMAP
1E00
6180
5C80
9240
9240
9C40
9440
5280
6180
1E00
ENDCHAR
STARTCHAR 00AF
ENCODING 175
SWIDTH 495 0
DWIDTH 11 0
BBX 9 2 1 16
BITMAP
FF80
FF80
ENDCHAR
STARTCHAR 00B0
ENCODING 176
SWIDTH 450 0
DWIDTH 10 0
BBX 6 6 2 11
BITMAP
78
84
84
84
84
78
ENDCHAR
STARTCHAR 00B1
ENCODING 177
SWIDTH 765 0
DWIDTH 17 0
BBX 12 13 2 0
BITMAP
0600
0600
0600
0600
FFF0
FFF0
0600
0600
0600
0600
0000
FFF0
FFF0
ENDCHAR
STARTCHAR 00B2
ENCODING 178
SWIDTH 405 0
DWIDTH 9 0
BBX 6 10 1 6
BITMAP
78
8C
0C
0C
0C
18
30
60
C0
FC
ENDCHAR
STARTCHAR 00B3
ENCODING 179
SWIDTH 405 0
DWIDTH 9 0
BBX 6 10 1 6
BITMAP
78
8C
0C
18
70
18
0C
0C
9C
78
ENDCHAR
STARTCHAR 00B4
ENCODING 180
SWIDTH 630 0
DWIDTH 14 0
BBX 4 3 4 14
BITMAP
30
60
C0
ENDCHAR
STARTCHAR 00B5
ENCODING 181
SWIDTH 630 0
DWIDTH 14 0
BBX 11 16 1 -4
BITMAP
C060
C060
C060
C060
C060
C060
C060
C060
C0E0
E1E0
FF60
DE60
C000
C000
C000
C000
ENDCHAR
STARTCHAR 00B6
ENCODING 182
SWIDTH 630 0
DWIDTH 14 0
BBX 9 19 2 -3
BITMAP
3F80
7C80
FC80
FC80
FC80
FC80
7C80
1C80
0480
0480
0480
0480
0480
0480
0480
0480
0480
0480
0480
ENDCHAR
STARTCHAR 00B7
ENCODING 183
SWIDTH 315 0
DWIDTH 7 0
BBX 3 3 2 5
BITMAP
E0
E0
E0
ENDCHAR
STARTCHAR 00B8
ENCODING 184
SWIDTH 630 0
DWIDTH 14 0
BBX 3 5 6 -5
BITMAP
40
C0
20
20
C0
ENDCHAR
STARTCHAR 00B9
ENCODING 185
SWIDTH 405 0
DWIDTH 9 0
BBX 6 10 2 6
BITMAP
30
F0
30
30
30
30
30
30
30
FC
ENDCHAR
STARTCHAR 00BA
ENCODING 186
SWIDTH 450 0
DWIDTH 10 0
BBX 8 8 1 9
BITMAP
3C
66
C3
C3
C3
C3
66
3C
ENDCHAR
STARTCHAR 00BB
ENCODING 187
SWIDTH 540 0
DWIDTH 12 0
BBX 9 9 2 1
BITMAP
8800
4400
6600
3300
1980
3300
6600
4400
8800
ENDCHAR
STARTCHAR 00BC
ENCODING 188
SWIDTH 810 0
DWIDTH 18 0
BBX 16 16 1 0
BITMAP
3004
F008
3010
3010
3020
3040
3086
310E
3116
3216
0426
0846
107F
1006
2006
4006
ENDCHAR
STARTCHAR 00BD
ENCODING 189
SWIDTH 810 0
DWIDTH 18 0
BBX 16 16 1 0
BITMAP
3008
F010
3020
3020
3040
3080
311E
3223
3203
3403
0806
100E
200C
2018
4030
803F
ENDCHAR
STARTCHAR 00BE
ENCODING 190
SWIDTH 810 0
DWIDTH 18 0
BBX 16 16 1 0
BITMAP
7802
8C04
0C08
1808
7010
1820
0C46
0C8E
9C96
7916
0226
0446
087F
0806
1006
2006
ENDCHAR
STARTCHAR 00BF
ENCODING 191
SWIDTH 405 0
DWIDTH 9 0
BBX 8 16 1 -4
BITMAP
0C
0C
0C
00
00
0C
0C
0C
18
30
60
C0
C0
C1
7F
3E
ENDCHAR
STARTCHAR 00C0
ENCODING 192
SWIDTH 675 0
DWIDTH 15 0
BBX 15 20 0 0
BITMAP
0600
0300
0180
0000
0380
0380
0380
06C0
06C0
0C60
0C60
0C70
1830
1830
3FF8
3FF8
701C
600C
600C
C006
ENDCHAR
STARTCHAR 00C1
ENCODING 193
SWIDTH 675 0
DWIDTH 15 0
BBX 15 20 0 0
BITMAP
00C0
0180
0300
0000
0380
0380
0380
06C0
06C0
0C60
0C60
0C70
1830
1830
3FF8
3FF8
701C
600C
600C
C006
ENDCHAR
STARTCHAR 00C2
ENCODING 194
SWIDTH 675 0
DWIDTH 15 0
BBX 15 20 0 0
BITMAP
0380
06C0
0C60
0000
0380
0380
0380
06C0
06C0
0C60
0C60
0C70
1830
1830
3FF8
3FF8
701C
600C
600C
C006
ENDCHAR
STARTCHAR 00C3
ENCODING 195
SWIDTH 675 0
DWIDTH 15 0
BBX 15 20 0 0
BITMAP
0720
0FE0
09C0
0000
0380
0380
0380
06C0
06C0
0C60
0C60
0C70
1830
1830
3FF8
3FF8
701C
600C
600C
C006
ENDCHAR
STARTCHAR 00C4
ENCODING 196
SWIDTH 675 0
DWIDTH 15 0
BBX 15 19 0 0
BITMAP
0660
0660
0000
0380
0380
0380
06C0
06C0
0C60
0C60
0C70
1830
1830
3FF8
3FF8
701C
600C
600C
C006
ENDCHAR
STARTCHAR 00C5
ENCODING 197
SWIDTH 675 0
DWIDTH 15 0
BBX 15 21 0 0
BITMAP
0380
0440
0440
0440
0380
0380
0380
0380
06C0
06C0
0C60
0C60
0C70
1830
1830
3FF8
3FF8
701C
600C
600C
C006
ENDCHAR
STARTCHAR 00C6
ENCODING 198
SWIDTH 900 0
DWIDTH 20 0
BBX 20 15 0 1
BITMAP
007FE0
007FE0
00F000
01B000
01B000
033000
063FC0
063FC0
0C3000
1FF000
1FF000
303000
603000
603FF0
C03FF0
ENDCHAR
STARTCHAR 00C7
ENCODING 199
SWIDTH 675 0
DWIDTH 15 0
BBX 13 21 1 -5
BITMAP
07E0
1FF8
3818
7000
6000
C000
C000
C000
C000
C000
C000
6000
7000
3818
1FF8
07F0
0080
0180
0040
0040
0180
ENDCHAR
STARTCHAR 00C8
ENCODING 200
SWIDTH 540 0
DWIDTH 12 0
BBX 10 20 2 0
BITMAP
1800
0C00
0600
0000
FFC0
FFC0
C000
C000
C000
C000
C000
FF00
FF00
C000
C000
C000
C000
C000
FFC0
FFC0
ENDCHAR
STARTCHAR 00C9
ENCODING 201
SWIDTH 540 0
DWIDTH 12 0
BBX 10 20 2 0
BITMAP
0600
0C00
1800
0000
FFC0
FFC0
C000
C000
C000
C000
C000
FF00
FF00
C000
C000
C000
C000
C000
FFC0
FFC0
ENDCHAR
STARTCHAR 00CA
ENCODING 202
SWIDTH 540 0
DWIDTH 12 0
BBX 10 20 2 0
BITMAP
0E00
1B00
3180
0000
FFC0
FFC0
C000
C000
C000
C000
C000
FF00
FF00
C000
C000
C000
C000
C000
FFC0
FFC0
ENDCHAR
STARTCHAR 00CB
ENCODING 203
SWIDTH 540 0
DWIDTH 12 0
BBX 10 19 2 0
BITMAP
3300
3300
0000
FFC0
FFC0
C000
C000
C000
C000
C000
FF00
FF00
C000
C000
C000
C000
C000
FFC0
FFC0
ENDCHAR
STARTCHAR 00CC
ENCODING 204
SWIDTH 270 0
DWIDTH 6 0
BBX 4 20 1 0
BITMAP
C0
60
30
00
60
60
60
60
60
60
60
60
60
60
60
60
60
60
60
60
ENDCHAR
STARTCHAR 00CD
ENCODING 205
SWIDTH 270 0
DWIDTH 6 0
BBX 4 20 2 0
BITMAP
30
60
C0
00
C0
C0
C0
C0
C0
C0
C0
C0
C0
C0
C0
C0
C0
C0
C0
C0
ENDCHAR
STARTCHAR 00CE
ENCODING 206
SWIDTH 270 0
DWIDTH 6 0
BBX 7 20 0 0
BITMAP
38
6C
C6
00
30
30
30
30
30
30
30
30
30
30
30
30
30
30
30
30
ENDCHAR
STARTCHAR 00CF
ENCODING 207
SWIDTH 270 0
DWIDTH 6 0
BBX 6 19 0 0
BITMAP
CC
CC
00
30
30
30
30
30
30
30
30
30
30
30
30
30
30
30
30
ENDCHAR
STARTCHAR 00D0
ENCODING 208
SWIDTH 720 0
DWIDTH 16 0
BBX 15 16 0 0
BITMAP
3FE0
3FF0
3038
301C
300C
3006
3006
FF06
FF06
3006
3006
300C
301C
3038
3FF0
3FC0
ENDCHAR
STARTCHAR 00D1
ENCODING 209
SWIDTH 720 0
DWIDTH 16 0
BBX 12 20 2 0
BITMAP
0E40
1FC0
1380
0000
E030
E030
F030
F030
D830
DC30
CC30
C630
C630
C330
C3B0
C1B0
C0F0
C0F0
C070
C070
ENDCHAR
STARTCHAR 00D2
ENCODING 210
SWIDTH 765 0
DWIDTH 17 0
BBX 15 20 1 0
BITMAP
0600
0300
0180
0000
07C0
1FF0
3838
701C
600C
C006
C006
C006
C006
C006
C006
600C
701C
3838
1FF0
07C0
ENDCHAR
STARTCHAR 00D3
ENCODING 211
SWIDTH 765 0
DWIDTH 17 0
BBX 15 20 1 0
BITMAP
00C0
0180
0300
0000
07C0
1FF0
3838
701C
600C
C006
C006
C006
C006
C006
C006
600C
701C
3838
1FF0
07C0
ENDCHAR
STARTCHAR 00D4
ENCODING 212
SWIDTH 765 0
DWIDTH 17 0
BBX 15 20 1 0
BITMAP
0380
06C0
0C60
0000
07C0
1FF0
3838
701C
600C
C006
C006
C006
C006
C006
C006
600C
701C
3838
1FF0
07C0
ENDCHAR
STARTCHAR 00D5
ENCODING 213
SWIDTH 765 0
DWIDTH 17 0
BBX 15 20 1 0
BITMAP
0720
0FE0
09C0
0000
07C0
1FF0
3838
701C
600C
C006
C006
C006
C006
C006
C006
600C
701C
3838
1FF0
07C0
ENDCHAR
STARTCHAR 00D6
ENCODING 214
SWIDTH 765 0
DWIDTH 17 0
BBX 15 19 1 0
BITMAP
0660
0660
0000
07C0
1FF0
3838
701C
600C
C006
C006
C006
C006
C006
C006
600C
701C
3838
1FF0
07C0
ENDCHAR
STARTCHAR 00D7
ENCODING 215
SWIDTH 765 0
DWIDTH 17 0
BBX 13 13 2 0
BITMAP
4010
E038
7070
38E0
1DC0
0F80
0700
0F80
1DC0
38E0
7070
E038
4010
ENDCHAR
STARTCHAR 00D8
ENCODING 216
SWIDTH 765 0
DWIDTH 17 0
BBX 15 16 1 0
BITMAP
07C6
1FFC
3838
703C
606C
C066
C0C6
C186
C306
C606
CC06
6C0C
781C
3838
7FF0
C7C0
ENDCHAR
STARTCHAR 00D9
ENCODING 217
SWIDTH 675 0
DWIDTH 15 0
BBX 11 20 2 0
BITMAP
1800
0C00
0600
0000
C060
C060
C060
C060
C060
C060
C060
C060
C060
C060
C060
C060
C060
60C0
7FC0
1F00
ENDCHAR
STARTCHAR 00DA
ENCODING 218
SWIDTH 675 0
DWIDTH 15 0
BBX 11 20 2 0
BITMAP
0300
0600
0C00
0000
C060
C060
C060
C060
C060
C060
C060
C060
C060
C060
C060
C060
C060
60C0
7FC0
1F00
ENDCHAR
STARTCHAR 00DB
ENCODING 219
SWIDTH 675 0
DWIDTH 15 0
BBX 11 20 2 0
BITMAP
0E00
1B00
3180
0000
C060
C060
C060
C060
C060
C060
C060
C060
C060
C060
C060
C060
C060
60C0
7FC0
1F00
ENDCHAR
STARTCHAR 00DC
ENCODING 220
SWIDTH 675 0
DWIDTH 15 0
BBX 11 19 2 0
BITMAP
1980
1980
0000
C060
C060
C060
C060
C060
C060
C060
C060
C060
C060
C060
C060
C060
60C0
7FC0
1F00
ENDCHAR
STARTCHAR 00DD
ENCODING 221
SWIDTH 630 0
DWIDTH 14 0
BBX 12 19 1 1
BITMAP
0180
0300
0600
0000
C030
6060
6060
30C0
30C0
1980
1900
0F00
0E00
0600
0600
0600
0600
0600
0600
ENDCHAR
STARTCHAR 00DE
ENCODING 222
SWIDTH 540 0
DWIDTH 12 0
BBX 10 15 2 1
BITMAP
C000
C000
C000
FF00
FF80
C1C0
C0C0
C0C0
C0C0
C380
FF00
FE00
C000
C000
C000
ENDCHAR
STARTCHAR 00DF
ENCODING 223
SWIDTH 585 0
DWIDTH 13 0
BBX 11 17 1 0
BITMAP
3E00
7F00
E180
C180
C180
C300
C600
CC00
CE00
C700
C380
C1C0
C0E0
C060
C860
CFC0
0780
ENDCHAR
STARTCHAR 00E0
ENCODING 224
SWIDTH 540 0
DWIDTH 12 0
BBX 11 17 1 0
BITMAP
1800
0C00
0600
0000
0000
3F00
7F80
4180
0180
0180
1F80
7F80
E180
C180
C380
7FE0
3CE0
ENDCHAR
STARTCHAR 00E1
ENCODING 225
SWIDTH 540 0
DWIDTH 12 0
BBX 11 17 1 0
BITMAP
0600
0C00
1800
0000
0000
3F00
7F80
4180
0180
0180
1F80
7F80
E180
C180
C380
7FE0
3CE0
ENDCHAR
STARTCHAR 00E2
ENCODING 226
SWIDTH 540 0
DWIDTH 12 0
BBX 11 17 1 0
BITMAP
0E00
1B00
3180
0000
0000
3F00
7F80
4180
0180
0180
1F80
7F80
E180
C180
C380
7FE0
3CE0
ENDCHAR
STARTCHAR 00E3
ENCODING 227
SWIDTH 540 0
DWIDTH 12 0
BBX 11 17 1 0
BITMAP
1C80
3F80
2700
0000
0000
3F00
7F80
4180
0180
0180
1F80
7F80
E180
C180
C380
7FE0
3CE0
ENDCHAR
STARTCHAR 00E4
ENCODING 228
SWIDTH 540 0
DWIDTH 12 0
BBX 11 16 1 0
BITMAP
3300
3300
0000
0000
3F00
7F80
4180
0180
0180
1F80
7F80
E180
C180
C380
7FE0
3CE0
ENDCHAR
STARTCHAR 00E5
ENCODING 229
SWIDTH 540 0
DWIDTH 12 0
BBX 11 19 1 0
BITMAP
0E00
1100
1100
1100
0E00
0000
0000
3F00
7F80
4180
0180
0180
1F80
7F80
E180
C180
C380
7FE0
3CE0
ENDCHAR
STARTCHAR 00E6
ENCODING 230
SWIDTH 855 0
DWIDTH 19 0
BBX 16 12 1 0
BITMAP
3E3C
7F7E
41C6
0183
0183
1FFF
7FFF
E180
C180
C3C1
7E7F
3C3E
ENDCHAR
STARTCHAR 00E7
ENCODING 231
SWIDTH 495 0
DWIDTH 11 0
BBX 8 17 1 -5
BITMAP
1E
7F
71
E0
C0
C0
C0
C0
E0
71
7F
1E
04
0C
02
02
0C
ENDCHAR
STARTCHAR 00E8
ENCODING 232
SWIDTH 540 0
DWIDTH 12 0
BBX 9 17 1 0
BITMAP
3000
1800
0C00
0000
0000
1E00
7F00
7300
E180
C180
FF80
FF80
C000
E000
7080
3F80
1F00
ENDCHAR
STARTCHAR 00E9
ENCODING 233
SWIDTH 540 0
DWIDTH 12 0
BBX 9 17 1 0
BITMAP
0600
0C00
1800
0000
0000
1E00
7F00
7300
E180
C180
FF80
FF80
C000
E000
7080
3F80
1F00
ENDCHAR
STARTCHAR 00EA
ENCODING 234
SWIDTH 540 0
DWIDTH 12 0
BBX 9 17 1 0
BITMAP
0E00
1B00
3180
0000
0000
1E00
7F00
7300
E180
C180
FF80
FF80
C000
E000
7080
3F80
1F00
ENDCHAR
STARTCHAR 00EB
ENCODING 235
SWIDTH 540 0
DWIDTH 12 0
BBX 9 16 1 0
BITMAP
3300
3300
0000
0000
1E00
7F00
7300
E180
C180
FF80
FF80
C000
E000
7080
3F80
1F00
ENDCHAR
STARTCHAR 00EC
ENCODING 236
SWIDTH 270 0
DWIDTH 6 0
BBX 4 17 1 0
BITMAP
C0
60
30
00
00
60
60
60
60
60
60
60
60
60
60
60
60
ENDCHAR
STARTCHAR 00ED
ENCODING 237
SWIDTH 270 0
DWIDTH 6 0
BBX 4 17 2 0
BITMAP
30
60
C0
00
00
C0
C0
C0
C0
C0
C0
C0
C0
C0
C0
C0
C0
ENDCHAR
STARTCHAR 00EE
ENCODING 238
SWIDTH 270 0
DWIDTH 6 0
BBX 7 17 0 0
BITMAP
38
6C
C6
00
00
30
30
30
30
30
30
30
30
30
30
30
30
ENDCHAR
STARTCHAR 00EF
ENCODING 239
SWIDTH 270 0
DWIDTH 6 0
BBX 6 16 0 0
BITMAP
CC
CC
00
00
30
30
30
30
30
30
30
30
30
30
30
30
ENDCHAR
STARTCHAR 00F0
ENCODING 240
SWIDTH 585 0
DWIDTH 13 0
BBX 11 18 1 0
BITMAP
0600
FE00
FC00
7E00
2300
0180
1FC0
3FC0
70E0
E060
C060
C060
C060
C060
E0E0
71C0
3F80
1F00
ENDCHAR
STARTCHAR 00F1
ENCODING 241
SWIDTH 630 0
DWIDTH 14 0
BBX 11 17 1 0
BITMAP
0E40
1FC0
1380
0000
0000
C780
DFC0
F860
E060
C060
C060
C060
C060
C060
C060
C060
C060
ENDCHAR
STARTCHAR 00F2
ENCODING 242
SWIDTH 630 0
DWIDTH 14 0
BBX 11 17 1 0
BITMAP
1800
0C00
0600
0000
0000
1F00
7FC0
60C0
C060
C060
C060
C060
C060
C060
60C0
7FC0
1F00
ENDCHAR
STARTCHAR 00F3
ENCODING 243
SWIDTH 630 0
DWIDTH 14 0
BBX 11 17 1 0
BITMAP
0300
0600
0C00
0000
0000
1F00
7FC0
60C0
C060
C060
C060
C060
C060
C060
60C0
7FC0
1F00
ENDCHAR
STARTCHAR 00F4
ENCODING 244
SWIDTH 630 0
DWIDTH 14 0
BBX 11 17 1 0
BITMAP
0E00
1B00
3180
0000
0000
1F00
7FC0
60C0
C060
C060
C060
C060
C060
C060
60C0
7FC0
1F00
ENDCHAR
STARTCHAR 00F5
ENCODING 245
SWIDTH 630 0
DWIDTH 14 0
BBX 11 17 1 0
BITMAP
1C80
3F80
2700
0000
0000
1F00
7FC0
60C0
C060
C060
C060
C060
C060
C060
60C0
7FC0
1F00
ENDCHAR
STARTCHAR 00F6
ENCODING 246
SWIDTH 630 0
DWIDTH 14 0
BBX 11 16 1 0
BITMAP
1980
1980
0000
0000
1F00
7FC0
60C0
C060
C060
C060
C060
C060
C060
60C0
7FC0
1F00
ENDCHAR
STARTCHAR 00F7
ENCODING 247
SWIDTH 765 0
DWIDTH 17 0
BBX 13 13 2 0
BITMAP
0700
0700
0700
0000
0000
FFF8
FFF8
0000
0000
0000
0700
0700
0700
ENDCHAR
STARTCHAR 00F8
ENCODING 248
SWIDTH 630 0
DWIDTH 14 0
BBX 11 12 1 0
BITMAP
1F60
3FC0
61C0
C360
C360
C660
CC60
D860
D860
70C0
7F80
DF00
ENDCHAR
STARTCHAR 00F9
ENCODING 249
SWIDTH 630 0
DWIDTH 14 0
BBX 11 17 1 0
BITMAP
1800
0C00
0600
0000
0000
C060
C060
C060
C060
C060
C060
C060
C060
C0E0
E3E0
7F60
1C60
ENDCHAR
STARTCHAR 00FA
ENCODING 250
SWIDTH 630 0
DWIDTH 14 0
BBX 11 17 1 0
BITMAP
0300
0600
0C00
0000
0000
C060
C060
C060
C060
C060
C060
C060
C060
C0E0
E3E0
7F60
1C60
ENDCHAR
STARTCHAR 00FB
ENCODING 251
SWIDTH 630 0
DWIDTH 14 0
BBX 11 17 1 0
BITMAP
0E00
1B00
3180
0000
0000
C060
C060
C060
C060
C060
C060
C060
C060
C0E0
E3E0
7F60
1C60
ENDCHAR
STARTCHAR 00FC
ENCODING 252
SWIDTH 630 0
DWIDTH 14 0
BBX 11 16 1 0
BITMAP
1980
1980
0000
0000
C060
C060
C060
C060
C060
C060
C060
C060
C0E0
E3E0
7F60
1C60
ENDCHAR
STARTCHAR 00FD
ENCODING 253
SWIDTH 540 0
DWIDTH 12 0
BBX 11 21 0 -4
BITMAP
0300
0600
0C00
0000
0000
C060
C060
60C0
60C0
60C0
3180
3180
1B00
1B00
1A00
0E00
0E00
0C00
0C00
1800
1800
ENDCHAR
STARTCHAR 00FE
ENCODING 254
SWIDTH 630 0
DWIDTH 14 0
BBX 11 21 1 -4
BITMAP
C000
C000
C000
C000
C000
CF00
DFC0
F0C0
C060
C060
C060
C060
C060
C060
F0C0
FFC0
CF00
C000
C000
C000
C000
ENDCHAR
STARTCHAR 00FF
ENCODING 255
SWIDTH 540 0
DWIDTH 12 0
BBX 11 20 0 -4
BITMAP
1980
1980
0000
0000
C060
C060
60C0
60C0
60C0
3180
3180
1B00
1B00
1A00
0E00
0E00
0C00
0C00
1800
1800
ENDCHAR
STARTCHAR 0100
ENCODING 256
SWIDTH 675 0
DWIDTH 15 0
BBX 15 19 0 0
BITMAP
0FE0
0FE0
0000
0380
0380
0380
06C0
06C0
0C60
0C60
0C70
1830
1830
3FF8
3FF8
701C
600C
600C
C006
ENDCHAR
STARTCHAR 0101
ENCODING 257
SWIDTH 540 0
DWIDTH 12 0
BBX 11 16 1 0
BITMAP
3F80
3F80
0000
0000
3F00
7F80
4180
0180
0180
1F80
7F80
E180
C180
C380
7FE0
3CE0
ENDCHAR
STARTCHAR 0102
ENCODING 258
SWIDTH 675 0
DWIDTH 15 0
BBX 15 21 0 0
BITMAP
0820
0C60
07C0
0380
0000
0380
0380
0380
06C0
06C0
0C60
0C60
0C70
1830
1830
3FF8
3FF8
701C
600C
600C
C006
ENDCHAR
STARTCHAR 0103
ENCODING 259
SWIDTH 540 0
DWIDTH 12 0
BBX 11 18 1 0
BITMAP
2080
3180
1F00
0E00
0000
0000
3F00
7F80
4180
0180
0180
1F80
7F80
E180
C180
C380
7FE0
3CE0
ENDCHAR
STARTCHAR 0104
ENCODING 260
SWIDTH 675 0
DWIDTH 15 0
BBX 15 20 0 -4
BITMAP
0380
0380
0380
06C0
06C0
0C60
0C60
0C70
1830
1830
3FF8
3FF8
701C
600C
600C
C006
000C
0018
0018
000E
ENDCHAR
STARTCHAR 0105
ENCODING 261
SWIDTH 540 0
DWIDTH 12 0
BBX 11 16 1 -4
BITMAP
3F00
7F80
4180
0180
0180
1F80
7F80
E180
C180
C380
7FE0
3CE0
00C0
0180
0180
00E0
ENDCHAR
STARTCHAR 0106
ENCODING 262
SWIDTH 675 0
DWIDTH 15 0
BBX 13 20 1 0
BITMAP
00C0
0180
0300
0000
07E0
1FF8
3818
7000
6000
C000
C000
C000
C000
C000
C000
6000
7000
3818
1FF8
07F0
ENDCHAR
STARTCHAR 0107
ENCODING 263
SWIDTH 495 0
DWIDTH 11 0
BBX 8 17 1 0
BITMAP
06
0C
18
00
00
1E
7F
71
E0
C0
C0
C0
C0
E0
71
7F
1E
ENDCHAR
STARTCHAR 0108
ENCODING 264
SWIDTH 675 0
DWIDTH 15 0
BBX 13 20 1 0
BITMAP
01C0
0360
0630
0000
07E0
1FF8
3818
7000
6000
C000
C000
C000
C000
C000
C000
6000
7000
3818
1FF8
07F0
ENDCHAR
STARTCHAR 0109
ENCODING 265
SWIDTH 495 0
DWIDTH 11 0
BBX 9 17 1 0
BITMAP
0E00
1B00
3180
0000
0000
1E00
7F00
7100
E000
C000
C000
C000
C000
E000
7100
7F00
1E00
ENDCHAR
STARTCHAR 010A
ENCODING 266
SWIDTH 675 0
DWIDTH 15 0
BBX 13 19 1 0
BITMAP
0180
0180
0000
07E0
1FF8
3818
7000
6000
C000
C000
C000
C000
C000
C000
6000
7000
3818
1FF8
07F0
ENDCHAR
STARTCHAR 010B
ENCODING 267
SWIDTH 495 0
DWIDTH 11 0
BBX 8 16 1 0
BITMAP
0C
0C
00
00
1E
7F
71
E0
C0
C0
C0
C0
E0
71
7F
1E
ENDCHAR
STARTCHAR 010C
ENCODING 268
SWIDTH 675 0
DWIDTH 15 0
BBX 13 20 1 0
BITMAP
0630
0360
01C0
0000
07E0
1FF8
3818
7000
6000
C000
C000
C000
C000
C000
C000
6000
7000
3818
1FF8
07F0
ENDCHAR
STARTCHAR 010D
ENCODING 269
SWIDTH 495 0
DWIDTH 11 0
BBX 9 17 1 0
BITMAP
3180
1B00
0E00
0000
0000
1E00
7F00
7100
E000
C000
C000
C000
C000
E000
7100
7F00
1E00
ENDCHAR
STARTCHAR 010E
ENCODING 270
SWIDTH 720 0
DWIDTH 16 0
BBX 13 20 2 0
BITMAP
18C0
0D80
0700
0000
FF80
FFC0
C0E0
C070
C030
C018
C018
C018
C018
C018
C018
C030
C070
C0E0
FFC0
FF00
ENDCHAR
STARTCHAR 010F
ENCODING 271
SWIDTH 720 0
DWIDTH 16 0
BBX 15 17 1 0
BITMAP
0066
0066
0062
0062
0064
1E60
7FE0
61E0
C060
C060
C060
C060
C060
C060
61E0
7F60
1E60
ENDCHAR
STARTCHAR 0110
ENCODING 272
SWIDTH 720 0
DWIDTH 16 0
BBX 15 16 0 0
BITMAP
3FE0
3FF0
3038
301C
300C
3006
3006
FF06
FF06
3006
3006
300C
301C
3038
3FF0
3FC0
ENDCHAR
STARTCHAR 0111
ENCODING 273
SWIDTH 630 0
DWIDTH 14 0
BBX 13 17 1 0
BITMAP
0060
0060
07F8
0060
0060
1E60
7FE0
60E0
C060
C060
C060
C060
C060
C060
61E0
7F60
1E60
ENDCHAR
STARTCHAR 0112
ENCODING 274
SWIDTH 540 0
DWIDTH 12 0
BBX 10 19 2 0
BITMAP
3F80
3F80
0000
FFC0
FFC0
C000
C000
C000
C000
C000
FF00
FF00
C000
C000
C000
C000
C000
FFC0
FFC0
ENDCHAR
STARTCHAR 0113
ENCODING 275
SWIDTH 540 0
DWIDTH 12 0
BBX 9 16 1 0
BITMAP
3F80
3F80
0000
0000
1E00
7F00
7300
E180
C180
FF80
FF80
C000
E000
7080
3F80
1F00
ENDCHAR
STARTCHAR 0114
ENCODING 276
SWIDTH 540 0
DWIDTH 12 0
BBX 10 21 2 0
BITMAP
2080
3180
1F00
0E00
0000
FFC0
FFC0
C000
C000
C000
C000
C000
FF00
FF00
C000
C000
C000
C000
C000
FFC0
FFC0
ENDCHAR
STARTCHAR 0115
ENCODING 277
SWIDTH 540 0
DWIDTH 12 0
BBX 9 18 1 0
BITMAP
2080
3180
1F00
0E00
0000
0000
1E00
7F00
7300
E180
C180
FF80
FF80
C000
E000
7080
3F80
1F00
ENDCHAR
STARTCHAR 0116
ENCODING 278
SWIDTH 540 0
DWIDTH 12 0
BBX 10 19 2 0
BITMAP
0C00
0C00
0000
FFC0
FFC0
C000
C000
C000
C000
C000
FF00
FF00
C000
C000
C000
C000
C000
FFC0
FFC0
ENDCHAR
STARTCHAR 0117
ENCODING 279
SWIDTH 540 0
DWIDTH 12 0
BBX 9 16 1 0
BITMAP
0C00
0C00
0000
0000
1E00
7F00
7300
E180
C180
FF80
FF80
C000
E000
7080
3F80
1F00
ENDCHAR
STARTCHAR 0118
ENCODING 280
SWIDTH 540 0
DWIDTH 12 0
BBX 10 20 2 -4
BITMAP
FFC0
FFC0
C000
C000
C000
C000
C000
FF00
FF00
C000
C000
C000
C000
C000
FFC0
FFC0
0180
0300
0300
01C0
ENDCHAR
STARTCHAR 0119
ENCODING 281
SWIDTH 540 0
DWIDTH 12 0
BBX 9 16 1 -4
BITMAP
1E00
7F00
7300
E180
C180
FF80
FF80
C000
E000
7080
3F80
1F00
0600
0C00
0C00
0700
ENDCHAR
STARTCHAR 011A
ENCODING 282
SWIDTH 540 0
DWIDTH 12 0
BBX 10 20 2 0
BITMAP
3180
1B00
0E00
0000
FFC0
FFC0
C000
C000
C000
C000
C000
FF00
FF00
C000
C000
C000
C000
C000
FFC0
FFC0
ENDCHAR
STARTCHAR 011B
ENCODING 283
SWIDTH 540 0
DWIDTH 12 0
BBX 9 17 1 0
BITMAP
6300
3600
1C00
0000
0000
1E00
7F00
7300
E180
C180
FF80
FF80
C000
E000
7080
3F80
1F00
ENDCHAR
STARTCHAR 011C
ENCODING 284
SWIDTH 720 0
DWIDTH 16 0
BBX 13 20 1 0
BITMAP
01C0
0360
0630
0000
07E0
1FF8
3818
7000
6000
C000
C000
C000
C000
C018
C018
6018
7018
3818
1FF8
07F0
ENDCHAR
STARTCHAR 011D
ENCODING 285
SWIDTH 630 0
DWIDTH 14 0
BBX 11 21 1 -4
BITMAP
0700
0D80
18C0
0000
0000
1E60
7FE0
61E0
C060
C060
C060
C060
C060
C060
61E0
7F60
1E60
0060
40C0
7FC0
3F00
ENDCHAR
STARTCHAR 011E
ENCODING 286
SWIDTH 720 0
DWIDTH 16 0
BBX 13 21 1 0
BITMAP
0820
0C60
07C0
0380
0000
07E0
1FF8
3818
7000
6000
C000
C000
C000
C000
C018
C018
6018
7018
3818
1FF8
07F0
ENDCHAR
STARTCHAR 011F
ENCODING 287
SWIDTH 630 0
DWIDTH 14 0
BBX 11 22 1 -4
BITMAP
2080
3180
1F00
0E00
0000
0000
1E60
7FE0
61E0
C060
C060
C060
C060
C060
C060
61E0
7F60
1E60
0060
40C0
7FC0
3F00
ENDCHAR
STARTCHAR 0120
ENCODING 288
SWIDTH 720 0
DWIDTH 16 0
BBX 13 19 1 0
BITMAP
0180
0180
0000
07E0
1FF8
3818
7000
6000
C000
C000
C000
C000
C018
C018
6018
7018
3818
1FF8
07F0
ENDCHAR
STARTCHAR 0121
ENCODING 289
SWIDTH 630 0
DWIDTH 14 0
BBX 11 20 1 -4
BITMAP
0600
0600
0000
0000
1E60
7FE0
61E0
C060
C060
C060
C060
C060
C060
61E0
7F60
1E60
0060
40C0
7FC0
3F00
ENDCHAR
STARTCHAR 0122
ENCODING 290
SWIDTH 720 0
DWIDTH 16 0
BBX 13 23 1 -7
BITMAP
07E0
1FF8
3818
7000
6000
C000
C000
C000
C000
C018
C018
6018
7018
3818
1FF8
07F0
0000
0000
0180
0180
0080
0080
0100
ENDCHAR
STARTCHAR 0123
ENCODING 291
SWIDTH 630 0
DWIDTH 14 0
BBX 11 23 1 -4
BITMAP
0200
0400
0400
0600
0600
0000
0000
1E60
7FE0
61E0
C060
C060
C060
C060
C060
C060
61E0
7F60
1E60
0060
40C0
7FC0
3F00
ENDCHAR
STARTCHAR 0124
ENCODING 292
SWIDTH 720 0
DWIDTH 16 0
BBX 12 20 2 0
BITMAP
0700
0D80
18C0
0000
C030
C030
C030
C030
C030
C030
C030
FFF0
FFF0
C030
C030
C030
C030
C030
C030
C030
ENDCHAR
STARTCHAR 0125
ENCODING 293
SWIDTH 630 0
DWIDTH 14 0
BBX 11 21 1 0
BITMAP
0E00
1B00
3180
0000
C000
C000
C000
C000
C000
C780
DFC0
F860
E060
C060
C060
C060
C060
C060
C060
C060
C060
ENDCHAR
STARTCHAR 0126
ENCODING 294
SWIDTH 765 0
DWIDTH 17 0
BBX 16 16 0 0
BITMAP
300C
300C
300C
FFFF
300C
300C
300C
3FFC
3FFC
300C
300C
300C
300C
300C
300C
300C
ENDCHAR
STARTCHAR 0127
ENCODING 295
SWIDTH 630 0
DWIDTH 14 0
BBX 13 17 -1 0
BITMAP
3000
3000
FF00
3000
3000
31E0
37F0
3E18
3818
3018
3018
3018
3018
3018
3018
3018
3018
ENDCHAR
STARTCHAR 0128
ENCODING 296
SWIDTH 270 0
DWIDTH 6 0
BBX 7 20 0 0
BITMAP
72
FE
9C
00
30
30
30
30
30
30
30
30
30
30
30
30
30
30
30
30
ENDCHAR
STARTCHAR 0129
ENCODING 297
SWIDTH 270 0
DWIDTH 6 0
BBX 7 17 0 0
BITMAP
72
FE
9C
00
00
30
30
30
30
30
30
30
30
30
30
30
30
ENDCHAR
STARTCHAR 012A
ENCODING 298
SWIDTH 270 0
DWIDTH 6 0
BBX 7 19 0 0
BITMAP
FE
FE
00
30
30
30
30
30
30
30
30
30
30
30
30
30
30
30
30
ENDCHAR
STARTCHAR 012B
ENCODING 299
SWIDTH 270 0
DWIDTH 6 0
BBX 7 16 0 0
BITMAP
FE
FE
00
00
30
30
30
30
30
30
30
30
30
30
30
30
ENDCHAR
STARTCHAR 012C
ENCODING 300
SWIDTH 270 0
DWIDTH 6 0
BBX 7 21 0 0
BITMAP
82
C6
7C
38
00
30
30
30
30
30
30
30
30
30
30
30
30
30
30
30
30
ENDCHAR
STARTCHAR 012D
ENCODING 301
SWIDTH 270 0
DWIDTH 6 0
BBX 7 18 0 0
BITMAP
82
C6
7C
38
00
00
30
30
30
30
30
30
30
30
30
30
30
30
ENDCHAR
STARTCHAR 012E
ENCODING 302
SWIDTH 270 0
DWIDTH 6 0
BBX 4 20 1 -4
BITMAP
60
60
60
60
60
60
60
60
60
60
60
60
60
60
60
60
60
C0
C0
70
ENDCHAR
STARTCHAR 012F
ENCODING 303
SWIDTH 270 0
DWIDTH 6 0
BBX 4 20 1 -4
BITMAP
60
60
00
00
60
60
60
60
60
60
60
60
60
60
60
60
60
C0
C0
70
ENDCHAR
STARTCHAR 0130
ENCODING 304
SWIDTH 270 0
DWIDTH 6 0
BBX 2 19 2 0
BITMAP
C0
C0
00
C0
C0
C0
C0
C0
C0
C0
C0
C0
C0
C0
C0
C0
C0
C0
C0
ENDCHAR
STARTCHAR 0131
ENCODING 305
SWIDTH 270 0
DWIDTH 6 0
BBX 2 12 2 0
BITMAP
C0
C0
C0
C0
C0
C0
C0
C0
C0
C0
C0
C0
ENDCHAR
STARTCHAR 0132
ENCODING 306
SWIDTH 585 0
DWIDTH 13 0
BBX 9 19 2 -3
BITMAP
C180
C180
C180
C180
C180
C180
C180
C180
C180
C180
C180
C180
C180
C180
C180
C180
0380
3F00
3E00
ENDCHAR
STARTCHAR 0133
ENCODING 307
SWIDTH 585 0
DWIDTH 13 0
BBX 9 20 2 -4
BITMAP
C180
C180
0000
0000
C180
C180
C180
C180
C180
C180
C180
C180
C180
C180
C180
C180
0180
1180
1F00
0E00
ENDCHAR
STARTCHAR 0134
ENCODING 308
SWIDTH 315 0
DWIDTH 7 0
BBX 9 23 -2 -3
BITMAP
0E00
1B00
3180
0000
0600
0600
0600
0600
0600
0600
0600
0600
0600
0600
0600
0600
0600
0600
0600
0600
0E00
FC00
F800
ENDCHAR
STARTCHAR 0135
ENCODING 309
SWIDTH 315 0
DWIDTH 7 0
BBX 8 21 -1 -4
BITMAP
1C
36
63
00
00
0C
0C
0C
0C
0C
0C
0C
0C
0C
0C
0C
0C
0C
8C
F8
70
ENDCHAR
STARTCHAR 0136
ENCODING 310
SWIDTH 630 0
DWIDTH 14 0
BBX 12 23 2 -7
BITMAP
C060
C0C0
C180
C300
C600
CC00
D800
F000
D800
CC00
C600
C300
C180
C0C0
C060
C030
0000
0000
0600
0600
0200
0200
0400
ENDCHAR
STARTCHAR 0137
ENCODING 311
SWIDTH 585 0
DWIDTH 13 0
BBX 11 24 1 -7
BITMAP
C000
C000
C000
C000
C000
C0C0
C180
C300
CE00
D800
F000
D800
CC00
C600
C300
C1C0
C0E0
0000
0000
0C00
0C00
0400
0400
0800
ENDCHAR
STARTCHAR 0138
ENCODING 312
SWIDTH 585 0
DWIDTH 13 0
BBX 11 12 1 0
BITMAP
C0C0
C180
C300
CE00
D800
F000
D800
CC00
C600
C300
C1C0
C0E0
ENDCHAR
STARTCHAR 0139
ENCODING 313
SWIDTH 540 0
DWIDTH 12 0
BBX 10 20 2 0
BITMAP
3000
6000
C000
0000
C000
C000
C000
C000
C000
C000
C000
C000
C000
C000
C000
C000
C000
C000
FFC0
FFC0
ENDCHAR
STARTCHAR 013A
ENCODING 314
SWIDTH 270 0
DWIDTH 6 0
BBX 4 21 2 0
BITMAP
30
60
C0
00
C0
C0
C0
C0
C0
C0
C0
C0
C0
C0
C0
C0
C0
C0
C0
C0
C0
ENDCHAR
STARTCHAR 013B
ENCODING 315
SWIDTH 540 0
DWIDTH 12 0
BBX 10 23 2 -7
BITMAP
C000
C000
C000
C000
C000
C000
C000
C000
C000
C000
C000
C000
C000
C000
FFC0
FFC0
0000
0000
0C00
0C00
0400
0400
0800
ENDCHAR
STARTCHAR 013C
ENCODING 316
SWIDTH 270 0
DWIDTH 6 0
BBX 2 24 2 -7
BITMAP
C0
C0
C0
C0
C0
C0
C0
C0
C0
C0
C0
C0
C0
C0
C0
C0
C0
00
00
C0
C0
40
40
80
ENDCHAR
STARTCHAR 013D
ENCODING 317
SWIDTH 540 0
DWIDTH 12 0
BBX 10 16 2 0
BITMAP
C600
C600
C200
C200
C400
C000
C000
C000
C000
C000
C000
C000
C000
C000
FFC0
FFC0
ENDCHAR
STARTCHAR 013E
ENCODING 318
SWIDTH 360 0
DWIDTH 8 0
BBX 5 17 2 0
BITMAP
D8
D8
C8
C8
D0
C0
C0
C0
C0
C0
C0
C0
C0
C0
C0
C0
C0
ENDCHAR
STARTCHAR 013F
ENCODING 319
SWIDTH 540 0
DWIDTH 12 0
BBX 10 16 2 0
BITMAP
C000
C000
C000
C000
C000
C000
C000
C180
C180
C000
C000
C000
C000
C000
FFC0
FFC0
ENDCHAR
STARTCHAR 0140
ENCODING 320
SWIDTH 360 0
DWIDTH 8 0
BBX 6 17 1 0
BITMAP
C0
C0
C0
C0
C0
C0
C0
CC
CC
C0
C0
C0
C0
C0
C0
C0
C0
ENDCHAR
STARTCHAR 0141
ENCODING 321
SWIDTH 540 0
DWIDTH 12 0
BBX 12 16 0 0
BITMAP
3000
3000
3000
3000
3200
3E00
3C00
7000
F000
B000
3000
3000
3000
3000
3FF0
3FF0
ENDCHAR
STARTCHAR 0142
ENCODING 322
SWIDTH 315 0
DWIDTH 7 0
BBX 6 17 0 0
BITMAP
30
30
30
30
30
34
3C
78
F0
B0
30
30
30
30
30
30
30
ENDCHAR
STARTCHAR 0143
ENCODING 323
SWIDTH 720 0
DWIDTH 16 0
BBX 12 20 2 0
BITMAP
0180
0300
0600
0000
E030
E030
F030
F030
D830
DC30
CC30
C630
C630
C330
C3B0
C1B0
C0F0
C0F0
C070
C070
ENDCHAR
STARTCHAR 0144
ENCODING 324
SWIDTH 630 0
DWIDTH 14 0
BBX 11 17 1 0
BITMAP
0300
0600
0C00
0000
0000
C780
DFC0
F860
E060
C060
C060
C060
C060
C060
C060
C060
C060
ENDCHAR
STARTCHAR 0145
ENCODING 325
SWIDTH 720 0
DWIDTH 16 0
BBX 12 23 2 -7
BITMAP
E030
E030
F030
F030
D830
DC30
CC30
C630
C630
C330
C3B0
C1B0
C0F0
C0F0
C070
C070
0000
0000
0600
0600
0200
0200
0400
ENDCHAR
STARTCHAR 0146
ENCODING 326
SWIDTH 630 0
DWIDTH 14 0
BBX 11 19 1 -7
BITMAP
C780
DFC0
F860
E060
C060
C060
C060
C060
C060
C060
C060
C060
0000
0000
0600
0600
0200
0200
0400
ENDCHAR
STARTCHAR 0147
ENCODING 327
SWIDTH 720 0
DWIDTH 16 0
BBX 12 20 2 0
BITMAP
18C0
0D80
0700
0000
E030
E030
F030
F030
D830
DC30
CC30
C630
C630
C330
C3B0
C1B0
C0F0
C0F0
C070
C070
ENDCHAR
STARTCHAR 0148
ENCODING 328
SWIDTH 630 0
DWIDTH 14 0
BBX 11 17 1 0
BITMAP
3180
1B00
0E00
0000
0000
C780
DFC0
F860
E060
C060
C060
C060
C060
C060
C060
C060
C060
ENDCHAR
STARTCHAR 0149
ENCODING 329
SWIDTH 675 0
DWIDTH 15 0
BBX 14 17 0 0
BITMAP
C000
C000
4000
4000
8000
18F0
1BF8
1F0C
1C0C
180C
180C
180C
180C
180C
180C
180C
180C
ENDCHAR
STARTCHAR 014A
ENCODING 330
SWIDTH 720 0
DWIDTH 16 0
BBX 12 21 2 -5
BITMAP
E030
E030
F030
F030
D830
DC30
CC30
C630
C630
C330
C3B0
C1B0
C0F0
C0F0
C070
C070
0030
0030
0030
01E0
01E0
ENDCHAR
STARTCHAR 014B
ENCODING 331
SWIDTH 630 0
DWIDTH 14 0
BBX 11 17 1 -5
BITMAP
C780
DFC0
F860
E060
C060
C060
C060
C060
C060
C060
C060
C060
0060
0060
0060
03C0
03C0
ENDCHAR
STARTCHAR 014C
ENCODING 332
SWIDTH 765 0
DWIDTH 17 0
BBX 15 19 1 0
BITMAP
0FE0
0FE0
0000
07C0
1FF0
3838
701C
600C
C006
C006
C006
C006
C006
C006
600C
701C
3838
1FF0
07C0
ENDCHAR
STARTCHAR 014D
ENCODING 333
SWIDTH 630 0
DWIDTH 14 0
BBX 11 16 1 0
BITMAP
3F80
3F80
0000
0000
1F00
7FC0
60C0
C060
C060
C060
C060
C060
C060
60C0
7FC0
1F00
ENDCHAR
STARTCHAR 014E
ENCODING 334
SWIDTH 765 0
DWIDTH 17 0
BBX 15 21 1 0
BITMAP
0820
0C60
07C0
0380
0000
07C0
1FF0
3838
701C
600C
C006
C006
C006
C006
C006
C006
600C
701C
3838
1FF0
07C0
ENDCHAR
STARTCHAR 014F
ENCODING 335
SWIDTH 630 0
DWIDTH 14 0
BBX 11 18 1 0
BITMAP
2080
3180
1F00
0E00
0000
0000
1F00
7FC0
60C0
C060
C060
C060
C060
C060
C060
60C0
7FC0
1F00
ENDCHAR
STARTCHAR 0150
ENCODING 336
SWIDTH 765 0
DWIDTH 17 0
BBX 15 20 1 0
BITMAP
0198
0330
0660
0000
07C0
1FF0
3838
701C
600C
C006
C006
C006
C006
C006
C006
600C
701C
3838
1FF0
07C0
ENDCHAR
STARTCHAR 0151
ENCODING 337
SWIDTH 630 0
DWIDTH 14 0
BBX 11 17 1 0
BITMAP
0660
0CC0
1980
0000
0000
1F00
7FC0
60C0
C060
C060
C060
C060
C060
C060
60C0
7FC0
1F00
ENDCHAR
STARTCHAR 0152
ENCODING 338
SWIDTH 990 0
DWIDTH 22 0
BBX 21 16 1 0
BITMAP
07DFF8
1FFFF8
383800
601800
601800
C01800
C01800
C01FE0
C01FE0
C01800
C01800
601800
601800
383800
1FFFF8
07DFF8
ENDCHAR
STARTCHAR 0153
ENCODING 339
SWIDTH 900 0
DWIDTH 20 0
BBX 17 12 1 0
BITMAP
1E1E00
3F3F00
61E300
C0C180
C0C180
C0FF80
C0FF80
C0C000
C0C000
61E080
3F3F80
1E1F00
ENDCHAR
STARTCHAR 0154
ENCODING 340
SWIDTH 630 0
DWIDTH 14 0
BBX 12 20 2 0
BITMAP
0600
0C00
1800
0000
FF00
FF80
C1C0
C0C0
C0C0
C1C0
C380
FF00
FE00
C600
C300
C180
C180
C0C0
C060
C030
ENDCHAR
STARTCHAR 0155
ENCODING 341
SWIDTH 405 0
DWIDTH 9 0
BBX 7 17 1 0
BITMAP
0C
18
30
00
00
CE
DE
F0
E0
C0
C0
C0
C0
C0
C0
C0
C0
ENDCHAR
STARTCHAR 0156
ENCODING 342
SWIDTH 630 0
DWIDTH 14 0
BBX 12 23 2 -7
BITMAP
FF00
FF80
C1C0
C0C0
C0C0
C1C0
C380
FF00
FE00
C600
C300
C180
C180
C0C0
C060
C030
0000
0000
0600
0600
0200
0200
0400
ENDCHAR
STARTCHAR 0157
ENCODING 343
SWIDTH 405 0
DWIDTH 9 0
BBX 7 19 1 -7
BITMAP
CE
DE
F0
E0
C0
C0
C0
C0
C0
C0
C0
C0
00
00
E0
E0
40
40
C0
ENDCHAR
STARTCHAR 0158
ENCODING 344
SWIDTH 630 0
DWIDTH 14 0
BBX 12 20 2 0
BITMAP
6300
3600
1C00
0000
FF00
FF80
C1C0
C0C0
C0C0
C1C0
C380
FF00
FE00
C600
C300
C180
C180
C0C0
C060
C030
ENDCHAR
STARTCHAR 0159
ENCODING 345
SWIDTH 405 0
DWIDTH 9 0
BBX 7 17 1 0
BITMAP
C6
6C
38
00
00
CE
DE
F0
E0
C0
C0
C0
C0
C0
C0
C0
C0
ENDCHAR
STARTCHAR 015A
ENCODING 346
SWIDTH 540 0
DWIDTH 12 0
BBX 10 20 1 0
BITMAP
0300
0600
0C00
0000
3F00
7F80
E080
C000
C000
E000
7800
3E00
0F00
0380
01C0
00C0
00C0
C1C0
FF80
7E00
ENDCHAR
STARTCHAR 015B
ENCODING 347
SWIDTH 495 0
DWIDTH 11 0
BBX 8 17 1 0
BITMAP
0C
18
30
00
00
3C
7E
C2
C0
E0
7C
1E
07
03
83
FE
7C
ENDCHAR
STARTCHAR 015C
ENCODING 348
SWIDTH 540 0
DWIDTH 12 0
BBX 10 20 1 0
BITMAP
0E00
1B00
3180
0000
3F00
7F80
E080
C000
C000
E000
7800
3E00
0F00
0380
01C0
00C0
00C0
C1C0
FF80
7E00
ENDCHAR
STARTCHAR 015D
ENCODING 349
SWIDTH 495 0
DWIDTH 11 0
BBX 8 17 1 0
BITMAP
1C
36
63
00
00
3C
7E
C2
C0
E0
7C
1E
07
03
83
FE
7C
ENDCHAR
STARTCHAR 015E
ENCODING 350
SWIDTH 540 0
DWIDTH 12 0
BBX 10 21 1 -5
BITMAP
3F00
7F80
E080
C000
C000
E000
7800
3E00
0F00
0380
01C0
00C0
00C0
C1C0
FF80
7E00
0400
0C00
0200
0200
0C00
ENDCHAR
STARTCHAR 015F
ENCODING 351
SWIDTH 495 0
DWIDTH 11 0
BBX 8 17 1 -5
BITMAP
3C
7E
C2
C0
E0
7C
1E
07
03
83
FE
7C
08
18
04
04
18
ENDCHAR
STARTCHAR 0160
ENCODING 352
SWIDTH 540 0
DWIDTH 12 0
BBX 10 20 1 0
BITMAP
3180
1B00
0E00
0000
3F00
7F80
E080
C000
C000
E000
7800
3E00
0F00
0380
01C0
00C0
00C0
C1C0
FF80
7E00
ENDCHAR
STARTCHAR 0161
ENCODING 353
SWIDTH 495 0
DWIDTH 11 0
BBX 8 17 1 0
BITMAP
63
36
1C
00
00
3C
7E
C2
C0
E0
7C
1E
07
03
83
FE
7C
ENDCHAR
STARTCHAR 0162
ENCODING 354
SWIDTH 630 0
DWIDTH 14 0
BBX 14 21 0 -5
BITMAP
FFFC
FFFC
0300
0300
0300
0300
0300
0300
0300
0300
0300
0300
0300
0300
0300
0300
0100
0300
0080
0080
0300
ENDCHAR
STARTCHAR 0163
ENCODING 355
SWIDTH 360 0
DWIDTH 8 0
BBX 6 19 0 -5
BITMAP
60
60
FC
FC
60
60
60
60
60
60
60
60
7C
3C
10
30
08
08
30
ENDCHAR
STARTCHAR 0164
ENCODING 356
SWIDTH 630 0
DWIDTH 14 0
BBX 14 20 0 0
BITMAP
0C60
06C0
0380
0000
FFFC
FFFC
0300
0300
0300
0300
0300
0300
0300
0300
0300
0300
0300
0300
0300
0300
ENDCHAR
STARTCHAR 0165
ENCODING 357
SWIDTH 360 0
DWIDTH 8 0
BBX 7 16 0 0
BITMAP
06
06
62
62
FC
FC
60
60
60
60
60
60
60
60
7C
3C
ENDCHAR
STARTCHAR 0166
ENCODING 358
SWIDTH 630 0
DWIDTH 14 0
BBX 14 16 0 0
BITMAP
FFFC
FFFC
0300
0300
0300
0300
0300
1FE0
1FE0
0300
0300
0300
0300
0300
0300
0300
ENDCHAR
STARTCHAR 0167
ENCODING 359
SWIDTH 360 0
DWIDTH 8 0
BBX 6 14 0 0
BITMAP
60
60
FC
FC
60
60
FC
60
60
60
60
60
7C
3C
ENDCHAR
STARTCHAR 0168
ENCODING 360
SWIDTH 675 0
DWIDTH 15 0
BBX 11 20 2 0
BITMAP
1C80
3F80
2700
0000
C060
C060
C060
C060
C060
C060
C060
C060
C060
C060
C060
C060
C060
60C0
7FC0
1F00
ENDCHAR
STARTCHAR 0169
ENCODING 361
SWIDTH 630 0
DWIDTH 14 0
BBX 11 17 1 0
BITMAP
1C80
3F80
2700
0000
0000
C060
C060
C060
C060
C060
C060
C060
C060
C0E0
E3E0
7F60
1C60
ENDCHAR
STARTCHAR 016A
ENCODING 362
SWIDTH 675 0
DWIDTH 15 0
BBX 11 19 2 0
BITMAP
3F80
3F80
0000
C060
C060
C060
C060
C060
C060
C060
C060
C060
C060
C060
C060
C060
60C0
7FC0
1F00
ENDCHAR
STARTCHAR 016B
ENCODING 363
SWIDTH 630 0
DWIDTH 14 0
BBX 11 16 1 0
BITMAP
3F80
3F80
0000
0000
C060
C060
C060
C060
C060
C060
C060
C060
C0E0
E3E0
7F60
1C60
ENDCHAR
STARTCHAR 016C
ENCODING 364
SWIDTH 675 0
DWIDTH 15 0
BBX 11 21 2 0
BITMAP
2080
3180
1F00
0E00
0000
C060
C060
C060
C060
C060
C060
C060
C060
C060
C060
C060
C060
C060
60C0
7FC0
1F00
ENDCHAR
STARTCHAR 016D
ENCODING 365
SWIDTH 630 0
DWIDTH 14 0
BBX 11 18 1 0
BITMAP
2080
3180
1F00
0E00
0000
0000
C060
C060
C060
C060
C060
C060
C060
C060
C0E0
E3E0
7F60
1C60
ENDCHAR
STARTCHAR 016E
ENCODING 366
SWIDTH 675 0
DWIDTH 15 0
BBX 11 22 2 0
BITMAP
0E00
1100
1100
1100
0E00
0000
C060
C060
C060
C060
C060
C060
C060
C060
C060
C060
C060
C060
C060
60C0
7FC0
1F00
ENDCHAR
STARTCHAR 016F
ENCODING 367
SWIDTH 630 0
DWIDTH 14 0
BBX 11 19 1 0
BITMAP
0E00
1100
1100
1100
0E00
0000
0000
C060
C060
C060
C060
C060
C060
C060
C060
C0E0
E3E0
7F60
1C60
ENDCHAR
STARTCHAR 0170
ENCODING 368
SWIDTH 675 0
DWIDTH 15 0
BBX 11 20 2 0
BITMAP
0660
0CC0
1980
0000
C060
C060
C060
C060
C060
C060
C060
C060
C060
C060
C060
C060
C060
60C0
7FC0
1F00
ENDCHAR
STARTCHAR 0171
ENCODING 369
SWIDTH 630 0
DWIDTH 14 0
BBX 11 17 1 0
BITMAP
0660
0CC0
1980
0000
0000
C060
C060
C060
C060
C060
C060
C060
C060
C0E0
E3E0
7F60
1C60
ENDCHAR
STARTCHAR 0172
ENCODING 370
SWIDTH 675 0
DWIDTH 15 0
BBX 11 20 2 -4
BITMAP
C060
C060
C060
C060
C060
C060
C060
C060
C060
C060
C060
C060
C060
60C0
7FC0
1F00
0200
0400
0400
0380
ENDCHAR
STARTCHAR 0173
ENCODING 371
SWIDTH 630 0
DWIDTH 14 0
BBX 11 16 1 -4
BITMAP
C060
C060
C060
C060
C060
C060
C060
C060
C0E0
E3E0
7F60
1C60
00C0
0180
0180
00E0
ENDCHAR
STARTCHAR 0174
ENCODING 372
SWIDTH 855 0
DWIDTH 19 0
BBX 19 20 0 0
BITMAP
00E000
01B000
031800
000000
C0E060
C0E060
60E0C0
60E0C0
61B0C0
71B180
31B180
31B180
331980
1B1B00
1B1B00
1B1B00
1B1F00
0E0E00
0E0E00
0E0E00
ENDCHAR
STARTCHAR 0175
ENCODING 373
SWIDTH 765 0
DWIDTH 17 0
BBX 17 17 0 0
BITMAP
01C000
036000
063000
000000
000000
C1C180
C1C180
61C300
636300
636300
636300
363600
363600
363600
3C1C00
1C1C00
1C1C00
ENDCHAR
STARTCHAR 0176
ENCODING 374
SWIDTH 630 0
DWIDTH 14 0
BBX 12 19 1 1
BITMAP
0700
0D80
18C0
0000
C030
6060
6060
30C0
30C0
1980
1900
0F00
0E00
0600
0600
0600
0600
0600
0600
ENDCHAR
STARTCHAR 0177
ENCODING 375
SWIDTH 540 0
DWIDTH 12 0
BBX 11 21 0 -4
BITMAP
0E00
1B00
3180
0000
0000
C060
C060
60C0
60C0
60C0
3180
3180
1B00
1B00
1A00
0E00
0E00
0C00
0C00
1800
1800
ENDCHAR
STARTCHAR 0178
ENCODING 376
SWIDTH 630 0
DWIDTH 14 0
BBX 12 18 1 1
BITMAP
1980
1980
0000
C030
6060
6060
30C0
30C0
1980
1900
0F00
0E00
0600
0600
0600
0600
0600
0600
ENDCHAR
STARTCHAR 0179
ENCODING 377
SWIDTH 585 0
DWIDTH 13 0
BBX 11 20 1 0
BITMAP
0300
0600
0C00
0000
7FE0
7FE0
00E0
00C0
0180
0300
0700
0600
0C00
1C00
1800
3000
6000
E000
FFE0
FFE0
ENDCHAR
STARTCHAR 017A
ENCODING 378
SWIDTH 585 0
DWIDTH 13 0
BBX 10 17 1 0
BITMAP
0600
0C00
1800
0000
0000
FFC0
FFC0
0180
0300
0600
0C00
1800
3000
6000
C000
FFC0
FFC0
ENDCHAR
STARTCHAR 017B
ENCODING 379
SWIDTH 585 0
DWIDTH 13 0
BBX 11 19 1 0
BITMAP
0600
0600
0000
7FE0
7FE0
00E0
00C0
0180
0300
0700
0600
0C00
1C00
1800
3000
6000
E000
FFE0
FFE0
ENDCHAR
STARTCHAR 017C
ENCODING 380
SWIDTH 585 0
DWIDTH 13 0
BBX 10 16 1 0
BITMAP
0C00
0C00
0000
0000
FFC0
FFC0
0180
0300
0600
0C00
1800
3000
6000
C000
FFC0
FFC0
ENDCHAR
STARTCHAR 017D
ENCODING 381
SWIDTH 585 0
DWIDTH 13 0
BBX 11 20 1 0
BITMAP
3180
1B00
0E00
0000
7FE0
7FE0
00E0
00C0
0180
0300
0700
0600
0C00
1C00
1800
3000
6000
E000
FFE0
FFE0
ENDCHAR
STARTCHAR 017E
ENCODING 382
SWIDTH 585 0
DWIDTH 13 0
BBX 10 17 1 0
BITMAP
3180
1B00
0E00
0000
0000
FFC0
FFC0
0180
0300
0600
0C00
1800
3000
6000
C000
FFC0
FFC0
ENDCHAR
STARTCHAR 017F
ENCODING 383
SWIDTH 315 0
DWIDTH 7 0
BBX 9 17 0 0
BITMAP
0F80
1F80
3000
3000
3000
F000
F000
3000
3000
3000
3000
3000
3000
3000
3000
3000
3000
ENDCHAR
STARTCHAR 0192
ENCODING 402
SWIDTH 630 0
DWIDTH 14 0
BBX 10 19 3 -3
BITMAP
03C0
07C0
0C00
1800
1800
1800
1800
FE00
FE00
3000
3000
3000
6000
6000
6000
6000
6000
C000
C000
ENDCHAR
STARTCHAR 01FA
ENCODING 506
SWIDTH 675 0
DWIDTH 15 0
BBX 15 25 0 0
BITMAP
00C0
0180
0300
0000
0380
0440
0440
0440
0380
0380
0380
0380
06C0
06C0
0C60
0C60
0C70
1830
1830
3FF8
3FF8
701C
600C
600C
C006
ENDCHAR
STARTCHAR 01FB
ENCODING 507
SWIDTH 540 0
DWIDTH 12 0
BBX 11 22 1 0
BITMAP
0600
0C00
1800
0000
0E00
1100
1100
1100
0E00
0000
3F00
7F80
4180
0180
0180
1F80
7F80
E180
C180
C380
7FE0
3CE0
ENDCHAR
STARTCHAR 01FC
ENCODING 508
SWIDTH 900 0
DWIDTH 20 0
BBX 20 19 0 1
BITMAP
000600
000C00
001800
000000
007FE0
007FE0
00F000
01B000
01B000
033000
063FC0
063FC0
0C3000
1FF000
1FF000
303000
603000
603FF0
C03FF0
ENDCHAR
STARTCHAR 01FD
ENCODING 509
SWIDTH 855 0
DWIDTH 19 0
BBX 16 17 1 0
BITMAP
0060
00C0
0180
0000
0000
3E3C
7F7E
41C6
0183
0183
1FFF
7FFF
E180
C180
C3C1
7E7F
3C3E
ENDCHAR
STARTCHAR 01FE
ENCODING 510
SWIDTH 765 0
DWIDTH 17 0
BBX 15 20 1 0
BITMAP
00C0
0180
0300
0000
07C6
1FFC
3838
703C
606C
C066
C0C6
C186
C306
C606
CC06
6C0C
781C
3838
7FF0
C7C0
ENDCHAR
STARTCHAR 01FF
ENCODING 511
SWIDTH 630 0
DWIDTH 14 0
BBX 11 17 1 0
BITMAP
0300
0600
0C00
0000
0000
1F60
3FC0
61C0
C360
C360
C660
CC60
D860
D860
70C0
7F80
DF00
ENDCHAR
STARTCHAR 0218
ENCODING 536
SWIDTH 540 0
DWIDTH 12 0
BBX 10 23 1 -7
BITMAP
3F00
7F80
E080
C000
C000
E000
7800
3E00
0F00
0380
01C0
00C0
00C0
C1C0
FF80
7E00
0000
0000
0C00
0C00
0400
0400
0800
ENDCHAR
STARTCHAR 0219
ENCODING 537
SWIDTH 495 0
DWIDTH 11 0
BBX 8 19 1 -7
BITMAP
3C
7E
C2
C0
E0
7C
1E
07
03
83
FE
7C
00
00
18
18
08
08
10
ENDCHAR
STARTCHAR 021A
ENCODING 538
SWIDTH 630 0
DWIDTH 14 0
BBX 14 23 0 -7
BITMAP
FFFC
FFFC
0300
0300
0300
0300
0300
0300
0300
0300
0300
0300
0300
0300
0300
0300
0000
0000
0300
0300
0100
0100
0200
ENDCHAR
STARTCHAR 021B
ENCODING 539
SWIDTH 360 0
DWIDTH 8 0
BBX 6 21 0 -7
BITMAP
60
60
FC
FC
60
60
60
60
60
60
60
60
7C
3C
00
00
18
18
08
08
10
ENDCHAR
STARTCHAR 0250
ENCODING 592
SWIDTH 540 0
DWIDTH 12 0
BBX 11 12 -1 0
BITMAP
E7C0
FFE0
3860
3060
30E0
3FC0
3F00
3000
3000
3040
3FC0
1F80
ENDCHAR
STARTCHAR 0251
ENCODING 593
SWIDTH 630 0
DWIDTH 14 0
BBX 11 12 1 0
BITMAP
0FE0
1FE0
3060
6060
C060
C060
C060
C0E0
C1E0
E360
7E60
3C00
ENDCHAR
STARTCHAR 0252
ENCODING 594
SWIDTH 630 0
DWIDTH 14 0
BBX 11 12 1 0
BITMAP
C780
CFC0
D8E0
F060
E060
C060
C060
C060
C0C0
C180
FF00
1E00
ENDCHAR
STARTCHAR 0253
ENCODING 595
SWIDTH 630 0
DWIDTH 14 0
BBX 11 17 1 0
BITMAP
1F00
3F80
7080
E000
C000
CF00
DFC0
F0C0
C060
C060
C060
C060
C060
C060
E0C0
FFC0
CF00
ENDCHAR
STARTCHAR 0254
ENCODING 596
SWIDTH 495 0
DWIDTH 11 0
BBX 8 12 1 0
BITMAP
78
FE
8E
07
03
03
03
03
07
8E
FE
78
ENDCHAR
STARTCHAR 0255
ENCODING 597
SWIDTH 540 0
DWIDTH 12 0
BBX 10 14 1 -2
BITMAP
1E00
7F00
6100
E000
C000
C000
C780
CFC0
78C0
70C0
3F80
6F00
6000
6000
ENDCHAR
STARTCHAR 0256
ENCODING 598
SWIDTH 630 0
DWIDTH 14 0
BBX 14 21 1 -4
BITMAP
0060
0060
0060
0060
0060
1E60
7FE0
61E0
C060
C060
C060
C060
C060
C060
61E0
7F60
1E60
0060
0060
007C
003C
ENDCHAR
STARTCHAR 0257
ENCODING 599
SWIDTH 630 0
DWIDTH 14 0
BBX 14 17 1 0
BITMAP
003C
007C
0060
0060
0060
1E60
7FE0
61E0
E060
C060
C060
C060
C060
C060
61E0
7F60
1E00
ENDCHAR
STARTCHAR 0258
ENCODING 600
SWIDTH 540 0
DWIDTH 12 0
BBX 9 12 1 0
BITMAP
3C00
7F00
6300
C180
C180
FF80
FF80
0180
0380
8700
FE00
7C00
ENDCHAR
STARTCHAR 0259
ENCODING 601
SWIDTH 540 0
DWIDTH 12 0
BBX 9 12 1 0
BITMAP
7C00
FE00
8700
0380
0180
FF80
FF80
C180
C180
6300
7F00
3C00
ENDCHAR
STARTCHAR 025A
ENCODING 602
SWIDTH 765 0
DWIDTH 17 0
BBX 15 12 2 0
BITMAP
7C00
FE00
8708
0378
03F8
1F98
FD98
E19E
C18E
6300
7F00
3C00
ENDCHAR
STARTCHAR 025B
ENCODING 603
SWIDTH 450 0
DWIDTH 10 0
BBX 7 12 1 0
BITMAP
3C
7E
62
60
30
1C
7C
E0
C0
C2
7E
3C
ENDCHAR
STARTCHAR 025C
ENCODING 604
SWIDTH 450 0
DWIDTH 10 0
BBX 7 12 1 0
BITMAP
78
FC
8C
0C
18
70
7C
0E
06
86
FC
78
ENDCHAR
STARTCHAR 025D
ENCODING 605
SWIDTH 675 0
DWIDTH 15 0
BBX 14 12 1 0
BITMAP
7C30
FFF0
83F0
0330
073C
7C1C
7F00
0380
0180
8380
FF00
7E00
ENDCHAR
STARTCHAR 025E
ENCODING 606
SWIDTH 585 0
DWIDTH 13 0
BBX 10 12 1 0
BITMAP
1F00
7F80
61C0
C0C0
C0C0
CF80
CF80
C0C0
C0C0
61C0
7F80
1F00
ENDCHAR
STARTCHAR 025F
ENCODING 607
SWIDTH 405 0
DWIDTH 9 0
BBX 9 16 -1 -4
BITMAP
0C00
0C00
0C00
0C00
0C00
0C00
0C00
0C00
7F80
7F80
0C00
0C00
0C00
8C00
F800
7000
ENDCHAR
STARTCHAR 0260
ENCODING 608
SWIDTH 630 0
DWIDTH 14 0
BBX 14 21 1 -4
BITMAP
003C
007C
0060
0060
0060
1E60
7FE0
61E0
C060
C060
C060
C060
C060
C060
61E0
7F60
1E60
0060
40C0
7FC0
3F00
ENDCHAR
STARTCHAR 0261
ENCODING 609
SWIDTH 630 0
DWIDTH 14 0
BBX 11 16 1 -4
BITMAP
0FE0
1FE0
3060
6060
C060
C060
C060
C0E0
C1E0
E360
7E60
3C60
0060
40C0
7FC0
3F00
ENDCHAR
STARTCHAR 0262
ENCODING 610
SWIDTH 585 0
DWIDTH 13 0
BBX 10 12 1 0
BITMAP
1F80
7FC0
7040
E000
C000
C000
C000
C0C0
E0C0
70C0
7FC0
1F80
ENDCHAR
STARTCHAR 0263
ENCODING 611
SWIDTH 540 0
DWIDTH 12 0
BBX 11 16 0 -4
BITMAP
4060
E060
7060
38C0
18C0
1980
0D80
0F00
0600
0700
0F00
1980
1980
1980
1F80
0F00
ENDCHAR
STARTCHAR 0264
ENCODING 612
SWIDTH 585 0
DWIDTH 13 0
BBX 13 12 0 0
BITMAP
7078
F8F8
1DC0
0D80
0700
0700
0F80
0D80
18C0
18C0
1FC0
0F80
ENDCHAR
STARTCHAR 0265
ENCODING 613
SWIDTH 630 0
DWIDTH 14 0
BBX 11 16 1 -4
BITMAP
C060
C060
C060
C060
C060
C060
C060
C060
C0E0
E3E0
7F60
1C60
0060
0060
0060
0060
ENDCHAR
STARTCHAR 0266
ENCODING 614
SWIDTH 630 0
DWIDTH 14 0
BBX 11 16 1 1
BITMAP
1F80
3FC0
7040
E000
C000
C780
DFC0
F860
E060
C060
C060
C060
C060
C060
C060
C060
ENDCHAR
STARTCHAR 0267
ENCODING 615
SWIDTH 630 0
DWIDTH 14 0
BBX 11 21 1 -4
BITMAP
1F80
3FC0
7040
E000
C000
C780
DFC0
F860
E060
C060
C060
C060
C060
C060
C060
C060
0060
0060
00E0
07C0
0780
ENDCHAR
STARTCHAR 0268
ENCODING 616
SWIDTH 360 0
DWIDTH 8 0
BBX 8 16 0 0
BITMAP
18
18
00
00
18
18
18
18
FF
FF
18
18
18
18
18
18
ENDCHAR
STARTCHAR 0269
ENCODING 617
SWIDTH 360 0
DWIDTH 8 0
BBX 6 12 1 0
BITMAP
C0
C0
C0
C0
C0
C0
C0
C0
C0
E0
7C
3C
ENDCHAR
STARTCHAR 026A
ENCODING 618
SWIDTH 405 0
DWIDTH 9 0
BBX 6 11 1 1
BITMAP
FC
FC
30
30
30
30
30
30
30
FC
FC
ENDCHAR
STARTCHAR 026B
ENCODING 619
SWIDTH 495 0
DWIDTH 11 0
BBX 10 16 0 1
BITMAP
0C00
0C00
0C00
0C00
0C00
0CC0
7CC0
FFC0
CF80
CC00
0C00
0C00
0C00
0C00
0C00
0C00
ENDCHAR
STARTCHAR 026C
ENCODING 620
SWIDTH 495 0
DWIDTH 11 0
BBX 10 16 0 1
BITMAP
0600
0600
0600
0600
7E00
FE00
C600
C600
E640
7FC0
3F80
0600
0600
0600
0600
0600
ENDCHAR
STARTCHAR 026D
ENCODING 621
SWIDTH 315 0
DWIDTH 7 0
BBX 5 21 2 -4
BITMAP
C0
C0
C0
C0
C0
C0
C0
C0
C0
C0
C0
C0
C0
C0
C0
C0
C0
C0
C0
F8
78
ENDCHAR
STARTCHAR 026E
ENCODING 622
SWIDTH 630 0
DWIDTH 14 0
BBX 11 21 1 -4
BITMAP
C000
C000
C000
C000
C000
FFE0
FFE0
C0C0
C180
C300
C600
CF80
CFC0
C0E0
C060
C060
0060
0060
10C0
1FC0
0F00
ENDCHAR
STARTCHAR 026F
ENCODING 623
SWIDTH 945 0
DWIDTH 21 0
BBX 18 12 1 0
BITMAP
C0C0C0
C0C0C0
C0C0C0
C0C0C0
C0C0C0
C0C0C0
C0C0C0
C0C0C0
C1C1C0
C3C3C0
FE7EC0
7C3C00
ENDCHAR
STARTCHAR 0270
ENCODING 624
SWIDTH 945 0
DWIDTH 21 0
BBX 18 16 1 -4
BITMAP
C0C0C0
C0C0C0
C0C0C0
C0C0C0
C0C0C0
C0C0C0
C0C0C0
C0C0C0
C1C1C0
C3C3C0
FE7EC0
7C3CC0
0000C0
0000C0
0000C0
0000C0
ENDCHAR
STARTCHAR 0271
ENCODING 625
SWIDTH 945 0
DWIDTH 21 0
BBX 18 16 1 -4
BITMAP
CF0F80
DF9FC0
F0F0C0
E0E0C0
C0C0C0
C0C0C0
C0C0C0
C0C0C0
C0C0C0
C0C0C0
C0C0C0
C0C0C0
0000C0
0000C0
0007C0
000780
ENDCHAR
STARTCHAR 0272
ENCODING 626
SWIDTH 630 0
DWIDTH 14 0
BBX 13 16 -1 -4
BITMAP
19F0
1BF8
1E18
1C18
1818
1818
1818
1818
1818
1818
1818
1800
1800
1800
F800
F000
ENDCHAR
STARTCHAR 0273
ENCODING 627
SWIDTH 630 0
DWIDTH 14 0
BBX 14 16 1 -4
BITMAP
C780
DFC0
F860
E060
C060
C060
C060
C060
C060
C060
C060
0060
0060
0060
007C
003C
ENDCHAR
STARTCHAR 0274
ENCODING 628
SWIDTH 630 0
DWIDTH 14 0
BBX 11 11 1 1
BITMAP
E060
F060
F060
D860
CC60
CE60
C660
C360
C1E0
C1E0
C0E0
ENDCHAR
STARTCHAR 0275
ENCODING 629
SWIDTH 630 0
DWIDTH 14 0
BBX 11 12 1 0
BITMAP
1F00
7FC0
60C0
C060
C060
FFE0
FFE0
C060
C060
60C0
7FC0
1F00
ENDCHAR
STARTCHAR 0276
ENCODING 630
SWIDTH 810 0
DWIDTH 18 0
BBX 15 12 1 0
BITMAP
1EFE
7FFE
61C0
C0C0
C0FC
C0FC
C0C0
C0C0
C0C0
61FE
7FFE
1E00
ENDCHAR
STARTCHAR 0277
ENCODING 631
SWIDTH 810 0
DWIDTH 18 0
BBX 14 12 2 0
BITMAP
0FC0
3FF0
7038
6018
C30C
C30C
C30C
C30C
C30C
E71C
7FF8
3CF0
ENDCHAR
STARTCHAR 0278
ENCODING 632
SWIDTH 765 0
DWIDTH 17 0
BBX 14 21 1 -4
BITMAP
0300
0300
0300
0300
0300
0300
1FE0
3FF0
7338
E31C
C30C
C30C
C30C
E31C
7338
3FF0
1FE0
0300
0300
0300
0300
ENDCHAR
STARTCHAR 0279
ENCODING 633
SWIDTH 405 0
DWIDTH 9 0
BBX 7 12 0 0
BITMAP
06
06
06
06
06
06
06
06
0E
1E
F6
E0
ENDCHAR
STARTCHAR 027A
ENCODING 634
SWIDTH 405 0
DWIDTH 9 0
BBX 7 17 0 0
BITMAP
06
06
06
06
06
06
06
06
06
06
06
06
06
0E
1E
F6
E0
ENDCHAR
STARTCHAR 027B
ENCODING 635
SWIDTH 405 0
DWIDTH 9 0
BBX 10 16 0 -4
BITMAP
0600
0600
0600
0600
0600
0600
0600
0600
0E00
1E00
F600
E600
0600
0600
03C0
01C0
ENDCHAR
STARTCHAR 027C
ENCODING 636
SWIDTH 405 0
DWIDTH 9 0
BBX 7 16 1 -4
BITMAP
CE
DE
F0
E0
C0
C0
C0
C0
C0
C0
C0
C0
C0
C0
C0
C0
ENDCHAR
STARTCHAR 027D
ENCODING 637
SWIDTH 405 0
DWIDTH 9 0
BBX 7 16 1 -4
BITMAP
CE
DE
F0
E0
C0
C0
C0
C0
C0
C0
C0
C0
C0
C0
F8
78
ENDCHAR
STARTCHAR 027E
ENCODING 638
SWIDTH 405 0
DWIDTH 9 0
BBX 6 11 1 1
BITMAP
38
7C
E4
C0
C0
C0
C0
C0
C0
C0
C0
ENDCHAR
STARTCHAR 027F
ENCODING 639
SWIDTH 405 0
DWIDTH 9 0
BBX 6 11 1 1
BITMAP
70
F8
9C
0C
0C
0C
0C
0C
0C
0C
0C
ENDCHAR
STARTCHAR 0280
ENCODING 640
SWIDTH 540 0
DWIDTH 12 0
BBX 10 11 1 1
BITMAP
FF00
FF80
C180
C180
C300
FE00
FC00
C600
C300
C180
C0C0
ENDCHAR
STARTCHAR 0281
ENCODING 641
SWIDTH 540 0
DWIDTH 12 0
BBX 10 11 1 1
BITMAP
C0C0
C180
C300
C600
FC00
FE00
C300
C180
C180
FF80
FF00
ENDCHAR
STARTCHAR 0282
ENCODING 642
SWIDTH 495 0
DWIDTH 11 0
BBX 8 16 1 -4
BITMAP
3C
7E
C2
C0
E0
7C
1E
07
03
87
FE
FC
C0
C0
78
38
ENDCHAR
STARTCHAR 0283
ENCODING 643
SWIDTH 405 0
DWIDTH 9 0
BBX 10 21 -1 -4
BITMAP
0380
07C0
0E40
0C00
0C00
0C00
0C00
0C00
0C00
0C00
0C00
0C00
0C00
0C00
0C00
0C00
0C00
0C00
9C00
F800
7000
ENDCHAR
STARTCHAR 0284
ENCODING 644
SWIDTH 450 0
DWIDTH 10 0
BBX 9 21 0 -4
BITMAP
0780
0F80
0C00
0C00
0C00
0C00
0C00
0C00
0C00
0C00
0C00
0C00
0C00
7F80
7F80
0C00
0C00
0C00
8C00
F800
7000
ENDCHAR
STARTCHAR 0285
ENCODING 645
SWIDTH 495 0
DWIDTH 11 0
BBX 10 16 1 -4
BITMAP
7000
F800
9C00
0C00
0C00
0C00
0C00
0C00
0C00
0C00
0C00
0C00
0C00
0E40
07C0
0380
ENDCHAR
STARTCHAR 0286
ENCODING 646
SWIDTH 540 0
DWIDTH 12 0
BBX 12 21 0 -4
BITMAP
01E0
03F0
0710
0600
0600
0600
0600
0600
0600
0600
0600
0600
0600
0600
3FC0
7FE0
E660
C600
C600
FC00
7800
ENDCHAR
STARTCHAR 0287
ENCODING 647
SWIDTH 360 0
DWIDTH 8 0
BBX 6 13 1 -1
BITMAP
F0
F8
18
18
18
18
18
18
18
FC
FC
18
18
ENDCHAR
STARTCHAR 0288
ENCODING 648
SWIDTH 360 0
DWIDTH 8 0
BBX 6 18 0 -4
BITMAP
60
60
FC
FC
60
60
60
60
60
60
60
60
60
60
60
60
7C
3C
ENDCHAR
STARTCHAR 0289
ENCODING 649
SWIDTH 675 0
DWIDTH 15 0
BBX 14 12 0 0
BITMAP
3030
3030
3030
3030
FFFC
FFFC
3030
3030
3070
30F0
3FB0
0F00
ENDCHAR
STARTCHAR 028A
ENCODING 650
SWIDTH 675 0
DWIDTH 15 0
BBX 12 12 1 0
BITMAP
F0F0
F0F0
30C0
6060
C030
C030
C030
C030
E070
70E0
3FC0
1F80
ENDCHAR
STARTCHAR 028B
ENCODING 651
SWIDTH 585 0
DWIDTH 13 0
BBX 11 11 0 1
BITMAP
C060
C060
6060
6060
6060
3060
30C0
30C0
1980
1F00
1C00
ENDCHAR
STARTCHAR 028C
ENCODING 652
SWIDTH 495 0
DWIDTH 11 0
BBX 11 11 0 1
BITMAP
0E00
0E00
1F00
1B00
1B00
3180
3180
61C0
60C0
60C0
C060
ENDCHAR
STARTCHAR 028D
ENCODING 653
SWIDTH 765 0
DWIDTH 17 0
BBX 17 11 0 1
BITMAP
1C1C00
1C1C00
3C1C00
363600
363600
322600
636300
636300
61C300
C1C180
C1C180
ENDCHAR
STARTCHAR 028E
ENCODING 654
SWIDTH 540 0
DWIDTH 12 0
BBX 11 15 0 1
BITMAP
0300
0300
0600
0600
0E00
0E00
1B00
1B00
1180
3180
3180
60C0
60C0
C060
C060
ENDCHAR
STARTCHAR 028F
ENCODING 655
SWIDTH 495 0
DWIDTH 11 0
BBX 10 11 0 1
BITMAP
C0C0
6180
7380
3300
1E00
1E00
0C00
0C00
0C00
0C00
0C00
ENDCHAR
STARTCHAR 0290
ENCODING 656
SWIDTH 585 0
DWIDTH 13 0
BBX 12 16 1 -4
BITMAP
FFC0
FFC0
0180
0300
0600
0C00
1800
3000
6000
FF80
FF80
0180
0180
0180
00F0
00F0
ENDCHAR
STARTCHAR 0291
ENCODING 657
SWIDTH 675 0
DWIDTH 15 0
BBX 14 15 1 -3
BITMAP
FFC0
FFC0
0180
0700
0E00
1C78
38FC
718C
E30C
FFF8
FFF0
0600
0C00
0C00
0C00
ENDCHAR
STARTCHAR 0292
ENCODING 658
SWIDTH 495 0
DWIDTH 11 0
BBX 8 16 1 -4
BITMAP
FF
FF
06
0C
18
30
78
7E
0E
07
03
03
03
86
FE
78
ENDCHAR
STARTCHAR 0293
ENCODING 659
SWIDTH 540 0
DWIDTH 12 0
BBX 9 18 1 -6
BITMAP
7F80
7F80
0300
0600
0C00
1800
3E00
3F00
0380
0180
0180
7980
FD80
C700
FE00
7B00
0300
0300
ENDCHAR
STARTCHAR 0294
ENCODING 660
SWIDTH 450 0
DWIDTH 10 0
BBX 8 16 1 1
BITMAP
78
FE
87
03
03
03
03
06
3E
38
30
30
30
30
30
30
ENDCHAR
STARTCHAR 0295
ENCODING 661
SWIDTH 450 0
DWIDTH 10 0
BBX 8 16 1 1
BITMAP
1E
7F
E1
C0
C0
C0
C0
60
7C
1C
0C
0C
0C
0C
0C
0C
ENDCHAR
STARTCHAR 0296
ENCODING 662
SWIDTH 450 0
DWIDTH 10 0
BBX 8 17 1 0
BITMAP
30
30
30
30
30
30
30
38
3E
06
03
03
03
03
07
FE
F8
ENDCHAR
STARTCHAR 0297
ENCODING 663
SWIDTH 495 0
DWIDTH 11 0
BBX 9 16 1 -4
BITMAP
0F00
3F80
7080
6000
E000
C000
C000
C000
C000
C000
C000
E000
6000
7080
3F80
0F00
ENDCHAR
STARTCHAR 0298
ENCODING 664
SWIDTH 675 0
DWIDTH 15 0
BBX 12 12 1 0
BITMAP
0F00
3FC0
70E0
6060
C030
C630
C630
C030
6060
70E0
3FC0
0F00
ENDCHAR
STARTCHAR 0299
ENCODING 665
SWIDTH 540 0
DWIDTH 12 0
BBX 9 11 1 1
BITMAP
FF00
FF80
C180
C180
FF00
FF00
C380
C180
C180
FF00
FE00
ENDCHAR
STARTCHAR 029A
ENCODING 666
SWIDTH 585 0
DWIDTH 13 0
BBX 10 12 1 0
BITMAP
3E00
7F80
E180
C0C0
C0C0
7CC0
7CC0
C0C0
C0C0
E180
7F80
3E00
ENDCHAR
STARTCHAR 029B
ENCODING 667
SWIDTH 630 0
DWIDTH 14 0
BBX 13 17 1 0
BITMAP
0078
00F8
00C0
00C0
00C0
1FC0
7FC0
7040
E000
C000
C000
C000
C0C0
E0C0
70C0
7FC0
1F80
ENDCHAR
STARTCHAR 029C
ENCODING 668
SWIDTH 630 0
DWIDTH 14 0
BBX 11 11 1 1
BITMAP
C060
C060
C060
C060
FFE0
FFE0
C060
C060
C060
C060
C060
ENDCHAR
STARTCHAR 029D
ENCODING 669
SWIDTH 495 0
DWIDTH 11 0
BBX 10 20 0 -4
BITMAP
0600
0600
0000
0000
0600
0600
0600
0600
0600
0600
0600
0600
0600
3F80
7FC0
E640
C600
C600
FC00
7800
ENDCHAR
STARTCHAR 029E
ENCODING 670
SWIDTH 585 0
DWIDTH 13 0
BBX 11 16 0 -4
BITMAP
E060
3060
1860
0C60
0760
03E0
0360
0660
0C60
3860
6060
0060
0060
0060
0060
0060
ENDCHAR
STARTCHAR 029F
ENCODING 671
SWIDTH 450 0
DWIDTH 10 0
BBX 8 11 1 1
BITMAP
C0
C0
C0
C0
C0
C0
C0
C0
C0
FF
FF
ENDCHAR
STARTCHAR 02A0
ENCODING 672
SWIDTH 630 0
DWIDTH 14 0
BBX 14 21 1 -4
BITMAP
003C
007C
0060
0060
0060
1E60
7FE0
61E0
C060
C060
C060
C060
C060
C060
61E0
7F60
1E60
0060
0060
0060
0060
ENDCHAR
STARTCHAR 02A1
ENCODING 673
SWIDTH 450 0
DWIDTH 10 0
BBX 8 16 1 1
BITMAP
78
FE
87
03
03
03
03
06
3E
38
30
30
FE
FE
30
30
ENDCHAR
STARTCHAR 02A2
ENCODING 674
SWIDTH 450 0
DWIDTH 10 0
BBX 8 16 1 1
BITMAP
1E
7F
E1
C0
C0
C0
C0
60
7C
1C
0C
0C
7F
7F
0C
0C
ENDCHAR
STARTCHAR 02A3
ENCODING 675
SWIDTH 1035 0
DWIDTH 23 0
BBX 20 17 1 0
BITMAP
006000
006000
006000
006000
006000
1E7FF0
7FFFF0
61E030
C06060
C060C0
C06080
C06180
C06300
C06600
61E7F0
7F67F0
1E0000
ENDCHAR
STARTCHAR 02A4
ENCODING 676
SWIDTH 990 0
DWIDTH 22 0
BBX 19 21 1 -4
BITMAP
00C000
00C000
00C000
00C000
00C000
1EFFE0
3FFFE0
61C0C0
C0C180
C0C300
C0C600
C0CF80
C0CFC0
C0C0E0
63C060
7EC060
3C0060
000060
0010C0
001FC0
000F00
ENDCHAR
STARTCHAR 02A5
ENCODING 677
SWIDTH 1215 0
DWIDTH 27 0
BBX 26 19 1 -2
BITMAP
00600000
00600000
00600000
00600000
00600000
1E7FF800
7FFFF800
61E01000
C0602000
C0604000
C0608780
C0610FC0
C06218C0
C06431C0
61EFFF80
7F6FFF00
1E006000
0000C000
0000C000
ENDCHAR
STARTCHAR 02A6
ENCODING 678
SWIDTH 810 0
DWIDTH 18 0
BBX 16 14 0 0
BITMAP
6000
6000
FFFC
FFFE
60C2
60C0
60E0
607C
601E
6007
6003
7087
3EFE
1E7C
ENDCHAR
STARTCHAR 02A7
ENCODING 679
SWIDTH 720 0
DWIDTH 16 0
BBX 17 21 0 -4
BITMAP
000F00
001F80
003880
603000
603000
FFF000
FFF000
603000
603000
603000
603000
603000
603000
603000
703000
3E3000
1E3000
003000
027000
03E000
01C000
ENDCHAR
STARTCHAR 02A8
ENCODING 680
SWIDTH 855 0
DWIDTH 19 0
BBX 18 16 0 -2
BITMAP
600000
600000
FFFE00
FFFF00
606100
60E000
60C000
60C000
60C780
60CFC0
60F8C0
7070C0
3E3F80
1E6F00
006000
006000
ENDCHAR
STARTCHAR 02B0
ENCODING 688
SWIDTH 360 0
DWIDTH 8 0
BBX 6 10 1 10
BITMAP
C0
C0
C0
D8
EC
CC
CC
CC
CC
CC
ENDCHAR
STARTCHAR 02B1
ENCODING 689
SWIDTH 360 0
DWIDTH 8 0
BBX 6 10 1 10
BITMAP
78
C0
C0
D8
EC
CC
CC
CC
CC
CC
ENDCHAR
STARTCHAR 02B2
ENCODING 690
SWIDTH 225 0
DWIDTH 5 0
BBX 4 13 0 7
BITMAP
30
00
00
30
30
30
30
30
30
30
30
30
E0
ENDCHAR
STARTCHAR 02B3
ENCODING 691
SWIDTH 270 0
DWIDTH 6 0
BBX 5 7 1 10
BITMAP
D8
E0
C0
C0
C0
C0
C0
ENDCHAR
STARTCHAR 02B4
ENCODING 692
SWIDTH 270 0
DWIDTH 6 0
BBX 5 7 0 10
BITMAP
18
18
18
18
18
38
D8
ENDCHAR
STARTCHAR 02B5
ENCODING 693
SWIDTH 315 0
DWIDTH 7 0
BBX 7 10 0 7
BITMAP
18
18
18
18
18
38
D8
18
18
0E
ENDCHAR
STARTCHAR 02B6
ENCODING 694
SWIDTH 360 0
DWIDTH 8 0
BBX 7 7 1 10
BITMAP
C6
CC
D8
F8
CC
CC
F8
ENDCHAR
STARTCHAR 02B7
ENCODING 695
SWIDTH 495 0
DWIDTH 11 0
BBX 9 7 1 10
BITMAP
CC80
CC80
7680
7680
7700
7300
6300
ENDCHAR
STARTCHAR 02B8
ENCODING 696
SWIDTH 315 0
DWIDTH 7 0
BBX 7 10 0 7
BITMAP
C2
64
64
68
38
38
30
10
20
20
ENDCHAR
STARTCHAR 02B9
ENCODING 697
SWIDTH 270 0
DWIDTH 6 0
BBX 5 6 1 11
BITMAP
18
30
20
60
40
80
ENDCHAR
STARTCHAR 02BA
ENCODING 698
SWIDTH 495 0
DWIDTH 11 0
BBX 10 6 1 11
BITMAP
18C0
3180
2100
6300
4200
8400
ENDCHAR
STARTCHAR 02BB
ENCODING 699
SWIDTH 315 0
DWIDTH 7 0
BBX 3 6 2 11
BITMAP
20
40
80
E0
E0
E0
ENDCHAR
STARTCHAR 02BC
ENCODING 700
SWIDTH 315 0
DWIDTH 7 0
BBX 3 6 2 11
BITMAP
E0
E0
E0
20
40
80
ENDCHAR
STARTCHAR 02BD
ENCODING 701
SWIDTH 315 0
DWIDTH 7 0
BBX 3 6 2 11
BITMAP
E0
E0
E0
80
40
20
ENDCHAR
STARTCHAR 02BE
ENCODING 702
SWIDTH 315 0
DWIDTH 7 0
BBX 4 6 2 11
BITMAP
E0
30
10
10
30
E0
ENDCHAR
STARTCHAR 02BF
ENCODING 703
SWIDTH 315 0
DWIDTH 7 0
BBX 4 6 1 11
BITMAP
70
C0
80
80
C0
70
ENDCHAR
STARTCHAR 02C0
ENCODING 704
SWIDTH 315 0
DWIDTH 7 0
BBX 5 7 1 10
BITMAP
F0
18
18
18
30
60
60
ENDCHAR
STARTCHAR 02C1
ENCODING 705
SWIDTH 315 0
DWIDTH 7 0
BBX 5 7 1 10
BITMAP
78
C0
C0
C0
60
30
30
ENDCHAR
STARTCHAR 02C2
ENCODING 706
SWIDTH 405 0
DWIDTH 9 0
BBX 7 7 0 10
BITMAP
02
0C
30
C0
30
0C
02
ENDCHAR
STARTCHAR 02C3
ENCODING 707
SWIDTH 405 0
DWIDTH 9 0
BBX 7 7 2 10
BITMAP
80
60
18
06
18
60
80
ENDCHAR
STARTCHAR 02C4
ENCODING 708
SWIDTH 405 0
DWIDTH 9 0
BBX 7 7 1 10
BITMAP
10
10
28
28
44
44
82
ENDCHAR
STARTCHAR 02C5
ENCODING 709
SWIDTH 405 0
DWIDTH 9 0
BBX 7 7 1 10
BITMAP
82
44
44
28
28
10
10
ENDCHAR
STARTCHAR 02C6
ENCODING 710
SWIDTH 630 0
DWIDTH 14 0
BBX 7 3 3 14
BITMAP
38
6C
C6
ENDCHAR
STARTCHAR 02C7
ENCODING 711
SWIDTH 630 0
DWIDTH 14 0
BBX 7 3 3 14
BITMAP
C6
6C
38
ENDCHAR
STARTCHAR 02C8
ENCODING 712
SWIDTH 225 0
DWIDTH 5 0
BBX 1 6 2 11
BITMAP
80
80
80
80
80
80
ENDCHAR
STARTCHAR 02C9
ENCODING 713
SWIDTH 630 0
DWIDTH 14 0
BBX 7 2 3 14
BITMAP
FE
FE
ENDCHAR
STARTCHAR 02CA
ENCODING 714
SWIDTH 630 0
DWIDTH 14 0
BBX 4 3 4 14
BITMAP
30
60
C0
ENDCHAR
STARTCHAR 02CB
ENCODING 715
SWIDTH 630 0
DWIDTH 14 0
BBX 4 3 5 14
BITMAP
C0
60
30
ENDCHAR
STARTCHAR 02CC
ENCODING 716
SWIDTH 225 0
DWIDTH 5 0
BBX 1 6 2 -5
BITMAP
80
80
80
80
80
80
ENDCHAR
STARTCHAR 02CD
ENCODING 717
SWIDTH 630 0
DWIDTH 14 0
BBX 7 2 3 -4
BITMAP
FE
FE
ENDCHAR
STARTCHAR 02CE
ENCODING 718
SWIDTH 630 0
DWIDTH 14 0
BBX 4 3 5 -5
BITMAP
C0
60
30
ENDCHAR
STARTCHAR 02CF
ENCODING 719
SWIDTH 630 0
DWIDTH 14 0
BBX 4 3 4 -5
BITMAP
30
60
C0
ENDCHAR
STARTCHAR 02D0
ENCODING 720
SWIDTH 405 0
DWIDTH 9 0
BBX 5 12 2 0
BITMAP
F8
70
70
20
20
00
00
20
20
70
70
F8
ENDCHAR
STARTCHAR 02D1
ENCODING 721
SWIDTH 405 0
DWIDTH 9 0
BBX 5 5 2 7
BITMAP
F8
70
70
20
20
ENDCHAR
STARTCHAR 02D2
ENCODING 722
SWIDTH 270 0
DWIDTH 6 0
BBX 4 6 1 4
BITMAP
E0
30
10
10
30
E0
ENDCHAR
STARTCHAR 02D3
ENCODING 723
SWIDTH 270 0
DWIDTH 6 0
BBX 4 6 1 4
BITMAP
70
C0
80
80
C0
70
ENDCHAR
STARTCHAR 02D4
ENCODING 724
SWIDTH 450 0
DWIDTH 10 0
BBX 7 5 1 5
BITMAP
10
10
10
10
FE
ENDCHAR
STARTCHAR 02D5
ENCODING 725
SWIDTH 450 0
DWIDTH 10 0
BBX 7 5 1 5
BITMAP
FE
10
10
10
10
ENDCHAR
STARTCHAR 02D6
ENCODING 726
SWIDTH 450 0
DWIDTH 10 0
BBX 7 7 1 3
BITMAP
10
10
10
FE
10
10
10
ENDCHAR
STARTCHAR 02D7
ENCODING 727
SWIDTH 450 0
DWIDTH 10 0
BBX 7 3 1 5
BITMAP
82
FE
82
ENDCHAR
STARTCHAR 02D8
ENCODING 728
SWIDTH 630 0
DWIDTH 14 0
BBX 7 4 3 14
BITMAP
82
C6
7C
38
ENDCHAR
STARTCHAR 02D9
ENCODING 729
SWIDTH 630 0
DWIDTH 14 0
BBX 2 2 6 14
BITMAP
C0
C0
ENDCHAR
STARTCHAR 02DA
ENCODING 730
SWIDTH 630 0
DWIDTH 14 0
BBX 5 5 4 14
BITMAP
70
88
88
88
70
ENDCHAR
STARTCHAR 02DB
ENCODING 731
SWIDTH 630 0
DWIDTH 14 0
BBX 4 4 5 -4
BITMAP
60
C0
C0
70
ENDCHAR
STARTCHAR 02DC
ENCODING 732
SWIDTH 630 0
DWIDTH 14 0
BBX 7 3 3 14
BITMAP
72
FE
9C
ENDCHAR
STARTCHAR 02DD
ENCODING 733
SWIDTH 630 0
DWIDTH 14 0
BBX 8 3 3 14
BITMAP
33
66
CC
ENDCHAR
STARTCHAR 02DE
ENCODING 734
SWIDTH 225 0
DWIDTH 5 0
BBX 7 6 -2 2
BITMAP
38
D8
18
18
18
0E
ENDCHAR
STARTCHAR 02E0
ENCODING 736
SWIDTH 360 0
DWIDTH 8 0
BBX 8 11 0 6
BITMAP
81
41
22
12
14
08
18
24
24
24
18
ENDCHAR
STARTCHAR 02E1
ENCODING 737
SWIDTH 180 0
DWIDTH 4 0
BBX 1 10 1 10
BITMAP
80
80
80
80
80
80
80
80
80
80
ENDCHAR
STARTCHAR 02E2
ENCODING 738
SWIDTH 360 0
DWIDTH 8 0
BBX 6 7 1 10
BITMAP
7C
C0
E0
78
1C
0C
F8
ENDCHAR
STARTCHAR 02E3
ENCODING 739
SWIDTH 405 0
DWIDTH 9 0
BBX 7 7 1 10
BITMAP
C2
64
38
38
38
4C
86
ENDCHAR
STARTCHAR 02E4
ENCODING 740
SWIDTH 315 0
DWIDTH 7 0
BBX 5 10 1 10
BITMAP
78
C0
C0
C0
60
30
30
30
30
30
ENDCHAR
STARTCHAR 02E5
ENCODING 741
SWIDTH 450 0
DWIDTH 10 0
BBX 8 16 0 0
BITMAP
FF
01
01
01
01
01
01
01
01
01
01
01
01
01
01
01
ENDCHAR
STARTCHAR 02E6
ENCODING 742
SWIDTH 450 0
DWIDTH 10 0
BBX 8 16 0 0
BITMAP
01
01
01
01
FF
01
01
01
01
01
01
01
01
01
01
01
ENDCHAR
STARTCHAR 02E7
ENCODING 743
SWIDTH 450 0
DWIDTH 10 0
BBX 8 16 0 0
BITMAP
01
01
01
01
01
01
01
FF
01
01
01
01
01
01
01
01
ENDCHAR
STARTCHAR 02E8
ENCODING 744
SWIDTH 450 0
DWIDTH 10 0
BBX 8 16 0 0
BITMAP
01
01
01
01
01
01
01
01
01
01
01
FF
01
01
01
01
ENDCHAR
STARTCHAR 02E9
ENCODING 745
SWIDTH 450 0
DWIDTH 10 0
BBX 8 16 0 0
BITMAP
01
01
01
01
01
01
01
01
01
01
01
01
01
01
01
FF
ENDCHAR
STARTCHAR 0300
ENCODING 768
SWIDTH 0 0
DWIDTH 0 0
BBX 4 3 -9 14
BITMAP
C0
60
30
ENDCHAR
STARTCHAR 0301
ENCODING 769
SWIDTH 0 0
DWIDTH 0 0
BBX 4 3 -8 14
BITMAP
30
60
C0
ENDCHAR
STARTCHAR 0302
ENCODING 770
SWIDTH 0 0
DWIDTH 0 0
BBX 7 3 -10 14
BITMAP
38
6C
C6
ENDCHAR
STARTCHAR 0303
ENCODING 771
SWIDTH 0 0
DWIDTH 0 0
BBX 7 3 -10 14
BITMAP
72
FE
9C
ENDCHAR
STARTCHAR 0304
ENCODING 772
SWIDTH 0 0
DWIDTH 0 0
BBX 7 2 -10 14
BITMAP
FE
FE
ENDCHAR
STARTCHAR 0305
ENCODING 773
SWIDTH 0 0
DWIDTH 0 0
BBX 14 2 -14 17
BITMAP
FFFC
FFFC
ENDCHAR
STARTCHAR 0306
ENCODING 774
SWIDTH 0 0
DWIDTH 0 0
BBX 7 4 -10 14
BITMAP
82
C6
7C
38
ENDCHAR
STARTCHAR 0307
ENCODING 775
SWIDTH 0 0
DWIDTH 0 0
BBX 2 2 -8 14
BITMAP
C0
C0
ENDCHAR
STARTCHAR 0308
ENCODING 776
SWIDTH 0 0
DWIDTH 0 0
BBX 6 2 -10 14
BITMAP
CC
CC
ENDCHAR
STARTCHAR 0309
ENCODING 777
SWIDTH 0 0
DWIDTH 0 0
BBX 4 5 -9 14
BITMAP
E0
30
30
60
60
ENDCHAR
STARTCHAR 030A
ENCODING 778
SWIDTH 0 0
DWIDTH 0 0
BBX 5 5 -9 14
BITMAP
70
88
88
88
70
ENDCHAR
STARTCHAR 030B
ENCODING 779
SWIDTH 0 0
DWIDTH 0 0
BBX 8 3 -10 14
BITMAP
33
66
CC
ENDCHAR
STARTCHAR 030C
ENCODING 780
SWIDTH 0 0
DWIDTH 0 0
BBX 7 3 -10 14
BITMAP
C6
6C
38
ENDCHAR
STARTCHAR 030D
ENCODING 781
SWIDTH 0 0
DWIDTH 0 0
BBX 2 4 -8 14
BITMAP
C0
C0
C0
C0
ENDCHAR
STARTCHAR 030E
ENCODING 782
SWIDTH 0 0
DWIDTH 0 0
BBX 6 4 -10 14
BITMAP
CC
CC
CC
CC
ENDCHAR
STARTCHAR 030F
ENCODING 783
SWIDTH 0 0
DWIDTH 0 0
BBX 8 3 -11 14
BITMAP
CC
66
33
ENDCHAR
STARTCHAR 0310
ENCODING 784
SWIDTH 0 0
DWIDTH 0 0
BBX 8 6 -11 14
BITMAP
18
18
00
81
7E
3C
ENDCHAR
STARTCHAR 0311
ENCODING 785
SWIDTH 0 0
DWIDTH 0 0
BBX 7 4 -10 13
BITMAP
38
7C
C6
82
ENDCHAR
STARTCHAR 0312
ENCODING 786
SWIDTH 0 0
DWIDTH 0 0
BBX 2 5 -8 14
BITMAP
40
80
80
C0
C0
ENDCHAR
STARTCHAR 0313
ENCODING 787
SWIDTH 0 0
DWIDTH 0 0
BBX 2 5 -8 14
BITMAP
C0
C0
40
40
80
ENDCHAR
STARTCHAR 0314
ENCODING 788
SWIDTH 0 0
DWIDTH 0 0
BBX 2 5 -8 14
BITMAP
C0
C0
80
80
40
ENDCHAR
STARTCHAR 0315
ENCODING 789
SWIDTH 0 0
DWIDTH 0 0
BBX 2 5 -2 14
BITMAP
C0
C0
40
40
80
ENDCHAR
STARTCHAR 0316
ENCODING 790
SWIDTH 0 0
DWIDTH 0 0
BBX 4 3 -8 -5
BITMAP
C0
60
30
ENDCHAR
STARTCHAR 0317
ENCODING 791
SWIDTH 0 0
DWIDTH 0 0
BBX 4 3 -9 -5
BITMAP
30
60
C0
ENDCHAR
STARTCHAR 0318
ENCODING 792
SWIDTH 0 0
DWIDTH 0 0
BBX 4 5 -9 -7
BITMAP
10
10
F0
10
10
ENDCHAR
STARTCHAR 0319
ENCODING 793
SWIDTH 0 0
DWIDTH 0 0
BBX 4 5 -9 -7
BITMAP
80
80
F0
80
80
ENDCHAR
STARTCHAR 031A
ENCODING 794
SWIDTH 0 0
DWIDTH 0 0
BBX 5 5 -5 12
BITMAP
F8
08
08
08
08
ENDCHAR
STARTCHAR 031B
ENCODING 795
SWIDTH 45 0
DWIDTH 1 0
BBX 4 4 -3 8
BITMAP
30
30
60
C0
ENDCHAR
STARTCHAR 031C
ENCODING 796
SWIDTH 0 0
DWIDTH 0 0
BBX 3 5 -8 -7
BITMAP
60
80
80
80
60
ENDCHAR
STARTCHAR 031D
ENCODING 797
SWIDTH 0 0
DWIDTH 0 0
BBX 5 4 -9 -6
BITMAP
20
20
20
F8
ENDCHAR
STARTCHAR 031E
ENCODING 798
SWIDTH 0 0
DWIDTH 0 0
BBX 5 4 -9 -6
BITMAP
F8
20
20
20
ENDCHAR
STARTCHAR 031F
ENCODING 799
SWIDTH 0 0
DWIDTH 0 0
BBX 5 5 -9 -7
BITMAP
20
20
F8
20
20
ENDCHAR
STARTCHAR 0320
ENCODING 800
SWIDTH 0 0
DWIDTH 0 0
BBX 6 3 -10 -5
BITMAP
84
FC
84
ENDCHAR
STARTCHAR 0321
ENCODING 801
SWIDTH 0 0
DWIDTH 0 0
BBX 5 5 -5 -5
BITMAP
18
18
18
30
E0
ENDCHAR
STARTCHAR 0322
ENCODING 802
SWIDTH 0 0
DWIDTH 0 0
BBX 5 5 -5 -5
BITMAP
C0
C0
C0
60
38
ENDCHAR
STARTCHAR 0323
ENCODING 803
SWIDTH 0 0
DWIDTH 0 0
BBX 2 2 -8 -4
BITMAP
C0
C0
ENDCHAR
STARTCHAR 0324
ENCODING 804
SWIDTH 0 0
DWIDTH 0 0
BBX 6 2 -10 -4
BITMAP
CC
CC
ENDCHAR
STARTCHAR 0325
ENCODING 805
SWIDTH 0 0
DWIDTH 0 0
BBX 5 5 -9 -7
BITMAP
70
88
88
88
70
ENDCHAR
STARTCHAR 0326
ENCODING 806
SWIDTH 630 0
DWIDTH 14 0
BBX 2 5 6 -7
BITMAP
C0
C0
40
40
80
ENDCHAR
STARTCHAR 0327
ENCODING 807
SWIDTH 0 0
DWIDTH 0 0
BBX 3 5 -8 -5
BITMAP
40
C0
20
20
C0
ENDCHAR
STARTCHAR 0328
ENCODING 808
SWIDTH 0 0
DWIDTH 0 0
BBX 4 4 -8 -4
BITMAP
60
C0
C0
70
ENDCHAR
STARTCHAR 0329
ENCODING 809
SWIDTH 0 0
DWIDTH 0 0
BBX 2 4 -8 -6
BITMAP
C0
C0
C0
C0
ENDCHAR
STARTCHAR 032A
ENCODING 810
SWIDTH 0 0
DWIDTH 0 0
BBX 6 3 -10 -5
BITMAP
FC
84
84
ENDCHAR
STARTCHAR 032B
ENCODING 811
SWIDTH 0 0
DWIDTH 0 0
BBX 9 3 -11 -5
BITMAP
8880
8880
7700
ENDCHAR
STARTCHAR 032C
ENCODING 812
SWIDTH 0 0
DWIDTH 0 0
BBX 7 3 -10 -5
BITMAP
C6
6C
38
ENDCHAR
STARTCHAR 032D
ENCODING 813
SWIDTH 0 0
DWIDTH 0 0
BBX 7 3 -10 -5
BITMAP
38
6C
C6
ENDCHAR
STARTCHAR 032E
ENCODING 814
SWIDTH 0 0
DWIDTH 0 0
BBX 7 4 -10 -6
BITMAP
82
C6
7C
38
ENDCHAR
STARTCHAR 032F
ENCODING 815
SWIDTH 0 0
DWIDTH 0 0
BBX 7 4 -10 -6
BITMAP
38
7C
C6
82
ENDCHAR
STARTCHAR 0330
ENCODING 816
SWIDTH 0 0
DWIDTH 0 0
BBX 7 3 -10 -5
BITMAP
72
FE
9C
ENDCHAR
STARTCHAR 0331
ENCODING 817
SWIDTH 0 0
DWIDTH 0 0
BBX 7 2 -10 -4
BITMAP
FE
FE
ENDCHAR
STARTCHAR 0332
ENCODING 818
SWIDTH 0 0
DWIDTH 0 0
BBX 14 2 -14 -7
BITMAP
FFFC
FFFC
ENDCHAR
STARTCHAR 0333
ENCODING 819
SWIDTH 0 0
DWIDTH 0 0
BBX 14 5 -14 -10
BITMAP
FFFC
0000
0000
0000
FFFC
ENDCHAR
STARTCHAR 0334
ENCODING 820
SWIDTH 0 0
DWIDTH 0 0
BBX 11 4 -12 4
BITMAP
3860
7E60
CFC0
C380
ENDCHAR
STARTCHAR 0335
ENCODING 821
SWIDTH 0 0
DWIDTH 0 0
BBX 11 2 -12 5
BITMAP
FFE0
FFE0
ENDCHAR
STARTCHAR 0336
ENCODING 822
SWIDTH 0 0
DWIDTH 0 0
BBX 14 2 -14 5
BITMAP
FFFC
FFFC
ENDCHAR
STARTCHAR 0337
ENCODING 823
SWIDTH 0 0
DWIDTH 0 0
BBX 13 12 -13 0
BITMAP
0018
0030
0060
00C0
0180
0300
0600
0C00
1800
3000
6000
C000
ENDCHAR
STARTCHAR 0338
ENCODING 824
SWIDTH 0 0
DWIDTH 0 0
BBX 12 20 -13 -2
BITMAP
0030
0060
0060
00C0
00C0
0180
0180
0300
0300
0600
0600
0C00
0C00
1800
1800
3000
3000
6000
6000
C000
ENDCHAR
STARTCHAR 0339
ENCODING 825
SWIDTH 0 0
DWIDTH 0 0
BBX 3 5 -8 -7
BITMAP
C0
20
20
20
C0
ENDCHAR
STARTCHAR 033A
ENCODING 826
SWIDTH 0 0
DWIDTH 0 0
BBX 6 3 -10 -5
BITMAP
84
84
FC
ENDCHAR
STARTCHAR 033B
ENCODING 827
SWIDTH 0 0
DWIDTH 0 0
BBX 6 5 -10 -7
BITMAP
FC
84
84
84
FC
ENDCHAR
STARTCHAR 033C
ENCODING 828
SWIDTH 0 0
DWIDTH 0 0
BBX 9 3 -11 -5
BITMAP
7300
8C80
8880
ENDCHAR
STARTCHAR 033D
ENCODING 829
SWIDTH 0 0
DWIDTH 0 0
BBX 4 4 -8 14
BITMAP
90
60
60
90
ENDCHAR
STARTCHAR 033E
ENCODING 830
SWIDTH 0 0
DWIDTH 0 0
BBX 3 4 -8 14
BITMAP
C0
C0
60
60
ENDCHAR
STARTCHAR 033F
ENCODING 831
SWIDTH 0 0
DWIDTH 0 0
BBX 14 6 -14 17
BITMAP
FFFC
FFFC
0000
0000
FFFC
FFFC
ENDCHAR
STARTCHAR 0340
ENCODING 832
SWIDTH 0 0
DWIDTH 0 0
BBX 4 3 -13 17
BITMAP
C0
60
30
ENDCHAR
STARTCHAR 0341
ENCODING 833
SWIDTH 0 0
DWIDTH 0 0
BBX 4 3 -5 17
BITMAP
30
60
C0
ENDCHAR
STARTCHAR 0342
ENCODING 834
SWIDTH 0 0
DWIDTH 0 0
BBX 7 3 -10 14
BITMAP
72
FE
9C
ENDCHAR
STARTCHAR 0343
ENCODING 835
SWIDTH 0 0
DWIDTH 0 0
BBX 2 5 -8 14
BITMAP
C0
C0
40
40
80
ENDCHAR
STARTCHAR 0344
ENCODING 836
SWIDTH 0 0
DWIDTH 0 0
BBX 8 3 -11 14
BITMAP
18
DB
DB
ENDCHAR
STARTCHAR 0345
ENCODING 837
SWIDTH 0 0
DWIDTH 0 0
BBX 4 4 -7 -5
BITMAP
C0
C0
F0
60
ENDCHAR
STARTCHAR 0374
ENCODING 884
SWIDTH 270 0
DWIDTH 6 0
BBX 5 6 1 11
BITMAP
18
30
20
60
40
80
ENDCHAR
STARTCHAR 0375
ENCODING 885
SWIDTH 270 0
DWIDTH 6 0
BBX 5 6 1 -4
BITMAP
18
30
20
60
40
80
ENDCHAR
STARTCHAR 037A
ENCODING 890
SWIDTH 630 0
DWIDTH 14 0
BBX 3 4 6 -5
BITMAP
C0
C0
E0
60
ENDCHAR
STARTCHAR 037E
ENCODING 894
SWIDTH 315 0
DWIDTH 7 0
BBX 2 15 2 -3
BITMAP
C0
C0
C0
00
00
00
00
00
00
C0
C0
C0
40
40
80
ENDCHAR
STARTCHAR 0384
ENCODING 900
SWIDTH 630 0
DWIDTH 14 0
BBX 2 3 6 14
BITMAP
C0
C0
C0
ENDCHAR
STARTCHAR 0385
ENCODING 901
SWIDTH 630 0
DWIDTH 14 0
BBX 8 3 3 14
BITMAP
18
DB
DB
ENDCHAR
STARTCHAR 0386
ENCODING 902
SWIDTH 675 0
DWIDTH 15 0
BBX 15 16 0 0
BITMAP
C380
C380
C380
06C0
06C0
0C60
0C60
0C70
1830
1830
3FF8
3FF8
701C
600C
600C
C006
ENDCHAR
STARTCHAR 0387
ENCODING 903
SWIDTH 315 0
DWIDTH 7 0
BBX 3 3 2 5
BITMAP
E0
E0
E0
ENDCHAR
STARTCHAR 0388
ENCODING 904
SWIDTH 630 0
DWIDTH 14 0
BBX 14 16 0 0
BITMAP
CFFC
CFFC
CC00
0C00
0C00
0C00
0C00
0FF0
0FF0
0C00
0C00
0C00
0C00
0C00
0FFC
0FFC
ENDCHAR
STARTCHAR 0389
ENCODING 905
SWIDTH 810 0
DWIDTH 18 0
BBX 16 16 0 0
BITMAP
CC03
CC03
CC03
0C03
0C03
0C03
0C03
0FFF
0FFF
0C03
0C03
0C03
0C03
0C03
0C03
0C03
ENDCHAR
STARTCHAR 038A
ENCODING 906
SWIDTH 405 0
DWIDTH 9 0
BBX 6 16 0 0
BITMAP
CC
CC
CC
0C
0C
0C
0C
0C
0C
0C
0C
0C
0C
0C
0C
0C
ENDCHAR
STARTCHAR 038C
ENCODING 908
SWIDTH 855 0
DWIDTH 19 0
BBX 18 16 0 0
BITMAP
C0F800
C3FE00
C70700
0E0380
0C0180
1800C0
1800C0
1800C0
1800C0
1800C0
1800C0
0C0180
0E0380
070700
03FE00
00F800
ENDCHAR
STARTCHAR 038E
ENCODING 910
SWIDTH 810 0
DWIDTH 18 0
BBX 16 15 2 1
BITMAP
F807
FE0F
CF1C
0338
03B0
01A0
01E0
00E0
00C0
00C0
00C0
00C0
00C0
00C0
00C0
ENDCHAR
STARTCHAR 038F
ENCODING 911
SWIDTH 855 0
DWIDTH 19 0
BBX 18 15 1 1
BITMAP
C1F800
C7FE00
CF0F00
0C0300
1C0180
180180
180180
180180
180180
080100
0C0300
060600
030C00
3F9FC0
3F9FC0
ENDCHAR
STARTCHAR 0390
ENCODING 912
SWIDTH 360 0
DWIDTH 8 0
BBX 9 17 -2 0
BITMAP
1800
DB00
DB00
0000
0000
1800
1800
1800
1800
1800
1800
1800
1800
1800
1800
1F80
0F80
ENDCHAR
STARTCHAR 0391
ENCODING 913
SWIDTH 675 0
DWIDTH 15 0
BBX 15 16 0 0
BITMAP
0380
0380
0380
06C0
06C0
0C60
0C60
0C70
1830
1830
3FF8
3FF8
701C
600C
600C
C006
ENDCHAR
STARTCHAR 0392
ENCODING 914
SWIDTH 585 0
DWIDTH 13 0
BBX 10 16 2 0
BITMAP
FE00
FF00
C380
C180
C180
C180
C700
FE00
FE00
C380
C1C0
C0C0
C0C0
C1C0
FF80
FF00
ENDCHAR
STARTCHAR 0393
ENCODING 915
SWIDTH 495 0
DWIDTH 11 0
BBX 9 15 2 1
BITMAP
FF80
FF80
C000
C000
C000
C000
C000
C000
C000
C000
C000
C000
C000
C000
C000
ENDCHAR
STARTCHAR 0394
ENCODING 916
SWIDTH 675 0
DWIDTH 15 0
BBX 13 15 1 1
BITMAP
0700
0700
0D80
0D80
0DC0
18C0
18C0
3060
3060
7070
6030
6030
C018
FFF8
FFF8
ENDCHAR
STARTCHAR 0395
ENCODING 917
SWIDTH 540 0
DWIDTH 12 0
BBX 10 16 2 0
BITMAP
FFC0
FFC0
C000
C000
C000
C000
C000
FF00
FF00
C000
C000
C000
C000
C000
FFC0
FFC0
ENDCHAR
STARTCHAR 0396
ENCODING 918
SWIDTH 585 0
DWIDTH 13 0
BBX 11 16 1 0
BITMAP
7FE0
7FE0
00E0
00C0
0180
0300
0700
0600
0C00
1C00
1800
3000
6000
E000
FFE0
FFE0
ENDCHAR
STARTCHAR 0397
ENCODING 919
SWIDTH 720 0
DWIDTH 16 0
BBX 12 16 2 0
BITMAP
C030
C030
C030
C030
C030
C030
C030
FFF0
FFF0
C030
C030
C030
C030
C030
C030
C030
ENDCHAR
STARTCHAR 0398
ENCODING 920
SWIDTH 765 0
DWIDTH 17 0
BBX 15 16 1 0
BITMAP
07C0
1FF0
3838
701C
600C
C006
C006
CFE6
CFE6
C006
C006
600C
701C
3838
1FF0
07C0
ENDCHAR
STARTCHAR 0399
ENCODING 921
SWIDTH 270 0
DWIDTH 6 0
BBX 2 16 2 0
BITMAP
C0
C0
C0
C0
C0
C0
C0
C0
C0
C0
C0
C0
C0
C0
C0
C0
ENDCHAR
STARTCHAR 039A
ENCODING 922
SWIDTH 630 0
DWIDTH 14 0
BBX 12 16 2 0
BITMAP
C060
C0C0
C180
C300
C600
CC00
D800
F000
D800
CC00
C600
C300
C180
C0C0
C060
C030
ENDCHAR
STARTCHAR 039B
ENCODING 923
SWIDTH 630 0
DWIDTH 14 0
BBX 13 15 0 1
BITMAP
0700
0700
0700
0D80
0D80
09C0
18C0
18C0
3060
3060
3060
6030
6030
6030
C018
ENDCHAR
STARTCHAR 039C
ENCODING 924
SWIDTH 855 0
DWIDTH 19 0
BBX 15 16 2 0
BITMAP
E00E
F01E
F01E
F01E
D836
D836
D836
CC66
CC66
CC66
C6C6
C6C6
C6C6
C386
C386
C006
ENDCHAR
STARTCHAR 039D
ENCODING 925
SWIDTH 720 0
DWIDTH 16 0
BBX 12 16 2 0
BITMAP
E030
E030
F030
F030
D830
DC30
CC30
C630
C630
C330
C3B0
C1B0
C0F0
C0F0
C070
C070
ENDCHAR
STARTCHAR 039E
ENCODING 926
SWIDTH 630 0
DWIDTH 14 0
BBX 12 15 1 1
BITMAP
7FE0
7FE0
0000
0000
0000
0000
3FC0
3FC0
0000
0000
0000
0000
0000
FFF0
FFF0
ENDCHAR
STARTCHAR 039F
ENCODING 927
SWIDTH 765 0
DWIDTH 17 0
BBX 15 16 1 0
BITMAP
07C0
1FF0
3838
701C
600C
C006
C006
C006
C006
C006
C006
600C
701C
3838
1FF0
07C0
ENDCHAR
STARTCHAR 03A0
ENCODING 928
SWIDTH 720 0
DWIDTH 16 0
BBX 12 15 2 1
BITMAP
FFF0
FFF0
C030
C030
C030
C030
C030
C030
C030
C030
C030
C030
C030
C030
C030
ENDCHAR
STARTCHAR 03A1
ENCODING 929
SWIDTH 540 0
DWIDTH 12 0
BBX 10 16 2 0
BITMAP
FF00
FF80
C1C0
C0C0
C0C0
C0C0
C380
FF00
FC00
C000
C000
C000
C000
C000
C000
C000
ENDCHAR
STARTCHAR 03A3
ENCODING 931
SWIDTH 585 0
DWIDTH 13 0
BBX 11 15 1 1
BITMAP
FFE0
FFE0
6000
3000
1800
0C00
0600
0300
0600
0C00
1800
3000
6000
FFE0
FFE0
ENDCHAR
STARTCHAR 03A4
ENCODING 932
SWIDTH 630 0
DWIDTH 14 0
BBX 14 16 0 0
BITMAP
FFFC
FFFC
0300
0300
0300
0300
0300
0300
0300
0300
0300
0300
0300
0300
0300
0300
ENDCHAR
STARTCHAR 03A5
ENCODING 933
SWIDTH 630 0
DWIDTH 14 0
BBX 14 15 0 1
BITMAP
E01C
F83C
3C70
0CE0
0EC0
0680
0780
0380
0300
0300
0300
0300
0300
0300
0300
ENDCHAR
STARTCHAR 03A6
ENCODING 934
SWIDTH 720 0
DWIDTH 16 0
BBX 14 15 1 1
BITMAP
0300
0300
1FE0
3FF0
7338
E31C
C30C
C30C
C30C
E31C
7338
3FF0
1FE0
0300
0300
ENDCHAR
STARTCHAR 03A7
ENCODING 935
SWIDTH 630 0
DWIDTH 14 0
BBX 14 16 0 0
BITMAP
C00C
6018
3030
3830
1860
0CC0
0780
0780
0780
0780
0CC0
1860
3070
3030
6018
C00C
ENDCHAR
STARTCHAR 03A8
ENCODING 936
SWIDTH 720 0
DWIDTH 16 0
BBX 16 15 0 1
BITMAP
E187
F18F
318C
318C
399C
1998
1FF8
07E0
0180
0180
0180
0180
0180
0180
0180
ENDCHAR
STARTCHAR 03A9
ENCODING 937
SWIDTH 810 0
DWIDTH 18 0
BBX 16 15 1 1
BITMAP
07E0
1FF8
3C3C
300C
7006
6006
6006
6006
6006
2004
300C
1818
0C30
FE7F
FE7F
ENDCHAR
STARTCHAR 03AA
ENCODING 938
SWIDTH 270 0
DWIDTH 6 0
BBX 6 19 0 0
BITMAP
CC
CC
00
30
30
30
30
30
30
30
30
30
30
30
30
30
30
30
30
ENDCHAR
STARTCHAR 03AB
ENCODING 939
SWIDTH 630 0
DWIDTH 14 0
BBX 14 18 0 1
BITMAP
0CC0
0CC0
0000
E01C
F83C
3C70
0CE0
0EC0
0680
0780
0380
0300
0300
0300
0300
0300
0300
0300
ENDCHAR
STARTCHAR 03AC
ENCODING 940
SWIDTH 675 0
DWIDTH 15 0
BBX 13 17 1 0
BITMAP
0600
0600
0600
0000
0000
1E18
3F38
63B0
E1B0
C1E0
C0E0
C0E0
C0E0
E1E0
63B0
7F30
1E18
ENDCHAR
STARTCHAR 03AD
ENCODING 941
SWIDTH 540 0
DWIDTH 12 0
BBX 9 17 1 0
BITMAP
0E00
0E00
0E00
0000
0000
1F00
3F80
6080
C000
C000
FF00
FF00
C000
C000
6080
3F80
1F00
ENDCHAR
STARTCHAR 03AE
ENCODING 942
SWIDTH 630 0
DWIDTH 14 0
BBX 12 21 0 -4
BITMAP
0300
0300
0300
0000
0000
C3C0
6FE0
7C30
7030
6030
6030
6030
6030
6030
6030
6030
6030
0030
0030
0030
0030
ENDCHAR
STARTCHAR 03AF
ENCODING 943
SWIDTH 360 0
DWIDTH 8 0
BBX 6 17 1 0
BITMAP
C0
C0
C0
00
00
C0
C0
C0
C0
C0
C0
C0
C0
C0
C0
FC
7C
ENDCHAR
STARTCHAR 03B0
ENCODING 944
SWIDTH 585 0
DWIDTH 13 0
BBX 10 17 1 0
BITMAP
0C00
6D80
6D80
0000
0000
C300
C180
C180
C0C0
C0C0
C0C0
C0C0
C0C0
C1C0
E180
7F00
3E00
ENDCHAR
STARTCHAR 03B1
ENCODING 945
SWIDTH 675 0
DWIDTH 15 0
BBX 13 12 1 0
BITMAP
1E18
3F38
63B0
E1B0
C1E0
C0E0
C0E0
C0E0
E1E0
63B0
7F30
1E18
ENDCHAR
STARTCHAR 03B2
ENCODING 946
SWIDTH 585 0
DWIDTH 13 0
BBX 11 21 1 -4
BITMAP
1F00
7F80
61C0
C0C0
C0C0
C180
C300
DC00
DF80
C1C0
C0E0
C060
C060
C060
E1C0
FF80
DF00
C000
C000
C000
C000
ENDCHAR
STARTCHAR 03B3
ENCODING 947
SWIDTH 540 0
DWIDTH 12 0
BBX 13 16 -1 -4
BITMAP
E018
6030
3060
3060
18C0
18C0
0D80
0D80
0700
0700
0600
0600
0600
0600
0600
0600
ENDCHAR
STARTCHAR 03B4
ENCODING 948
SWIDTH 585 0
DWIDTH 13 0
BBX 10 17 1 0
BITMAP
3FC0
7FC0
E000
C000
6000
3800
1E00
3F00
6180
C0C0
C0C0
C0C0
C0C0
C0C0
6180
7F80
1E00
ENDCHAR
STARTCHAR 03B5
ENCODING 949
SWIDTH 540 0
DWIDTH 12 0
BBX 9 12 1 0
BITMAP
1F00
3F80
6080
C000
C000
FF00
FF00
C000
C000
6080
3F80
1F00
ENDCHAR
STARTCHAR 03B6
ENCODING 950
SWIDTH 630 0
DWIDTH 14 0
BBX 15 21 -1 -4
BITMAP
000E
007E
C1FC
FFF0
7F80
0600
0C00
1800
1800
3000
3000
3000
3000
3000
1C00
1FFC
07FE
0006
0006
00FC
00F8
ENDCHAR
STARTCHAR 03B7
ENCODING 951
SWIDTH 630 0
DWIDTH 14 0
BBX 12 16 0 -4
BITMAP
C3C0
6FE0
7C30
7030
6030
6030
6030
6030
6030
6030
6030
6030
0030
0030
0030
0030
ENDCHAR
STARTCHAR 03B8
ENCODING 952
SWIDTH 630 0
DWIDTH 14 0
BBX 11 17 1 0
BITMAP
1F00
3F80
71C0
60C0
C060
C060
C060
FFE0
FFE0
C060
C060
C060
E0E0
60C0
71C0
3F80
1F00
ENDCHAR
STARTCHAR 03B9
ENCODING 953
SWIDTH 360 0
DWIDTH 8 0
BBX 6 12 1 0
BITMAP
C0
C0
C0
C0
C0
C0
C0
C0
C0
C0
FC
7C
ENDCHAR
STARTCHAR 03BA
ENCODING 954
SWIDTH 540 0
DWIDTH 12 0
BBX 10 12 1 0
BITMAP
C180
C380
C600
CC00
D800
F800
F800
DC00
CE00
C700
C380
C1C0
ENDCHAR
STARTCHAR 03BB
ENCODING 955
SWIDTH 585 0
DWIDTH 13 0
BBX 13 17 0 0
BITMAP
7000
7800
1C00
0C00
0600
0600
0300
0300
0780
0D80
0CC0
18C0
1860
3060
6030
6030
C018
ENDCHAR
STARTCHAR 03BC
ENCODING 956
SWIDTH 630 0
DWIDTH 14 0
BBX 12 16 1 -4
BITMAP
C060
C060
C060
C060
C060
C060
C060
C060
C0E0
E1E0
FF60
FE30
C000
C000
C000
C000
ENDCHAR
STARTCHAR 03BD
ENCODING 957
SWIDTH 540 0
DWIDTH 12 0
BBX 11 12 0 0
BITMAP
C060
6060
6060
3060
3040
18C0
18C0
0C80
0D80
0D80
0700
0700
ENDCHAR
STARTCHAR 03BE
ENCODING 958
SWIDTH 585 0
DWIDTH 13 0
BBX 13 21 -1 -4
BITMAP
C1E0
FFE0
7F80
1800
1800
1C00
0E00
03E0
0FE0
1C00
3800
3000
3000
3000
3800
1FF0
07F8
0018
0018
03F0
03E0
ENDCHAR
STARTCHAR 03BF
ENCODING 959
SWIDTH 630 0
DWIDTH 14 0
BBX 11 12 1 0
BITMAP
1F00
7FC0
60C0
C060
C060
C060
C060
C060
C060
60C0
7FC0
1F00
ENDCHAR
STARTCHAR 03C0
ENCODING 960
SWIDTH 765 0
DWIDTH 17 0
BBX 15 12 1 0
BITMAP
7FFE
FFFE
9818
1818
1818
1818
1818
1818
1818
1818
1818
180C
ENDCHAR
STARTCHAR 03C1
ENCODING 961
SWIDTH 585 0
DWIDTH 13 0
BBX 10 16 1 -4
BITMAP
1F00
7F80
61C0
E0C0
C0C0
C0C0
C0C0
C0C0
C180
E380
FF00
FE00
C000
C000
C000
C000
ENDCHAR
STARTCHAR 03C2
ENCODING 962
SWIDTH 585 0
DWIDTH 13 0
BBX 12 16 1 -4
BITMAP
07E0
1FE0
3800
6000
E000
C000
C000
C000
C000
6000
7FE0
1FF0
0030
0030
07E0
07C0
ENDCHAR
STARTCHAR 03C3
ENCODING 963
SWIDTH 675 0
DWIDTH 15 0
BBX 14 12 1 0
BITMAP
1FFC
3FFC
60C0
E0E0
C060
C060
C060
C060
E0E0
60C0
3F80
1F00
ENDCHAR
STARTCHAR 03C4
ENCODING 964
SWIDTH 540 0
DWIDTH 12 0
BBX 11 12 1 0
BITMAP
7FE0
FFE0
8C00
0C00
0C00
0C00
0C00
0C00
0C00
0C00
0C00
0600
ENDCHAR
STARTCHAR 03C5
ENCODING 965
SWIDTH 585 0
DWIDTH 13 0
BBX 10 12 1 0
BITMAP
C300
C180
C180
C0C0
C0C0
C0C0
C0C0
C0C0
C1C0
E180
7F00
3E00
ENDCHAR
STARTCHAR 03C6
ENCODING 966
SWIDTH 810 0
DWIDTH 18 0
BBX 16 16 1 -4
BITMAP
3878
78FE
E1C6
C183
C183
C183
C183
C183
6186
798E
3FFC
0FE0
0180
0180
0180
0180
ENDCHAR
STARTCHAR 03C7
ENCODING 967
SWIDTH 540 0
DWIDTH 12 0
BBX 12 16 0 -4
BITMAP
E060
60C0
30C0
3180
1B00
1F00
0E00
0600
0E00
0F00
1B80
1980
30C0
60C0
6060
C070
ENDCHAR
STARTCHAR 03C8
ENCODING 968
SWIDTH 765 0
DWIDTH 17 0
BBX 15 18 0 -4
BITMAP
0180
0180
C18C
6186
6186
6186
6186
6186
6186
6186
718C
399C
1FF8
07E0
0180
0180
0180
0180
ENDCHAR
STARTCHAR 03C9
ENCODING 969
SWIDTH 900 0
DWIDTH 20 0
BBX 18 12 1 0
BITMAP
300300
60C180
60C180
C0C0C0
C0C0C0
C0C0C0
C0C0C0
C0C0C0
E1A1C0
63B180
3F1F80
1E0F00
ENDCHAR
STARTCHAR 03CA
ENCODING 970
SWIDTH 360 0
DWIDTH 8 0
BBX 7 16 0 0
BITMAP
CC
CC
00
00
60
60
60
60
60
60
60
60
60
60
7E
3E
ENDCHAR
STARTCHAR 03CB
ENCODING 971
SWIDTH 585 0
DWIDTH 13 0
BBX 10 16 1 0
BITMAP
3300
3300
0000
0000
C300
C180
C180
C0C0
C0C0
C0C0
C0C0
C0C0
C1C0
E180
7F00
3E00
ENDCHAR
STARTCHAR 03CC
ENCODING 972
SWIDTH 630 0
DWIDTH 14 0
BBX 11 17 1 0
BITMAP
0600
0600
0600
0000
0000
1F00
7FC0
60C0
C060
C060
C060
C060
C060
C060
60C0
7FC0
1F00
ENDCHAR
STARTCHAR 03CD
ENCODING 973
SWIDTH 585 0
DWIDTH 13 0
BBX 10 17 1 0
BITMAP
1800
1800
1800
0000
0000
C300
C180
C180
C0C0
C0C0
C0C0
C0C0
C0C0
C1C0
E180
7F00
3E00
ENDCHAR
STARTCHAR 03CE
ENCODING 974
SWIDTH 900 0
DWIDTH 20 0
BBX 18 17 1 0
BITMAP
00C000
00C000
00C000
000000
000000
300300
60C180
60C180
C0C0C0
C0C0C0
C0C0C0
C0C0C0
C0C0C0
E1A1C0
63B180
3F1F80
1E0F00
ENDCHAR
STARTCHAR 03D0
ENCODING 976
SWIDTH 495 0
DWIDTH 11 0
BBX 9 17 1 0
BITMAP
0F00
1F80
3180
6180
6380
FF00
DE00
C000
C000
CE00
DF00
F380
E180
6180
7380
3F00
1E00
ENDCHAR
STARTCHAR 03D1
ENCODING 977
SWIDTH 630 0
DWIDTH 14 0
BBX 12 17 1 0
BITMAP
1E00
3F00
6380
C180
C0C0
C0C0
E0C0
7FF0
3FF0
00C0
00C0
00C0
C0C0
6180
6380
7F00
3E00
ENDCHAR
STARTCHAR 03D2
ENCODING 978
SWIDTH 630 0
DWIDTH 14 0
BBX 13 15 1 1
BITMAP
E038
7078
38C0
1980
1D00
0D00
0700
0600
0600
0600
0600
0600
0600
0600
0600
ENDCHAR
STARTCHAR 03D3
ENCODING 979
SWIDTH 765 0
DWIDTH 17 0
BBX 17 15 0 1
BITMAP
CE0380
C70780
C38C00
019800
01D000
00D000
007000
006000
006000
006000
006000
006000
006000
006000
006000
ENDCHAR
STARTCHAR 03D4
ENCODING 980
SWIDTH 630 0
DWIDTH 14 0
BBX 13 18 1 1
BITMAP
1980
1980
0000
E038
7078
38C0
1980
1D00
0D00
0700
0600
0600
0600
0600
0600
0600
0600
0600
ENDCHAR
STARTCHAR 03D5
ENCODING 981
SWIDTH 765 0
DWIDTH 17 0
BBX 14 21 1 -4
BITMAP
0300
0300
0300
0300
0300
1FE0
3FF0
7338
E31C
C30C
C30C
C30C
C30C
E31C
7338
3FF0
1FE0
0300
0300
0300
0300
ENDCHAR
STARTCHAR 03D6
ENCODING 982
SWIDTH 855 0
DWIDTH 19 0
BBX 19 12 0 0
BITMAP
7FFFE0
FFFFE0
980180
3060C0
3060C0
3060C0
3060C0
3060C0
3060C0
18F180
1F9F80
070F00
ENDCHAR
STARTCHAR 03DA
ENCODING 986
SWIDTH 675 0
DWIDTH 15 0
BBX 13 20 1 -4
BITMAP
03E0
0FF0
1C10
3800
7000
6000
E000
C000
C000
C000
C000
C000
E000
7000
3FF0
1FF8
0018
0018
03F0
03E0
ENDCHAR
STARTCHAR 03DC
ENCODING 988
SWIDTH 540 0
DWIDTH 12 0
BBX 9 16 2 0
BITMAP
FF80
FF80
C000
C000
C000
C000
C000
FF00
FF00
C000
C000
C000
C000
C000
C000
C000
ENDCHAR
STARTCHAR 03DE
ENCODING 990
SWIDTH 540 0
DWIDTH 12 0
BBX 10 15 0 1
BITMAP
1800
3000
3000
3000
6000
6000
7FC0
FFC0
0180
0180
0380
0300
0300
0700
0600
ENDCHAR
STARTCHAR 03E0
ENCODING 992
SWIDTH 630 0
DWIDTH 14 0
BBX 13 16 0 0
BITMAP
F000
FC00
0F00
0380
07C0
0EE0
3870
7070
00F0
0198
0718
0E18
0018
0018
0038
0030
ENDCHAR
STARTCHAR 03E2
ENCODING 994
SWIDTH 855 0
DWIDTH 19 0
BBX 16 20 1 -4
BITMAP
300C
6006
6186
6186
C183
C183
C183
C183
C183
C183
C183
C183
C3C3
63C7
7E7F
3C3A
0006
000C
01FC
01F0
ENDCHAR
STARTCHAR 03E3
ENCODING 995
SWIDTH 900 0
DWIDTH 20 0
BBX 17 16 1 -4
BITMAP
300600
60C300
60C300
C0C180
C0C180
C0C180
C0C180
C0C180
E1E380
636380
7F3F80
1E1D00
000300
000700
00FE00
00F800
ENDCHAR
STARTCHAR 03E4
ENCODING 996
SWIDTH 630 0
DWIDTH 14 0
BBX 11 15 1 1
BITMAP
6060
6060
C060
C060
C060
C060
C060
E1E0
7FE0
3E60
0060
0060
0060
0060
0060
ENDCHAR
STARTCHAR 03E5
ENCODING 997
SWIDTH 585 0
DWIDTH 13 0
BBX 10 16 1 -4
BITMAP
30C0
60C0
60C0
60C0
C0C0
C0C0
C0C0
C0C0
C1C0
E3C0
7EC0
3CC0
00C0
00C0
00C0
00C0
ENDCHAR
STARTCHAR 03E6
ENCODING 998
SWIDTH 675 0
DWIDTH 15 0
BBX 12 20 2 -4
BITMAP
C000
C000
C000
CF80
DFC0
F0E0
E070
C030
C030
C030
C030
C030
C030
C030
C070
0060
00E0
01C0
3F80
3E00
ENDCHAR
STARTCHAR 03E7
ENCODING 999
SWIDTH 585 0
DWIDTH 13 0
BBX 10 16 1 -4
BITMAP
C000
C000
CF00
DF80
F180
E0C0
C0C0
C0C0
C0C0
C0C0
C0C0
C180
0180
0300
3E00
3C00
ENDCHAR
STARTCHAR 03E8
ENCODING 1000
SWIDTH 585 0
DWIDTH 13 0
BBX 11 16 1 0
BITMAP
7F80
7FC0
00E0
0060
0060
00E0
01C0
0780
3E00
F800
C000
E000
7800
1C00
0FE0
03E0
ENDCHAR
STARTCHAR 03E9
ENCODING 1001
SWIDTH 450 0
DWIDTH 10 0
BBX 8 16 0 -4
BITMAP
7C
7E
07
03
03
03
07
06
0E
3C
F0
C0
E0
70
3F
0F
ENDCHAR
STARTCHAR 03EA
ENCODING 1002
SWIDTH 630 0
DWIDTH 14 0
BBX 13 15 1 1
BITMAP
F030
F860
18C0
0D80
0780
0700
0700
0D80
1DC0
18C0
3060
6030
C038
FFF8
FFF8
ENDCHAR
STARTCHAR 03EB
ENCODING 1003
SWIDTH 585 0
DWIDTH 13 0
BBX 11 12 1 0
BITMAP
70C0
7980
1B00
0E00
0E00
0E00
1B00
3180
60C0
C0E0
FFE0
FFE0
ENDCHAR
STARTCHAR 03EC
ENCODING 1004
SWIDTH 675 0
DWIDTH 15 0
BBX 13 16 1 0
BITMAP
07E0
1FF0
3810
6000
6FC0
DFE0
F070
E038
C018
C018
C018
C018
6038
7070
3FE0
0FC0
ENDCHAR
STARTCHAR 03ED
ENCODING 1005
SWIDTH 630 0
DWIDTH 14 0
BBX 11 17 1 0
BITMAP
0F80
1FC0
3040
6000
6000
4000
DF00
FFC0
E0C0
C060
C060
C060
C060
60E0
71C0
3F80
1F00
ENDCHAR
STARTCHAR 03EE
ENCODING 1006
SWIDTH 630 0
DWIDTH 14 0
BBX 14 15 0 1
BITMAP
0300
0300
0300
FFFC
FFFC
0300
0300
0300
0300
0300
0300
0300
0300
0300
0300
ENDCHAR
STARTCHAR 03EF
ENCODING 1007
SWIDTH 540 0
DWIDTH 12 0
BBX 10 21 1 -4
BITMAP
0C00
0C00
0C00
0C00
0C00
FFC0
FFC0
0C00
0C00
0C00
0C00
0C00
0C00
0C00
0C00
0C00
0C00
0C00
0C00
0C00
0C00
ENDCHAR
STARTCHAR 03F0
ENCODING 1008
SWIDTH 540 0
DWIDTH 12 0
BBX 11 12 0 0
BITMAP
E060
F0E0
31C0
31C0
3380
3780
3D80
3980
7180
7180
E0E0
C0E0
ENDCHAR
STARTCHAR 03F1
ENCODING 1009
SWIDTH 585 0
DWIDTH 13 0
BBX 10 16 2 -4
BITMAP
1F00
3F80
61C0
E0C0
C0C0
C0C0
C0C0
C180
C380
FF00
DE00
C000
6000
7000
3FC0
1FC0
ENDCHAR
STARTCHAR 03F2
ENCODING 1010
SWIDTH 495 0
DWIDTH 11 0
BBX 8 12 1 0
BITMAP
1E
7F
71
E0
C0
C0
C0
C0
E0
71
7F
1E
ENDCHAR
STARTCHAR 03F3
ENCODING 1011
SWIDTH 315 0
DWIDTH 7 0
BBX 6 20 -1 -4
BITMAP
0C
0C
00
00
0C
0C
0C
0C
0C
0C
0C
0C
0C
0C
0C
0C
0C
8C
F8
70
ENDCHAR
STARTCHAR 0401
ENCODING 1025
SWIDTH 540 0
DWIDTH 12 0
BBX 10 19 2 0
BITMAP
3300
3300
0000
FFC0
FFC0
C000
C000
C000
C000
C000
FF00
FF00
C000
C000
C000
C000
C000
FFC0
FFC0
ENDCHAR
STARTCHAR 0402
ENCODING 1026
SWIDTH 765 0
DWIDTH 17 0
BBX 16 16 0 0
BITMAP
FFF0
FFF0
0600
0600
0600
0600
06F8
07FE
0706
0603
0603
0603
0603
0606
063E
0638
ENDCHAR
STARTCHAR 0403
ENCODING 1027
SWIDTH 495 0
DWIDTH 11 0
BBX 9 19 2 1
BITMAP
0600
0C00
1800
0000
FF80
FF80
C000
C000
C000
C000
C000
C000
C000
C000
C000
C000
C000
C000
C000
ENDCHAR
STARTCHAR 0404
ENCODING 1028
SWIDTH 675 0
DWIDTH 15 0
BBX 13 16 1 0
BITMAP
07E0
1FF8
3818
7000
6000
C000
C000
FFC0
FFC0
C000
C000
6000
7000
3818
1FF8
07E0
ENDCHAR
STARTCHAR 0405
ENCODING 1029
SWIDTH 540 0
DWIDTH 12 0
BBX 10 16 1 0
BITMAP
3F00
7F80
E080
C000
C000
E000
7800
3E00
0F00
0380
01C0
00C0
00C0
C1C0
FF80
7E00
ENDCHAR
STARTCHAR 0406
ENCODING 1030
SWIDTH 270 0
DWIDTH 6 0
BBX 2 16 2 0
BITMAP
C0
C0
C0
C0
C0
C0
C0
C0
C0
C0
C0
C0
C0
C0
C0
C0
ENDCHAR
STARTCHAR 0407
ENCODING 1031
SWIDTH 270 0
DWIDTH 6 0
BBX 6 19 0 0
BITMAP
CC
CC
00
30
30
30
30
30
30
30
30
30
30
30
30
30
30
30
30
ENDCHAR
STARTCHAR 0408
ENCODING 1032
SWIDTH 315 0
DWIDTH 7 0
BBX 5 19 0 -3
BITMAP
18
18
18
18
18
18
18
18
18
18
18
18
18
18
18
18
18
F0
F0
ENDCHAR
STARTCHAR 0409
ENCODING 1033
SWIDTH 945 0
DWIDTH 21 0
BBX 20 16 0 0
BITMAP
0FF800
0FF800
0C1800
0C1800
0C1800
0C1800
0C1800
0C1F80
0C1FE0
0C1870
0C1830
1C1830
181830
381870
F01FE0
C01F80
ENDCHAR
STARTCHAR 040A
ENCODING 1034
SWIDTH 945 0
DWIDTH 21 0
BBX 18 16 2 0
BITMAP
C06000
C06000
C06000
C06000
C06000
C06000
C06000
FFFE00
FFFF80
C061C0
C060C0
C060C0
C060C0
C061C0
C07F80
C07E00
ENDCHAR
STARTCHAR 040B
ENCODING 1035
SWIDTH 765 0
DWIDTH 17 0
BBX 16 16 0 0
BITMAP
FFF0
FFF0
0600
0600
0600
067C
07FE
0787
0603
0603
0603
0603
0603
0603
0603
0603
ENDCHAR
STARTCHAR 040C
ENCODING 1036
SWIDTH 630 0
DWIDTH 14 0
BBX 11 20 2 0
BITMAP
0600
0C00
1800
0000
C0C0
C1C0
C380
C300
C600
CE00
CC00
F800
FE00
C600
C300
C380
C180
C1C0
C0C0
C0E0
ENDCHAR
STARTCHAR 040E
ENCODING 1038
SWIDTH 630 0
DWIDTH 14 0
BBX 13 20 1 0
BITMAP
18C0
18C0
0F80
0000
C018
6030
6030
3060
3060
18C0
18C0
0D80
0D80
0700
0700
0600
0E00
0C00
7800
7000
ENDCHAR
STARTCHAR 040F
ENCODING 1039
SWIDTH 720 0
DWIDTH 16 0
BBX 12 19 2 -3
BITMAP
C030
C030
C030
C030
C030
C030
C030
C030
C030
C030
C030
C030
C030
C030
FFF0
FFF0
0600
0600
0600
ENDCHAR
STARTCHAR 0410
ENCODING 1040
SWIDTH 675 0
DWIDTH 15 0
BBX 15 16 0 0
BITMAP
0380
0380
0380
06C0
06C0
0C60
0C60
0C70
1830
1830
3FF8
3FF8
701C
600C
600C
C006
ENDCHAR
STARTCHAR 0411
ENCODING 1041
SWIDTH 585 0
DWIDTH 13 0
BBX 10 16 2 0
BITMAP
FF80
FF80
C000
C000
C000
C000
C000
FE00
FF80
C1C0
C0C0
C0C0
C0C0
C380
FF80
FE00
ENDCHAR
STARTCHAR 0412
ENCODING 1042
SWIDTH 585 0
DWIDTH 13 0
BBX 10 16 2 0
BITMAP
FE00
FF00
C380
C180
C180
C180
C700
FE00
FE00
C380
C1C0
C0C0
C0C0
C1C0
FF80
FF00
ENDCHAR
STARTCHAR 0413
ENCODING 1043
SWIDTH 495 0
DWIDTH 11 0
BBX 9 15 2 1
BITMAP
FF80
FF80
C000
C000
C000
C000
C000
C000
C000
C000
C000
C000
C000
C000
C000
ENDCHAR
STARTCHAR 0414
ENCODING 1044
SWIDTH 765 0
DWIDTH 17 0
BBX 15 19 1 -3
BITMAP
07F8
07F8
0618
0618
0618
0618
0618
0C18
0C18
0C18
1818
1818
3018
3018
FFFE
FFFE
C006
C006
C006
ENDCHAR
STARTCHAR 0415
ENCODING 1045
SWIDTH 540 0
DWIDTH 12 0
BBX 10 16 2 0
BITMAP
FFC0
FFC0
C000
C000
C000
C000
C000
FF00
FF00
C000
C000
C000
C000
C000
FFC0
FFC0
ENDCHAR
STARTCHAR 0416
ENCODING 1046
SWIDTH 810 0
DWIDTH 18 0
BBX 16 16 1 0
BITMAP
6186
718E
318C
1998
1998
0DB0
0DB0
07E0
0FF0
1998
1998
318C
318C
6186
6186
C183
ENDCHAR
STARTCHAR 0417
ENCODING 1047
SWIDTH 540 0
DWIDTH 12 0
BBX 10 16 1 0
BITMAP
7F00
FF80
81C0
00C0
00C0
00C0
0380
1C00
1F80
03C0
00C0
00C0
00C0
8180
FF80
7E00
ENDCHAR
STARTCHAR 0418
ENCODING 1048
SWIDTH 720 0
DWIDTH 16 0
BBX 12 16 2 0
BITMAP
C030
C070
C0F0
C0F0
C1B0
C1B0
C330
C630
C630
CC30
D830
D830
F030
F030
E030
C030
ENDCHAR
STARTCHAR 0419
ENCODING 1049
SWIDTH 720 0
DWIDTH 16 0
BBX 12 20 2 0
BITMAP
3180
3180
1F00
0000
C030
C070
C0F0
C0F0
C1B0
C1B0
C330
C630
C630
CC30
D830
D830
F030
F030
E030
C030
ENDCHAR
STARTCHAR 041A
ENCODING 1050
SWIDTH 630 0
DWIDTH 14 0
BBX 11 16 2 0
BITMAP
C0C0
C1C0
C380
C300
C600
CE00
CC00
F800
FE00
C600
C300
C380
C180
C1C0
C0C0
C0E0
ENDCHAR
STARTCHAR 041B
ENCODING 1051
SWIDTH 675 0
DWIDTH 15 0
BBX 13 16 0 0
BITMAP
0FF8
0FF8
0C18
0C18
0C18
0C18
0C18
0C18
0C18
0C18
0C18
1C18
1818
3818
F018
C018
ENDCHAR
STARTCHAR 041C
ENCODING 1052
SWIDTH 855 0
DWIDTH 19 0
BBX 15 16 2 0
BITMAP
E00E
F01E
F01E
F01E
D836
D836
D836
CC66
CC66
CC66
C6C6
C6C6
C6C6
C386
C386
C006
ENDCHAR
STARTCHAR 041D
ENCODING 1053
SWIDTH 720 0
DWIDTH 16 0
BBX 12 16 2 0
BITMAP
C030
C030
C030
C030
C030
C030
C030
FFF0
FFF0
C030
C030
C030
C030
C030
C030
C030
ENDCHAR
STARTCHAR 041E
ENCODING 1054
SWIDTH 765 0
DWIDTH 17 0
BBX 15 16 1 0
BITMAP
07C0
1FF0
3838
701C
600C
C006
C006
C006
C006
C006
C006
600C
701C
3838
1FF0
07C0
ENDCHAR
STARTCHAR 041F
ENCODING 1055
SWIDTH 720 0
DWIDTH 16 0
BBX 12 15 2 1
BITMAP
FFF0
FFF0
C030
C030
C030
C030
C030
C030
C030
C030
C030
C030
C030
C030
C030
ENDCHAR
STARTCHAR 0420
ENCODING 1056
SWIDTH 540 0
DWIDTH 12 0
BBX 10 16 2 0
BITMAP
FF00
FF80
C1C0
C0C0
C0C0
C0C0
C380
FF00
FC00
C000
C000
C000
C000
C000
C000
C000
ENDCHAR
STARTCHAR 0421
ENCODING 1057
SWIDTH 675 0
DWIDTH 15 0
BBX 13 16 1 0
BITMAP
07E0
1FF8
3818
7000
6000
C000
C000
C000
C000
C000
C000
6000
7000
3818
1FF8
07F0
ENDCHAR
STARTCHAR 0422
ENCODING 1058
SWIDTH 630 0
DWIDTH 14 0
BBX 14 16 0 0
BITMAP
FFFC
FFFC
0300
0300
0300
0300
0300
0300
0300
0300
0300
0300
0300
0300
0300
0300
ENDCHAR
STARTCHAR 0423
ENCODING 1059
SWIDTH 630 0
DWIDTH 14 0
BBX 13 16 1 0
BITMAP
C018
6030
6030
3060
3060
18C0
18C0
0D80
0D80
0700
0700
0600
0E00
0C00
7800
7000
ENDCHAR
STARTCHAR 0424
ENCODING 1060
SWIDTH 675 0
DWIDTH 15 0
BBX 12 16 1 0
BITMAP
0600
0600
1F80
3FC0
6660
E670
C630
C630
C630
C630
E670
6660
3FC0
1F80
0600
0600
ENDCHAR
STARTCHAR 0425
ENCODING 1061
SWIDTH 630 0
DWIDTH 14 0
BBX 14 16 0 0
BITMAP
C00C
6018
3030
3830
1860
0CC0
0780
0780
0780
0780
0CC0
1860
3070
3030
6018
C00C
ENDCHAR
STARTCHAR 0426
ENCODING 1062
SWIDTH 765 0
DWIDTH 17 0
BBX 14 19 2 -3
BITMAP
C030
C030
C030
C030
C030
C030
C030
C030
C030
C030
C030
C030
C030
C030
FFFC
FFFC
000C
000C
000C
ENDCHAR
STARTCHAR 0427
ENCODING 1063
SWIDTH 630 0
DWIDTH 14 0
BBX 11 16 1 0
BITMAP
C060
C060
C060
C060
C060
C060
C060
C060
E0E0
7FE0
3F60
0060
0060
0060
0060
0060
ENDCHAR
STARTCHAR 0428
ENCODING 1064
SWIDTH 945 0
DWIDTH 21 0
BBX 16 16 2 0
BITMAP
C183
C183
C183
C183
C183
C183
C183
C183
C183
C183
C183
C183
C183
C183
FFFF
FFFF
ENDCHAR
STARTCHAR 0429
ENCODING 1065
SWIDTH 990 0
DWIDTH 22 0
BBX 18 19 2 -3
BITMAP
C18300
C18300
C18300
C18300
C18300
C18300
C18300
C18300
C18300
C18300
C18300
C18300
C18300
C18300
FFFFC0
FFFFC0
0000C0
0000C0
0000C0
ENDCHAR
STARTCHAR 042A
ENCODING 1066
SWIDTH 675 0
DWIDTH 15 0
BBX 14 16 0 0
BITMAP
FE00
FE00
0600
0600
0600
0600
0600
07F0
07F8
061C
060C
060C
060C
061C
07F8
07E0
ENDCHAR
STARTCHAR 042B
ENCODING 1067
SWIDTH 810 0
DWIDTH 18 0
BBX 14 16 2 0
BITMAP
C00C
C00C
C00C
C00C
C00C
C00C
C00C
FE0C
FF8C
C1CC
C0CC
C0CC
C0CC
C38C
FF8C
FE0C
ENDCHAR
STARTCHAR 042C
ENCODING 1068
SWIDTH 585 0
DWIDTH 13 0
BBX 10 16 2 0
BITMAP
C000
C000
C000
C000
C000
C000
C000
FE00
FF80
C1C0
C0C0
C0C0
C0C0
C380
FF80
FE00
ENDCHAR
STARTCHAR 042D
ENCODING 1069
SWIDTH 675 0
DWIDTH 15 0
BBX 13 16 1 0
BITMAP
3F00
FFC0
C0E0
0070
0030
0018
0018
1FF8
1FF8
0018
0018
0030
0070
C0E0
FFC0
7F00
ENDCHAR
STARTCHAR 042E
ENCODING 1070
SWIDTH 945 0
DWIDTH 21 0
BBX 18 16 2 0
BITMAP
C07C00
C1FF00
C38380
C30180
C701C0
C600C0
C600C0
FE00C0
FE00C0
C600C0
C600C0
C701C0
C30180
C38380
C1FF00
C07C00
ENDCHAR
STARTCHAR 042F
ENCODING 1071
SWIDTH 630 0
DWIDTH 14 0
BBX 12 16 0 0
BITMAP
0FF0
1FF0
3830
3030
3030
3030
1C30
0FF0
03F0
0630
0C30
1C30
3830
3030
6030
E030
ENDCHAR
STARTCHAR 0430
ENCODING 1072
SWIDTH 540 0
DWIDTH 12 0
BBX 11 12 1 0
BITMAP
3F00
7F80
4180
0180
0180
1F80
7F80
E180
C180
C380
7FE0
3CE0
ENDCHAR
STARTCHAR 0431
ENCODING 1073
SWIDTH 585 0
DWIDTH 13 0
BBX 10 18 1 0
BITMAP
0080
1F80
3F00
7000
6000
E000
CF00
DF80
F180
E0C0
C0C0
C0C0
C0C0
C0C0
61C0
6180
3F00
1E00
ENDCHAR
STARTCHAR 0432
ENCODING 1074
SWIDTH 540 0
DWIDTH 12 0
BBX 9 12 1 0
BITMAP
FE00
FF00
C180
C180
C300
FE00
FF00
C380
C180
C180
FF00
FE00
ENDCHAR
STARTCHAR 0433
ENCODING 1075
SWIDTH 495 0
DWIDTH 11 0
BBX 9 12 1 0
BITMAP
FF80
FF80
C000
C000
C000
C000
C000
C000
C000
C000
C000
C000
ENDCHAR
STARTCHAR 0434
ENCODING 1076
SWIDTH 675 0
DWIDTH 15 0
BBX 13 15 1 -3
BITMAP
1FE0
1FE0
1860
1860
1860
1860
3060
3060
3060
6060
FFF8
FFF8
C018
C018
C018
ENDCHAR
STARTCHAR 0435
ENCODING 1077
SWIDTH 540 0
DWIDTH 12 0
BBX 9 12 1 0
BITMAP
1E00
7F00
7300
E180
C180
FF80
FF80
C000
E000
7080
3F80
1F00
ENDCHAR
STARTCHAR 0436
ENCODING 1078
SWIDTH 720 0
DWIDTH 16 0
BBX 14 12 1 0
BITMAP
6318
7338
3330
3B60
1B60
0FC0
1FE0
3330
3330
6318
6318
C30C
ENDCHAR
STARTCHAR 0437
ENCODING 1079
SWIDTH 495 0
DWIDTH 11 0
BBX 9 12 1 0
BITMAP
7E00
FF00
8380
0180
0380
1F00
1F00
0380
0180
8380
FF00
7E00
ENDCHAR
STARTCHAR 0438
ENCODING 1080
SWIDTH 630 0
DWIDTH 14 0
BBX 11 12 1 0
BITMAP
C060
C0E0
C1E0
C360
C360
C660
CC60
D860
D860
F060
E060
C060
ENDCHAR
STARTCHAR 0439
ENCODING 1081
SWIDTH 630 0
DWIDTH 14 0
BBX 11 17 1 0
BITMAP
3180
3180
1F00
0000
0000
C060
C0E0
C1E0
C360
C360
C660
CC60
D860
D860
F060
E060
C060
ENDCHAR
STARTCHAR 043A
ENCODING 1082
SWIDTH 540 0
DWIDTH 12 0
BBX 10 12 1 0
BITMAP
C180
C380
C600
CC00
D800
F000
F800
CC00
C600
C300
C180
C0C0
ENDCHAR
STARTCHAR 043B
ENCODING 1083
SWIDTH 585 0
DWIDTH 13 0
BBX 11 12 0 0
BITMAP
1FE0
1FE0
1860
1860
1860
1860
1860
1860
3060
3060
E060
C060
ENDCHAR
STARTCHAR 043C
ENCODING 1084
SWIDTH 720 0
DWIDTH 16 0
BBX 13 12 1 0
BITMAP
E038
E038
F078
F078
F0D8
D8D8
D8D8
CD98
CD98
CF18
C718
C018
ENDCHAR
STARTCHAR 043D
ENCODING 1085
SWIDTH 630 0
DWIDTH 14 0
BBX 10 12 2 0
BITMAP
C0C0
C0C0
C0C0
C0C0
C0C0
FFC0
FFC0
C0C0
C0C0
C0C0
C0C0
C0C0
ENDCHAR
STARTCHAR 043E
ENCODING 1086
SWIDTH 630 0
DWIDTH 14 0
BBX 11 12 1 0
BITMAP
1F00
7FC0
60C0
C060
C060
C060
C060
C060
C060
60C0
7FC0
1F00
ENDCHAR
STARTCHAR 043F
ENCODING 1087
SWIDTH 630 0
DWIDTH 14 0
BBX 10 12 2 0
BITMAP
FFC0
FFC0
C0C0
C0C0
C0C0
C0C0
C0C0
C0C0
C0C0
C0C0
C0C0
C0C0
ENDCHAR
STARTCHAR 0440
ENCODING 1088
SWIDTH 630 0
DWIDTH 14 0
BBX 11 16 1 -4
BITMAP
CF00
DFC0
F0C0
C060
C060
C060
C060
C060
C060
F0C0
FFC0
CF00
C000
C000
C000
C000
ENDCHAR
STARTCHAR 0441
ENCODING 1089
SWIDTH 495 0
DWIDTH 11 0
BBX 8 12 1 0
BITMAP
1E
7F
71
E0
C0
C0
C0
C0
E0
71
7F
1E
ENDCHAR
STARTCHAR 0442
ENCODING 1090
SWIDTH 495 0
DWIDTH 11 0
BBX 10 12 0 0
BITMAP
FFC0
FFC0
0C00
0C00
0C00
0C00
0C00
0C00
0C00
0C00
0C00
0C00
ENDCHAR
STARTCHAR 0443
ENCODING 1091
SWIDTH 540 0
DWIDTH 12 0
BBX 11 16 1 -4
BITMAP
C060
60C0
60C0
60C0
3180
3180
1B00
1B00
1B00
0E00
0E00
0E00
0C00
1C00
7800
7000
ENDCHAR
STARTCHAR 0444
ENCODING 1092
SWIDTH 765 0
DWIDTH 17 0
BBX 14 21 1 -4
BITMAP
0300
0300
0300
0300
0300
3B70
7FF8
6318
C30C
C30C
C30C
C30C
C30C
C30C
6318
7FF8
3B70
0300
0300
0300
0300
ENDCHAR
STARTCHAR 0445
ENCODING 1093
SWIDTH 630 0
DWIDTH 14 0
BBX 10 12 1 0
BITMAP
C0C0
6180
7180
3300
1E00
0E00
1C00
1E00
3300
6380
6180
C0C0
ENDCHAR
STARTCHAR 0446
ENCODING 1094
SWIDTH 630 0
DWIDTH 14 0
BBX 12 15 1 -3
BITMAP
C0C0
C0C0
C0C0
C0C0
C0C0
C0C0
C0C0
C0C0
C0C0
C0C0
FFF0
FFF0
0030
0030
0030
ENDCHAR
STARTCHAR 0447
ENCODING 1095
SWIDTH 540 0
DWIDTH 12 0
BBX 9 12 1 0
BITMAP
C180
C180
C180
C180
C180
E380
7F80
3D80
0180
0180
0180
0180
ENDCHAR
STARTCHAR 0448
ENCODING 1096
SWIDTH 855 0
DWIDTH 19 0
BBX 14 12 1 0
BITMAP
C30C
C30C
C30C
C30C
C30C
C30C
C30C
C30C
C30C
C30C
FFFC
FFFC
ENDCHAR
STARTCHAR 0449
ENCODING 1097
SWIDTH 855 0
DWIDTH 19 0
BBX 16 15 1 -3
BITMAP
C30C
C30C
C30C
C30C
C30C
C30C
C30C
C30C
C30C
C30C
FFFF
FFFF
0003
0003
0003
ENDCHAR
STARTCHAR 044A
ENCODING 1098
SWIDTH 540 0
DWIDTH 12 0
BBX 11 12 0 0
BITMAP
F800
F800
1800
1800
1800
1F80
1FC0
18E0
1860
18E0
1FC0
1F80
ENDCHAR
STARTCHAR 044B
ENCODING 1099
SWIDTH 720 0
DWIDTH 16 0
BBX 13 12 1 0
BITMAP
C018
C018
C018
C018
C018
FE18
FF18
C398
C198
C398
FF18
FE18
ENDCHAR
STARTCHAR 044C
ENCODING 1100
SWIDTH 495 0
DWIDTH 11 0
BBX 9 12 1 0
BITMAP
C000
C000
C000
C000
C000
FE00
FF00
C380
C180
C380
FF00
FE00
ENDCHAR
STARTCHAR 044D
ENCODING 1101
SWIDTH 495 0
DWIDTH 11 0
BBX 8 12 1 0
BITMAP
78
FE
86
03
03
3F
3F
03
03
86
FE
78
ENDCHAR
STARTCHAR 044E
ENCODING 1102
SWIDTH 810 0
DWIDTH 18 0
BBX 15 12 1 0
BITMAP
C1F0
C3F8
C60C
CE0E
CC06
FC06
FC06
CC06
CE0E
C60C
C3F8
C1F0
ENDCHAR
STARTCHAR 044F
ENCODING 1103
SWIDTH 540 0
DWIDTH 12 0
BBX 9 12 1 0
BITMAP
1F80
3F80
7180
6180
7180
3F80
0F80
1980
3180
7180
6180
C180
ENDCHAR
STARTCHAR 0451
ENCODING 1105
SWIDTH 540 0
DWIDTH 12 0
BBX 9 16 1 0
BITMAP
1980
1980
0000
0000
1E00
7F00
7300
E180
C180
FF80
FF80
C000
E000
7080
3F80
1F00
ENDCHAR
STARTCHAR 0452
ENCODING 1106
SWIDTH 630 0
DWIDTH 14 0
BBX 12 22 0 -5
BITMAP
3000
3000
3000
FF00
FF00
3000
3000
33C0
37E0
3C70
3830
3030
3030
3030
3030
3030
3030
0030
0030
0030
01E0
01C0
ENDCHAR
STARTCHAR 0453
ENCODING 1107
SWIDTH 495 0
DWIDTH 11 0
BBX 9 17 1 0
BITMAP
0600
0C00
1800
0000
0000
FF80
FF80
C000
C000
C000
C000
C000
C000
C000
C000
C000
C000
ENDCHAR
STARTCHAR 0454
ENCODING 1108
SWIDTH 495 0
DWIDTH 11 0
BBX 9 12 1 0
BITMAP
1F00
3F80
6080
C000
C000
FE00
FE00
C000
C000
6080
3F80
1F00
ENDCHAR
STARTCHAR 0455
ENCODING 1109
SWIDTH 495 0
DWIDTH 11 0
BBX 8 12 1 0
BITMAP
3C
7E
C2
C0
E0
7C
1E
07
03
83
FE
7C
ENDCHAR
STARTCHAR 0456
ENCODING 1110
SWIDTH 270 0
DWIDTH 6 0
BBX 2 16 2 0
BITMAP
C0
C0
00
00
C0
C0
C0
C0
C0
C0
C0
C0
C0
C0
C0
C0
ENDCHAR
STARTCHAR 0457
ENCODING 1111
SWIDTH 270 0
DWIDTH 6 0
BBX 6 16 0 0
BITMAP
CC
CC
00
00
30
30
30
30
30
30
30
30
30
30
30
30
ENDCHAR
STARTCHAR 0458
ENCODING 1112
SWIDTH 315 0
DWIDTH 7 0
BBX 4 21 1 -5
BITMAP
30
30
00
00
30
30
30
30
30
30
30
30
30
30
30
30
30
30
30
F0
E0
ENDCHAR
STARTCHAR 0459
ENCODING 1113
SWIDTH 765 0
DWIDTH 17 0
BBX 16 12 0 0
BITMAP
1FC0
1FC0
18C0
18C0
18C0
18FC
18FE
18C7
30C3
70C7
E0FE
C0FC
ENDCHAR
STARTCHAR 045A
ENCODING 1114
SWIDTH 810 0
DWIDTH 18 0
BBX 16 12 1 0
BITMAP
C0C0
C0C0
C0C0
C0C0
C0C0
FFFC
FFFE
C0C7
C0C3
C0C7
C0FE
C0FC
ENDCHAR
STARTCHAR 045B
ENCODING 1115
SWIDTH 630 0
DWIDTH 14 0
BBX 12 17 0 0
BITMAP
3000
3000
3000
FF00
FF00
3000
3000
33C0
37E0
3C30
3830
3030
3030
3030
3030
3030
3030
ENDCHAR
STARTCHAR 045C
ENCODING 1116
SWIDTH 540 0
DWIDTH 12 0
BBX 10 17 1 0
BITMAP
0300
0600
0C00
0000
0000
C180
C380
C600
CC00
D800
F000
F800
CC00
C600
C300
C180
C0C0
ENDCHAR
STARTCHAR 045E
ENCODING 1118
SWIDTH 540 0
DWIDTH 12 0
BBX 11 21 1 -4
BITMAP
3180
3180
1F00
0000
0000
C060
60C0
60C0
60C0
3180
3180
1B00
1B00
1B00
0E00
0E00
0E00
0C00
1C00
7800
7000
ENDCHAR
STARTCHAR 045F
ENCODING 1119
SWIDTH 630 0
DWIDTH 14 0
BBX 10 15 1 -3
BITMAP
C0C0
C0C0
C0C0
C0C0
C0C0
C0C0
C0C0
C0C0
C0C0
C0C0
FFC0
FFC0
0C00
0C00
0C00
ENDCHAR
STARTCHAR 0460
ENCODING 1120
SWIDTH 855 0
DWIDTH 19 0
BBX 18 16 0 0
BITMAP
300300
600180
60C180
60C180
C0C0C0
C0C0C0
C0C0C0
C0C0C0
C0C0C0
C0C0C0
C0C0C0
C1E0C0
61E180
733380
3F3F00
1E1E00
ENDCHAR
STARTCHAR 0461
ENCODING 1121
SWIDTH 675 0
DWIDTH 15 0
BBX 13 12 1 0
BITMAP
6630
C618
C618
C618
C618
C618
C618
4730
6D30
7DF0
38E0
30E0
ENDCHAR
STARTCHAR 0462
ENCODING 1122
SWIDTH 675 0
DWIDTH 15 0
BBX 14 16 0 0
BITMAP
0C00
0C00
FFC0
FFC0
0C00
0C00
0C00
0FE0
0FF8
0C1C
0C0C
0C0C
0C0C
0C38
0FF8
0FE0
ENDCHAR
STARTCHAR 0463
ENCODING 1123
SWIDTH 540 0
DWIDTH 12 0
BBX 11 17 0 0
BITMAP
1800
1800
1800
1800
1800
FF00
FF00
1800
1800
1800
1F80
1FC0
18E0
1860
18E0
1FC0
1F80
ENDCHAR
STARTCHAR 0464
ENCODING 1124
SWIDTH 765 0
DWIDTH 17 0
BBX 14 16 2 0
BITMAP
C1F8
C3FC
C704
C600
CC00
CC00
CC00
FFE0
FFE0
CC00
CC00
CC00
C600
C704
C3FC
C1F8
ENDCHAR
STARTCHAR 0465
ENCODING 1125
SWIDTH 720 0
DWIDTH 16 0
BBX 14 12 1 0
BITMAP
C1F8
C3FC
C704
CE00
CC00
FFF0
FFF0
CC00
CE00
C704
C3FC
C1F8
ENDCHAR
STARTCHAR 0466
ENCODING 1126
SWIDTH 630 0
DWIDTH 14 0
BBX 14 16 0 0
BITMAP
0300
0380
0780
0780
0CC0
0CC0
0860
1860
1030
3030
3FF0
7FF8
6318
C30C
C30C
C30C
ENDCHAR
STARTCHAR 0467
ENCODING 1127
SWIDTH 585 0
DWIDTH 13 0
BBX 12 12 0 0
BITMAP
0600
0600
0F00
0F00
1980
30C0
30C0
7FE0
7FE0
6660
C630
C630
ENDCHAR
STARTCHAR 0468
ENCODING 1128
SWIDTH 855 0
DWIDTH 19 0
BBX 17 16 1 0
BITMAP
C06000
C06000
C0F000
C0F000
C19800
C19800
C30800
C30C00
C60400
FFFE00
FFFE00
CC6300
CC6300
D86180
D86180
D86180
ENDCHAR
STARTCHAR 0469
ENCODING 1129
SWIDTH 810 0
DWIDTH 18 0
BBX 16 12 1 0
BITMAP
C060
C060
C0F0
C0F0
C198
C19C
C30C
FFFE
FFFE
C666
CC63
CC63
ENDCHAR
STARTCHAR 046A
ENCODING 1130
SWIDTH 810 0
DWIDTH 18 0
BBX 16 16 1 0
BITMAP
7FFE
7FFE
6006
300C
1818
0C30
0660
03C0
0FF0
1998
1998
318C
318C
6186
6186
C183
ENDCHAR
STARTCHAR 046B
ENCODING 1131
SWIDTH 675 0
DWIDTH 15 0
BBX 14 12 0 0
BITMAP
7FF8
7FF8
3030
1860
0CC0
0780
1FE0
1FE0
3330
7338
6318
C30C
ENDCHAR
STARTCHAR 046C
ENCODING 1132
SWIDTH 1035 0
DWIDTH 23 0
BBX 20 16 2 0
BITMAP
C7FFE0
C7FFE0
C700E0
C300C0
C18180
C0C300
C06600
FFFE00
FFFF00
C1DB80
C19980
C318C0
C318C0
C61860
C61860
CC1830
ENDCHAR
STARTCHAR 046D
ENCODING 1133
SWIDTH 900 0
DWIDTH 20 0
BBX 18 12 1 0
BITMAP
C7FF80
C7FF80
C30300
C18600
C0CC00
FFF800
FFFC00
C1B600
C33300
C73380
C63180
CC30C0
ENDCHAR
STARTCHAR 046E
ENCODING 1134
SWIDTH 585 0
DWIDTH 13 0
BBX 12 23 0 -4
BITMAP
18C0
0D80
0700
3FC0
3FE0
0070
0030
0030
0030
00E0
1F80
1FC0
00E0
0030
0030
0030
0070
7FE0
FF80
C000
C000
7F00
3F00
ENDCHAR
STARTCHAR 046F
ENCODING 1135
SWIDTH 540 0
DWIDTH 12 0
BBX 9 19 1 -4
BITMAP
6300
3600
1C00
FE00
FF80
0380
0180
0380
7E00
7F00
0380
0180
0180
7F80
FF00
C000
C000
FC00
7C00
ENDCHAR
STARTCHAR 0470
ENCODING 1136
SWIDTH 720 0
DWIDTH 16 0
BBX 16 16 0 0
BITMAP
C307
C307
C30C
C30C
630C
630C
630C
6318
6318
7318
3FF8
1FE0
0300
0300
0300
0300
ENDCHAR
STARTCHAR 0471
ENCODING 1137
SWIDTH 675 0
DWIDTH 15 0
BBX 15 18 0 -4
BITMAP
0300
0300
C306
C30E
C318
C318
6318
6318
6318
6330
6330
7330
3FF0
1FE0
0300
0300
0300
0300
ENDCHAR
STARTCHAR 0472
ENCODING 1138
SWIDTH 765 0
DWIDTH 17 0
BBX 15 16 1 0
BITMAP
07C0
1FF0
3838
600C
600C
C006
FF06
FFFE
C1FE
C006
C006
600C
601C
3838
1FF0
07C0
ENDCHAR
STARTCHAR 0473
ENCODING 1139
SWIDTH 630 0
DWIDTH 14 0
BBX 11 12 1 0
BITMAP
1F00
3F80
60C0
C0E0
C060
FC60
FFE0
C3E0
C060
60C0
3F80
1F00
ENDCHAR
STARTCHAR 0474
ENCODING 1140
SWIDTH 720 0
DWIDTH 16 0
BBX 16 16 0 0
BITMAP
C003
6007
600C
700C
3018
3018
1810
1830
1C30
0C60
0C60
06C0
06C0
0780
0380
0380
ENDCHAR
STARTCHAR 0475
ENCODING 1141
SWIDTH 540 0
DWIDTH 12 0
BBX 12 12 0 0
BITMAP
C030
6070
6060
30C0
30C0
38C0
1980
1D80
0D80
0D80
0700
0700
ENDCHAR
STARTCHAR 0476
ENCODING 1142
SWIDTH 720 0
DWIDTH 16 0
BBX 16 20 0 0
BITMAP
0480
0480
0240
0000
C003
6007
600C
700C
3018
3018
1810
1830
1C30
0C60
0C60
06C0
06C0
0780
0380
0380
ENDCHAR
STARTCHAR 0477
ENCODING 1143
SWIDTH 540 0
DWIDTH 12 0
BBX 12 17 0 0
BITMAP
1200
1200
0900
0000
0000
C030
6070
6060
30C0
30C0
38C0
1980
1D80
0D80
0D80
0700
0700
ENDCHAR
STARTCHAR 0478
ENCODING 1144
SWIDTH 1215 0
DWIDTH 27 0
BBX 26 20 1 -4
BITMAP
0FC00000
1FE00000
38700000
70380000
601981C0
C00CC1C0
C00CC300
C00CE300
C00C6600
C00C6600
C00C3600
60183C00
70381C00
38701C00
1FE01800
0FC01800
00003000
00003000
00003000
00006000
ENDCHAR
STARTCHAR 0479
ENCODING 1145
SWIDTH 1080 0
DWIDTH 24 0
BBX 23 16 1 -4
BITMAP
1F0C0E
3F860E
60C618
E0E718
C06330
C06330
C061B0
C061E0
E0E0E0
60C0E0
3F80C0
1F00C0
000180
000180
000180
000300
ENDCHAR
STARTCHAR 047A
ENCODING 1146
SWIDTH 765 0
DWIDTH 17 0
BBX 16 20 0 -2
BITMAP
0180
0180
07E0
1FF8
399C
700E
6006
C003
C003
C003
C003
C003
C003
6006
700E
399C
1FF8
07E0
0180
0180
ENDCHAR
STARTCHAR 047B
ENCODING 1147
SWIDTH 630 0
DWIDTH 14 0
BBX 12 16 1 -2
BITMAP
0600
0600
1F80
3FC0
76E0
E670
C030
C030
C030
C030
E670
76E0
3FC0
1F80
0600
0600
ENDCHAR
STARTCHAR 047C
ENCODING 1148
SWIDTH 855 0
DWIDTH 19 0
BBX 18 22 0 0
BITMAP
000C00
000C00
03FC00
030000
030000
000000
300300
600180
60C180
60C180
C0C0C0
C0C0C0
C0C0C0
C0C0C0
C0C0C0
C0C0C0
C0C0C0
C1E0C0
61E180
733380
3F3F00
1E1E00
ENDCHAR
STARTCHAR 047D
ENCODING 1149
SWIDTH 675 0
DWIDTH 15 0
BBX 13 19 1 0
BITMAP
00C0
00C0
3FC0
3000
3000
0000
0000
6630
C618
C618
C618
C618
C618
C618
4730
6D30
7DF0
38E0
30E0
ENDCHAR
STARTCHAR 047E
ENCODING 1150
SWIDTH 855 0
DWIDTH 19 0
BBX 18 20 0 0
BITMAP
03F800
024800
024800
000000
300300
600180
60C180
60C180
C0C0C0
C0C0C0
C0C0C0
C0C0C0
C0C0C0
C0C0C0
C0C0C0
C1E0C0
61E180
733380
3F3F00
1E1E00
ENDCHAR
STARTCHAR 047F
ENCODING 1151
SWIDTH 675 0
DWIDTH 15 0
BBX 13 17 1 0
BITMAP
1FC0
1240
1240
0000
0000
6630
C618
C618
C618
C618
C618
C618
4730
6D30
7DF0
38E0
30E0
ENDCHAR
STARTCHAR 0480
ENCODING 1152
SWIDTH 675 0
DWIDTH 15 0
BBX 12 16 1 0
BITMAP
0FE0
3FF0
7810
6000
C000
C000
C000
C000
C000
6000
7810
3FF0
0FF0
0030
0030
0030
ENDCHAR
STARTCHAR 0481
ENCODING 1153
SWIDTH 495 0
DWIDTH 11 0
BBX 8 12 1 0
BITMAP
1E
7F
E1
C0
C0
C0
E1
7F
3F
03
03
03
ENDCHAR
STARTCHAR 0482
ENCODING 1154
SWIDTH 630 0
DWIDTH 14 0
BBX 12 16 1 0
BITMAP
0020
0030
0860
0EC0
0780
01C0
03F0
0630
C600
FC00
3800
1E00
3700
6100
C000
4000
ENDCHAR
STARTCHAR 0483
ENCODING 1155
SWIDTH 585 0
DWIDTH 13 0
BBX 8 5 3 14
BITMAP
03
03
FF
C0
C0
ENDCHAR
STARTCHAR 0484
ENCODING 1156
SWIDTH 585 0
DWIDTH 13 0
BBX 7 3 3 14
BITMAP
3C
E6
86
ENDCHAR
STARTCHAR 0485
ENCODING 1157
SWIDTH 585 0
DWIDTH 13 0
BBX 8 5 3 14
BITMAP
C0
C0
FF
C0
C0
ENDCHAR
STARTCHAR 0486
ENCODING 1158
SWIDTH 585 0
DWIDTH 13 0
BBX 8 5 3 14
BITMAP
03
03
FF
03
03
ENDCHAR
STARTCHAR 0490
ENCODING 1168
SWIDTH 495 0
DWIDTH 11 0
BBX 9 19 2 0
BITMAP
0180
0180
0180
FF80
FF80
C000
C000
C000
C000
C000
C000
C000
C000
C000
C000
C000
C000
C000
C000
ENDCHAR
STARTCHAR 0491
ENCODING 1169
SWIDTH 495 0
DWIDTH 11 0
BBX 10 15 1 0
BITMAP
00C0
00C0
00C0
FFC0
FFC0
C000
C000
C000
C000
C000
C000
C000
C000
C000
C000
ENDCHAR
STARTCHAR 0492
ENCODING 1170
SWIDTH 540 0
DWIDTH 12 0
BBX 11 16 0 0
BITMAP
3FE0
3FE0
3000
3000
3000
3000
3000
FF00
FF00
3000
3000
3000
3000
3000
3000
3000
ENDCHAR
STARTCHAR 0493
ENCODING 1171
SWIDTH 495 0
DWIDTH 11 0
BBX 9 12 1 0
BITMAP
3F80
3F80
3000
3000
3000
FC00
FC00
3000
3000
3000
3000
3000
ENDCHAR
STARTCHAR 0494
ENCODING 1172
SWIDTH 630 0
DWIDTH 14 0
BBX 11 19 2 -3
BITMAP
FF80
FF80
C000
C000
C000
C000
C000
DF00
FFC0
F0C0
C060
C060
C060
C060
C060
C0C0
01C0
0F80
0E00
ENDCHAR
STARTCHAR 0495
ENCODING 1173
SWIDTH 540 0
DWIDTH 12 0
BBX 10 15 1 -3
BITMAP
FF80
FF80
C000
C000
C000
DF00
FF80
E1C0
C0C0
C0C0
C0C0
C0C0
0180
0F80
0E00
ENDCHAR
STARTCHAR 0496
ENCODING 1174
SWIDTH 855 0
DWIDTH 19 0
BBX 18 19 0 -3
BITMAP
618600
718E00
318C00
199800
199800
0DB000
0DB000
07E000
0FF000
199800
199800
318C00
318C00
618600
6187C0
C183C0
0000C0
0000C0
0000C0
ENDCHAR
STARTCHAR 0497
ENCODING 1175
SWIDTH 765 0
DWIDTH 17 0
BBX 15 15 1 -3
BITMAP
6318
7338
3330
3B60
1B60
0FC0
1FF0
3330
3338
6318
631E
C30E
0006
0006
0006
ENDCHAR
STARTCHAR 0498
ENCODING 1176
SWIDTH 540 0
DWIDTH 12 0
BBX 10 21 1 -5
BITMAP
7F00
FF80
81C0
00C0
00C0
00C0
0380
1C00
1F80
03C0
00C0
00C0
00C0
8180
FF80
7E00
0800
1800
0400
0400
1800
ENDCHAR
STARTCHAR 0499
ENCODING 1177
SWIDTH 495 0
DWIDTH 11 0
BBX 9 17 1 -5
BITMAP
7E00
FF00
8380
0180
0380
1F00
1F00
0380
0180
8380
FF00
7E00
0800
1800
0400
0400
1800
ENDCHAR
STARTCHAR 049A
ENCODING 1178
SWIDTH 675 0
DWIDTH 15 0
BBX 12 19 2 -3
BITMAP
C0C0
C1C0
C380
C300
C600
CE00
CC00
F800
FE00
C600
C300
C380
C180
C1C0
C0F0
C070
0030
0030
0030
ENDCHAR
STARTCHAR 049B
ENCODING 1179
SWIDTH 585 0
DWIDTH 13 0
BBX 12 15 1 -3
BITMAP
C0C0
C1C0
C300
C300
C600
FC00
FF00
C300
C180
C1C0
C0F0
C070
0030
0030
0030
ENDCHAR
STARTCHAR 049C
ENCODING 1180
SWIDTH 720 0
DWIDTH 16 0
BBX 14 16 1 0
BITMAP
C018
C038
CC70
CC60
CCC0
CD80
FF00
FFC0
CCE0
CC60
CC70
CC30
CC30
C018
C018
C00C
ENDCHAR
STARTCHAR 049D
ENCODING 1181
SWIDTH 630 0
DWIDTH 14 0
BBX 12 12 1 0
BITMAP
C060
C0E0
D980
D980
DB00
FE00
FF00
DB80
D9C0
D8C0
C060
C070
ENDCHAR
STARTCHAR 049E
ENCODING 1182
SWIDTH 630 0
DWIDTH 14 0
BBX 13 16 0 0
BITMAP
3030
3070
FEE0
FEC0
3180
3180
3300
3E00
3F80
3180
30C0
30E0
3060
3070
3030
3038
ENDCHAR
STARTCHAR 049F
ENCODING 1183
SWIDTH 585 0
DWIDTH 13 0
BBX 12 17 0 0
BITMAP
3000
3000
3000
FF00
FF00
3060
30E0
3180
3180
3300
3E00
3F80
3180
30C0
30C0
3060
3070
ENDCHAR
STARTCHAR 04A0
ENCODING 1184
SWIDTH 720 0
DWIDTH 16 0
BBX 15 16 0 0
BITMAP
FC0C
FC1C
0C30
0C30
0C60
0C60
0CC0
0F80
0FE0
0C60
0C30
0C38
0C18
0C1C
0C0C
0C0E
ENDCHAR
STARTCHAR 04A1
ENCODING 1185
SWIDTH 630 0
DWIDTH 14 0
BBX 13 12 0 0
BITMAP
F830
F870
18C0
18C0
1980
1F00
1FC0
18C0
1860
1860
1830
1838
ENDCHAR
STARTCHAR 04A2
ENCODING 1186
SWIDTH 765 0
DWIDTH 17 0
BBX 14 19 2 -3
BITMAP
C030
C030
C030
C030
C030
C030
C030
FFF0
FFF0
C030
C030
C030
C030
C030
C03C
C03C
000C
000C
000C
ENDCHAR
STARTCHAR 04A3
ENCODING 1187
SWIDTH 630 0
DWIDTH 14 0
BBX 12 15 1 -3
BITMAP
C0C0
C0C0
C0C0
C0C0
C0C0
FFC0
FFC0
C0C0
C0C0
C0C0
C0F0
C0F0
0030
0030
0030
ENDCHAR
STARTCHAR 04A4
ENCODING 1188
SWIDTH 855 0
DWIDTH 19 0
BBX 17 16 2 0
BITMAP
C01F80
C01F80
C01800
C01800
C01800
C01800
C01800
FFF800
FFF800
C01800
C01800
C01800
C01800
C01800
C01800
C01800
ENDCHAR
STARTCHAR 04A5
ENCODING 1189
SWIDTH 720 0
DWIDTH 16 0
BBX 15 12 1 0
BITMAP
C07E
C07E
C060
C060
C060
FFE0
FFE0
C060
C060
C060
C060
C060
ENDCHAR
STARTCHAR 04A6
ENCODING 1190
SWIDTH 1035 0
DWIDTH 23 0
BBX 20 19 2 -3
BITMAP
FFE000
FFE000
C06000
C06000
C06000
C06000
C06000
C06F80
C07FE0
C07860
C06030
C06030
C06030
C06030
C06030
C06060
0000E0
0007C0
000700
ENDCHAR
STARTCHAR 04A7
ENCODING 1191
SWIDTH 855 0
DWIDTH 19 0
BBX 17 15 1 -3
BITMAP
FFC000
FFC000
C0C000
C0C000
C0C000
C0DE00
C0FF00
C0E380
C0C180
C0C180
C0C180
C0C180
000300
000F00
000E00
ENDCHAR
STARTCHAR 04A8
ENCODING 1192
SWIDTH 765 0
DWIDTH 17 0
BBX 16 19 1 -3
BITMAP
07E0
1FE0
3800
7078
60FC
C1CE
C186
C186
C186
C186
C186
60CC
70DC
3878
1FF0
07F8
001C
000F
0007
ENDCHAR
STARTCHAR 04A9
ENCODING 1193
SWIDTH 630 0
DWIDTH 14 0
BBX 13 15 1 -3
BITMAP
1F00
3F00
7000
E1E0
C3F0
C630
C630
C630
E660
73E0
3FC0
1F80
00E0
0078
0018
ENDCHAR
STARTCHAR 04AA
ENCODING 1194
SWIDTH 675 0
DWIDTH 15 0
BBX 13 21 1 -5
BITMAP
07E0
1FF8
3818
7000
6000
C000
C000
C000
C000
C000
C000
6000
7000
3818
1FF8
07F0
0080
0180
0040
0040
0180
ENDCHAR
STARTCHAR 04AB
ENCODING 1195
SWIDTH 495 0
DWIDTH 11 0
BBX 8 17 1 -5
BITMAP
1E
7F
71
E0
C0
C0
C0
C0
E0
71
7F
1E
02
06
01
01
06
ENDCHAR
STARTCHAR 04AC
ENCODING 1196
SWIDTH 630 0
DWIDTH 14 0
BBX 14 19 0 -3
BITMAP
FFFC
FFFC
0300
0300
0300
0300
0300
0300
0300
0300
0300
0300
0300
0300
03C0
03C0
00C0
00C0
00C0
ENDCHAR
STARTCHAR 04AD
ENCODING 1197
SWIDTH 495 0
DWIDTH 11 0
BBX 10 15 0 -3
BITMAP
FFC0
FFC0
0C00
0C00
0C00
0C00
0C00
0C00
0C00
0C00
0F00
0F00
0300
0300
0300
ENDCHAR
STARTCHAR 04AE
ENCODING 1198
SWIDTH 630 0
DWIDTH 14 0
BBX 12 15 1 1
BITMAP
C030
6060
6060
30C0
30C0
1980
1900
0F00
0600
0600
0600
0600
0600
0600
0600
ENDCHAR
STARTCHAR 04AF
ENCODING 1199
SWIDTH 495 0
DWIDTH 11 0
BBX 10 12 0 0
BITMAP
E0C0
6180
3180
3300
1B00
1E00
0C00
0C00
0C00
0C00
0C00
0C00
ENDCHAR
STARTCHAR 04B0
ENCODING 1200
SWIDTH 630 0
DWIDTH 14 0
BBX 13 16 1 0
BITMAP
C018
6030
7060
3060
18C0
1980
0D80
0F00
0600
0600
7FE0
7FE0
0600
0600
0600
0600
ENDCHAR
STARTCHAR 04B1
ENCODING 1201
SWIDTH 495 0
DWIDTH 11 0
BBX 10 12 0 0
BITMAP
E0C0
6180
3180
3300
1B00
1E00
0C00
7F80
7F80
0C00
0C00
0C00
ENDCHAR
STARTCHAR 04B2
ENCODING 1202
SWIDTH 675 0
DWIDTH 15 0
BBX 14 19 0 -3
BITMAP
E018
6030
3060
3860
18C0
0D80
0780
0700
0700
0F80
0DC0
18C0
3060
3070
603C
C01C
000C
000C
000C
ENDCHAR
STARTCHAR 04B3
ENCODING 1203
SWIDTH 630 0
DWIDTH 14 0
BBX 12 15 1 -3
BITMAP
E060
60C0
3180
1900
1F00
0E00
0E00
1B00
1180
31C0
60F0
C070
0030
0030
0030
ENDCHAR
STARTCHAR 04B4
ENCODING 1204
SWIDTH 900 0
DWIDTH 20 0
BBX 19 19 0 -3
BITMAP
FFF180
FFF180
060180
060180
060180
060180
060180
060180
060180
060180
060180
060180
060180
060180
07FFE0
07FFE0
000060
000060
000060
ENDCHAR
STARTCHAR 04B5
ENCODING 1205
SWIDTH 720 0
DWIDTH 16 0
BBX 15 15 0 -3
BITMAP
FF18
FF18
1818
1818
1818
1818
1818
1818
1818
1818
1FFE
1FFE
0006
0006
0006
ENDCHAR
STARTCHAR 04B6
ENCODING 1206
SWIDTH 675 0
DWIDTH 15 0
BBX 13 19 1 -3
BITMAP
C060
C060
C060
C060
C060
C060
C060
C060
E0E0
7FE0
3F60
0060
0060
0060
0078
0078
0018
0018
0018
ENDCHAR
STARTCHAR 04B7
ENCODING 1207
SWIDTH 540 0
DWIDTH 12 0
BBX 11 15 0 -3
BITMAP
C180
C180
C180
C180
C180
E380
7F80
3D80
0180
0180
01E0
01E0
0060
0060
0060
ENDCHAR
STARTCHAR 04B8
ENCODING 1208
SWIDTH 630 0
DWIDTH 14 0
BBX 11 16 1 0
BITMAP
C060
C060
C060
C060
C060
C660
C660
C660
E6E0
7FE0
3F60
0660
0660
0660
0660
0060
ENDCHAR
STARTCHAR 04B9
ENCODING 1209
SWIDTH 540 0
DWIDTH 12 0
BBX 9 12 1 0
BITMAP
C180
C180
C180
CD80
CD80
ED80
7F80
3F80
0D80
0D80
0D80
0180
ENDCHAR
STARTCHAR 04BA
ENCODING 1210
SWIDTH 630 0
DWIDTH 14 0
BBX 11 16 2 0
BITMAP
C000
C000
C000
C000
C000
CF80
FFC0
F0E0
E060
C060
C060
C060
C060
C060
C060
C060
ENDCHAR
STARTCHAR 04BB
ENCODING 1211
SWIDTH 540 0
DWIDTH 12 0
BBX 9 12 1 0
BITMAP
C000
C000
C000
C000
DE00
FF00
E380
C180
C180
C180
C180
C180
ENDCHAR
STARTCHAR 04BC
ENCODING 1212
SWIDTH 810 0
DWIDTH 18 0
BBX 16 16 0 0
BITMAP
00F8
01FC
038E
0706
C603
CC03
CC03
FFFF
3FFF
0C00
0C00
0E00
0600
0781
03FF
00FE
ENDCHAR
STARTCHAR 04BD
ENCODING 1213
SWIDTH 675 0
DWIDTH 15 0
BBX 13 12 0 0
BITMAP
01E0
03F0
C630
CC18
CC18
FFF8
7FF8
0C00
0E00
0708
03F8
01F0
ENDCHAR
STARTCHAR 04BE
ENCODING 1214
SWIDTH 810 0
DWIDTH 18 0
BBX 16 20 0 -4
BITMAP
00F8
01FC
038E
0706
C603
CC03
CC03
FFFF
3FFF
0C00
0C00
0E00
0600
0781
03FF
00FE
0020
0040
0040
0038
ENDCHAR
STARTCHAR 04BF
ENCODING 1215
SWIDTH 675 0
DWIDTH 15 0
BBX 13 16 0 -4
BITMAP
01E0
03F0
C630
CC18
CC18
FFF8
7FF8
0C00
0E00
0708
03F8
01F0
0080
0100
0100
00E0
ENDCHAR
STARTCHAR 04C0
ENCODING 1216
SWIDTH 270 0
DWIDTH 6 0
BBX 2 16 1 0
BITMAP
C0
C0
C0
C0
C0
C0
C0
C0
C0
C0
C0
C0
C0
C0
C0
C0
ENDCHAR
STARTCHAR 04C1
ENCODING 1217
SWIDTH 810 0
DWIDTH 18 0
BBX 16 20 1 0
BITMAP
0C60
0C60
07C0
0000
6186
718E
318C
1998
1998
0DB0
0DB0
07E0
0FF0
1998
1998
318C
318C
6186
6186
C183
ENDCHAR
STARTCHAR 04C2
ENCODING 1218
SWIDTH 720 0
DWIDTH 16 0
BBX 14 17 1 0
BITMAP
18C0
18C0
0F80
0000
0000
6318
7338
3330
3B60
1B60
0FC0
1FE0
3330
3330
6318
6318
C30C
ENDCHAR
STARTCHAR 04C3
ENCODING 1219
SWIDTH 630 0
DWIDTH 14 0
BBX 11 19 2 -3
BITMAP
C060
C0E0
C1C0
C180
C300
C300
C600
FC00
FF80
C3C0
C0C0
C060
C060
C060
C060
C0E0
00C0
0780
0700
ENDCHAR
STARTCHAR 04C4
ENCODING 1220
SWIDTH 540 0
DWIDTH 12 0
BBX 9 15 1 -3
BITMAP
C180
C380
C300
C600
CC00
F800
FE00
C700
C180
C180
C180
C180
0300
0F00
0E00
ENDCHAR
STARTCHAR 04C7
ENCODING 1223
SWIDTH 720 0
DWIDTH 16 0
BBX 12 21 2 -5
BITMAP
C030
C030
C030
C030
C030
C030
C030
FFF0
FFF0
C030
C030
C030
C030
C030
C030
C030
0030
0030
0030
01F0
01E0
ENDCHAR
STARTCHAR 04C8
ENCODING 1224
SWIDTH 630 0
DWIDTH 14 0
BBX 11 17 1 -5
BITMAP
C060
C060
C060
C060
C060
FFE0
FFE0
C060
C060
C060
C060
C060
0060
0060
00E0
07C0
0780
ENDCHAR
STARTCHAR 04CB
ENCODING 1227
SWIDTH 630 0
DWIDTH 14 0
BBX 11 19 1 -3
BITMAP
C060
C060
C060
C060
C060
C060
C060
C060
E0E0
7FE0
3F60
0060
0060
0060
01E0
01E0
0180
0180
0180
ENDCHAR
STARTCHAR 04CC
ENCODING 1228
SWIDTH 540 0
DWIDTH 12 0
BBX 9 15 1 -3
BITMAP
C180
C180
C180
C180
C180
E380
7F80
3D80
0180
0180
0780
0780
0600
0600
0600
ENDCHAR
STARTCHAR 04D0
ENCODING 1232
SWIDTH 675 0
DWIDTH 15 0
BBX 15 20 0 0
BITMAP
0C60
0C60
07C0
0000
0380
0380
0380
06C0
06C0
0C60
0C60
0C70
1830
1830
3FF8
3FF8
701C
600C
600C
C006
ENDCHAR
STARTCHAR 04D1
ENCODING 1233
SWIDTH 540 0
DWIDTH 12 0
BBX 11 17 1 0
BITMAP
6300
6300
3E00
0000
0000
3F00
7F80
4180
0180
0180
1F80
7F80
E180
C180
C380
7FE0
3CE0
ENDCHAR
STARTCHAR 04D2
ENCODING 1234
SWIDTH 675 0
DWIDTH 15 0
BBX 15 19 0 0
BITMAP
0660
0660
0000
0380
0380
0380
06C0
06C0
0C60
0C60
0C70
1830
1830
3FF8
3FF8
701C
600C
600C
C006
ENDCHAR
STARTCHAR 04D3
ENCODING 1235
SWIDTH 540 0
DWIDTH 12 0
BBX 11 16 1 0
BITMAP
3300
3300
0000
0000
3F00
7F80
4180
0180
0180
1F80
7F80
E180
C180
C380
7FE0
3CE0
ENDCHAR
STARTCHAR 04D4
ENCODING 1236
SWIDTH 900 0
DWIDTH 20 0
BBX 20 15 0 1
BITMAP
007FE0
007FE0
00F000
01B000
01B000
033000
063FC0
063FC0
0C3000
1FF000
1FF000
303000
603000
603FF0
C03FF0
ENDCHAR
STARTCHAR 04D5
ENCODING 1237
SWIDTH 855 0
DWIDTH 19 0
BBX 16 12 1 0
BITMAP
3E3C
7F7E
41C6
0183
0183
1FFF
7FFF
E180
C180
C3C1
7E7F
3C3E
ENDCHAR
STARTCHAR 04D6
ENCODING 1238
SWIDTH 540 0
DWIDTH 12 0
BBX 10 20 2 0
BITMAP
6300
6300
3E00
0000
FFC0
FFC0
C000
C000
C000
C000
C000
FF00
FF00
C000
C000
C000
C000
C000
FFC0
FFC0
ENDCHAR
STARTCHAR 04D7
ENCODING 1239
SWIDTH 540 0
DWIDTH 12 0
BBX 9 17 1 0
BITMAP
6300
6300
3E00
0000
0000
1E00
7F00
7300
E180
C180
FF80
FF80
C000
E000
7080
3F80
1F00
ENDCHAR
STARTCHAR 04D8
ENCODING 1240
SWIDTH 675 0
DWIDTH 15 0
BBX 13 16 1 0
BITMAP
7F00
FFC0
C0E0
0070
0030
0018
0018
FFF8
FFF8
C018
C038
C030
6070
70E0
3FC0
1F80
ENDCHAR
STARTCHAR 04D9
ENCODING 1241
SWIDTH 540 0
DWIDTH 12 0
BBX 9 12 2 0
BITMAP
7C00
FE00
8700
0380
0180
FF80
FF80
C180
C180
6300
7F00
3C00
ENDCHAR
STARTCHAR 04DA
ENCODING 1242
SWIDTH 675 0
DWIDTH 15 0
BBX 13 19 1 0
BITMAP
3300
3300
0000
7F00
FFC0
C0E0
0070
0030
0018
0018
FFF8
FFF8
C018
C038
C030
6070
70E0
3FC0
1F80
ENDCHAR
STARTCHAR 04DB
ENCODING 1243
SWIDTH 540 0
DWIDTH 12 0
BBX 9 16 2 0
BITMAP
6600
6600
0000
0000
7C00
FE00
8700
0380
0180
FF80
FF80
C180
C180
6300
7F00
3C00
ENDCHAR
STARTCHAR 04DC
ENCODING 1244
SWIDTH 810 0
DWIDTH 18 0
BBX 16 19 1 0
BITMAP
0660
0660
0000
6186
718E
318C
1998
1998
0DB0
0DB0
07E0
0FF0
1998
1998
318C
318C
6186
6186
C183
ENDCHAR
STARTCHAR 04DD
ENCODING 1245
SWIDTH 720 0
DWIDTH 16 0
BBX 14 16 1 0
BITMAP
0CC0
0CC0
0000
0000
6318
7338
3330
3B60
1B60
0FC0
1FE0
3330
3330
6318
6318
C30C
ENDCHAR
STARTCHAR 04DE
ENCODING 1246
SWIDTH 540 0
DWIDTH 12 0
BBX 10 19 1 0
BITMAP
6600
6600
0000
7F00
FF80
81C0
00C0
00C0
00C0
0380
1C00
1F80
03C0
00C0
00C0
00C0
8180
FF80
7E00
ENDCHAR
STARTCHAR 04DF
ENCODING 1247
SWIDTH 495 0
DWIDTH 11 0
BBX 9 16 1 0
BITMAP
6600
6600
0000
0000
7E00
FF00
8380
0180
0380
1F00
1F00
0380
0180
8380
FF00
7E00
ENDCHAR
STARTCHAR 04E0
ENCODING 1248
SWIDTH 540 0
DWIDTH 12 0
BBX 10 16 1 0
BITMAP
FFC0
FFC0
0180
0300
0600
0C00
1800
3E00
3F80
03C0
00C0
00C0
00C0
81C0
FF80
7E00
ENDCHAR
STARTCHAR 04E1
ENCODING 1249
SWIDTH 495 0
DWIDTH 11 0
BBX 9 16 1 -4
BITMAP
FF80
FF80
0300
0600
1C00
3000
7C00
7F00
0700
0380
0180
0180
0180
8300
FF00
7C00
ENDCHAR
STARTCHAR 04E2
ENCODING 1250
SWIDTH 720 0
DWIDTH 16 0
BBX 12 19 2 0
BITMAP
3F80
3F80
0000
C030
C070
C0F0
C0F0
C1B0
C1B0
C330
C630
C630
CC30
D830
D830
F030
F030
E030
C030
ENDCHAR
STARTCHAR 04E3
ENCODING 1251
SWIDTH 630 0
DWIDTH 14 0
BBX 11 16 1 0
BITMAP
3F80
3F80
0000
0000
C060
C0E0
C1E0
C360
C360
C660
CC60
D860
D860
F060
E060
C060
ENDCHAR
STARTCHAR 04E4
ENCODING 1252
SWIDTH 720 0
DWIDTH 16 0
BBX 12 19 2 0
BITMAP
1980
1980
0000
C030
C070
C0F0
C0F0
C1B0
C1B0
C330
C630
C630
CC30
D830
D830
F030
F030
E030
C030
ENDCHAR
STARTCHAR 04E5
ENCODING 1253
SWIDTH 630 0
DWIDTH 14 0
BBX 11 16 1 0
BITMAP
1980
1980
0000
0000
C060
C0E0
C1E0
C360
C360
C660
CC60
D860
D860
F060
E060
C060
ENDCHAR
STARTCHAR 04E6
ENCODING 1254
SWIDTH 765 0
DWIDTH 17 0
BBX 15 19 1 0
BITMAP
0660
0660
0000
07C0
1FF0
3838
701C
600C
C006
C006
C006
C006
C006
C006
600C
701C
3838
1FF0
07C0
ENDCHAR
STARTCHAR 04E7
ENCODING 1255
SWIDTH 630 0
DWIDTH 14 0
BBX 11 16 1 0
BITMAP
1980
1980
0000
0000
1F00
7FC0
60C0
C060
C060
C060
C060
C060
C060
60C0
7FC0
1F00
ENDCHAR
STARTCHAR 04E8
ENCODING 1256
SWIDTH 765 0
DWIDTH 17 0
BBX 15 16 1 0
BITMAP
07C0
1FF0
3838
701C
600C
C006
C006
FFFE
FFFE
C006
C006
600C
600C
3838
1FF0
07C0
ENDCHAR
STARTCHAR 04E9
ENCODING 1257
SWIDTH 630 0
DWIDTH 14 0
BBX 11 12 1 0
BITMAP
1F00
3F80
60C0
C060
C060
FFE0
FFE0
C060
C060
60C0
3F80
1F00
ENDCHAR
STARTCHAR 04EA
ENCODING 1258
SWIDTH 765 0
DWIDTH 17 0
BBX 15 19 1 0
BITMAP
0660
0660
0000
07C0
1FF0
3838
701C
600C
C006
C006
FFFE
FFFE
C006
C006
600C
600C
3838
1FF0
07C0
ENDCHAR
STARTCHAR 04EB
ENCODING 1259
SWIDTH 630 0
DWIDTH 14 0
BBX 11 16 1 0
BITMAP
1980
1980
0000
0000
1F00
3F80
60C0
C060
C060
FFE0
FFE0
C060
C060
60C0
3F80
1F00
ENDCHAR
STARTCHAR 04EE
ENCODING 1262
SWIDTH 630 0
DWIDTH 14 0
BBX 13 19 1 0
BITMAP
1FC0
1FC0
0000
C018
6030
6030
3060
3060
18C0
18C0
0D80
0D80
0700
0700
0600
0E00
0C00
7800
7000
ENDCHAR
STARTCHAR 04EF
ENCODING 1263
SWIDTH 540 0
DWIDTH 12 0
BBX 11 20 1 -4
BITMAP
3F80
3F80
0000
0000
C060
60C0
60C0
60C0
3180
3180
1B00
1B00
1B00
0E00
0E00
0E00
0C00
1C00
7800
7000
ENDCHAR
STARTCHAR 04F0
ENCODING 1264
SWIDTH 630 0
DWIDTH 14 0
BBX 13 19 1 0
BITMAP
0CC0
0CC0
0000
C018
6030
6030
3060
3060
18C0
18C0
0D80
0D80
0700
0700
0600
0E00
0C00
7800
7000
ENDCHAR
STARTCHAR 04F1
ENCODING 1265
SWIDTH 540 0
DWIDTH 12 0
BBX 11 20 1 -4
BITMAP
1980
1980
0000
0000
C060
60C0
60C0
60C0
3180
3180
1B00
1B00
1B00
0E00
0E00
0E00
0C00
1C00
7800
7000
ENDCHAR
STARTCHAR 04F2
ENCODING 1266
SWIDTH 630 0
DWIDTH 14 0
BBX 13 20 1 0
BITMAP
0330
0660
0CC0
0000
C018
6030
6030
3060
3060
18C0
18C0
0D80
0D80
0700
0700
0600
0E00
0C00
7800
7000
ENDCHAR
STARTCHAR 04F3
ENCODING 1267
SWIDTH 540 0
DWIDTH 12 0
BBX 11 21 1 -4
BITMAP
0CC0
1980
3300
0000
0000
C060
60C0
60C0
60C0
3180
3180
1B00
1B00
1B00
0E00
0E00
0E00
0C00
1C00
7800
7000
ENDCHAR
STARTCHAR 04F4
ENCODING 1268
SWIDTH 630 0
DWIDTH 14 0
BBX 11 19 1 0
BITMAP
1980
1980
0000
C060
C060
C060
C060
C060
C060
C060
C060
E0E0
7FE0
3F60
0060
0060
0060
0060
0060
ENDCHAR
STARTCHAR 04F5
ENCODING 1269
SWIDTH 540 0
DWIDTH 12 0
BBX 9 16 1 0
BITMAP
6600
6600
0000
0000
C180
C180
C180
C180
C180
E380
7F80
3D80
0180
0180
0180
0180
ENDCHAR
STARTCHAR 04F8
ENCODING 1272
SWIDTH 810 0
DWIDTH 18 0
BBX 14 19 2 0
BITMAP
0CC0
0CC0
0000
C00C
C00C
C00C
C00C
C00C
C00C
C00C
FE0C
FF8C
C1CC
C0CC
C0CC
C0CC
C38C
FF8C
FE0C
ENDCHAR
STARTCHAR 04F9
ENCODING 1273
SWIDTH 720 0
DWIDTH 16 0
BBX 13 16 1 0
BITMAP
0CC0
0CC0
0000
0000
C018
C018
C018
C018
C018
FE18
FF18
C398
C198
C398
FF18
FE18
ENDCHAR
STARTCHAR 0591
ENCODING 1425
SWIDTH 0 0
DWIDTH 0 0
BBX 5 4 4 -5
BITMAP
20
20
70
88
ENDCHAR
STARTCHAR 0592
ENCODING 1426
SWIDTH 0 0
DWIDTH 0 0
BBX 3 3 4 14
BITMAP
40
00
A0
ENDCHAR
STARTCHAR 0593
ENCODING 1427
SWIDTH 0 0
DWIDTH 0 0
BBX 5 5 4 14
BITMAP
38
C0
38
E0
38
ENDCHAR
STARTCHAR 0594
ENCODING 1428
SWIDTH 0 0
DWIDTH 0 0
BBX 1 3 5 14
BITMAP
80
00
80
ENDCHAR
STARTCHAR 0595
ENCODING 1429
SWIDTH 0 0
DWIDTH 0 0
BBX 3 3 4 14
BITMAP
A0
80
A0
ENDCHAR
STARTCHAR 0596
ENCODING 1430
SWIDTH 0 0
DWIDTH 0 0
BBX 4 4 5 -5
BITMAP
80
80
80
70
ENDCHAR
STARTCHAR 0597
ENCODING 1431
SWIDTH 0 0
DWIDTH 0 0
BBX 3 3 5 14
BITMAP
40
E0
40
ENDCHAR
STARTCHAR 0598
ENCODING 1432
SWIDTH 0 0
DWIDTH 0 0
BBX 5 4 4 14
BITMAP
48
A8
A8
90
ENDCHAR
STARTCHAR 0599
ENCODING 1433
SWIDTH 0 0
DWIDTH 0 0
BBX 4 5 0 14
BITMAP
E0
10
10
10
10
ENDCHAR
STARTCHAR 059A
ENCODING 1434
SWIDTH 0 0
DWIDTH 0 0
BBX 5 5 6 -6
BITMAP
08
38
C0
38
08
ENDCHAR
STARTCHAR 059B
ENCODING 1435
SWIDTH 0 0
DWIDTH 0 0
BBX 5 4 5 -5
BITMAP
88
08
08
70
ENDCHAR
STARTCHAR 059C
ENCODING 1436
SWIDTH 0 0
DWIDTH 0 0
BBX 4 5 5 14
BITMAP
70
80
80
80
80
ENDCHAR
STARTCHAR 059D
ENCODING 1437
SWIDTH 0 0
DWIDTH 0 0
BBX 4 5 9 14
BITMAP
70
80
80
80
80
ENDCHAR
STARTCHAR 059E
ENCODING 1438
SWIDTH 0 0
DWIDTH 0 0
BBX 6 5 4 14
BITMAP
6C
90
90
90
90
ENDCHAR
STARTCHAR 059F
ENCODING 1439
SWIDTH 0 0
DWIDTH 0 0
BBX 11 5 1 14
BITMAP
60C0
9120
9120
71C0
0A00
ENDCHAR
STARTCHAR 05A0
ENCODING 1440
SWIDTH 0 0
DWIDTH 0 0
BBX 5 5 4 14
BITMAP
30
48
48
70
80
ENDCHAR
STARTCHAR 05A1
ENCODING 1441
SWIDTH 0 0
DWIDTH 0 0
BBX 5 5 2 14
BITMAP
88
88
88
F0
80
ENDCHAR
STARTCHAR 05A3
ENCODING 1443
SWIDTH 0 0
DWIDTH 0 0
BBX 5 4 4 -5
BITMAP
08
08
08
F8
ENDCHAR
STARTCHAR 05A4
ENCODING 1444
SWIDTH 0 0
DWIDTH 0 0
BBX 5 5 3 -6
BITMAP
08
38
C0
38
08
ENDCHAR
STARTCHAR 05A5
ENCODING 1445
SWIDTH 0 0
DWIDTH 0 0
BBX 4 4 4 -5
BITMAP
10
10
10
E0
ENDCHAR
STARTCHAR 05A6
ENCODING 1446
SWIDTH 0 0
DWIDTH 0 0
BBX 6 4 3 -5
BITMAP
24
24
24
D8
ENDCHAR
STARTCHAR 05A7
ENCODING 1447
SWIDTH 0 0
DWIDTH 0 0
BBX 3 4 5 -5
BITMAP
60
80
60
C0
ENDCHAR
STARTCHAR 05A8
ENCODING 1448
SWIDTH 0 0
DWIDTH 0 0
BBX 4 5 5 14
BITMAP
E0
10
10
10
10
ENDCHAR
STARTCHAR 05A9
ENCODING 1449
SWIDTH 0 0
DWIDTH 0 0
BBX 5 5 0 14
BITMAP
60
90
90
70
08
ENDCHAR
STARTCHAR 05AA
ENCODING 1450
SWIDTH 0 0
DWIDTH 0 0
BBX 5 4 4 -5
BITMAP
88
70
20
20
ENDCHAR
STARTCHAR 05AB
ENCODING 1451
SWIDTH 0 0
DWIDTH 0 0
BBX 5 5 3 14
BITMAP
08
38
C0
38
08
ENDCHAR
STARTCHAR 05AC
ENCODING 1452
SWIDTH 0 0
DWIDTH 0 0
BBX 5 4 5 14
BITMAP
08
08
08
F8
ENDCHAR
STARTCHAR 05AD
ENCODING 1453
SWIDTH 0 0
DWIDTH 0 0
BBX 4 4 9 -5
BITMAP
80
80
80
70
ENDCHAR
STARTCHAR 05AE
ENCODING 1454
SWIDTH 0 0
DWIDTH 0 0
BBX 5 4 -3 14
BITMAP
48
A8
A8
90
ENDCHAR
STARTCHAR 05AF
ENCODING 1455
SWIDTH 0 0
DWIDTH 0 0
BBX 5 5 4 14
BITMAP
70
88
88
88
70
ENDCHAR
STARTCHAR 05B0
ENCODING 1456
SWIDTH 0 0
DWIDTH 0 0
BBX 1 3 6 -4
BITMAP
80
00
80
ENDCHAR
STARTCHAR 05B1
ENCODING 1457
SWIDTH 0 0
DWIDTH 0 0
BBX 5 3 4 -4
BITMAP
A8
00
48
ENDCHAR
STARTCHAR 05B2
ENCODING 1458
SWIDTH 0 0
DWIDTH 0 0
BBX 8 3 3 -4
BITMAP
FD
00
01
ENDCHAR
STARTCHAR 05B3
ENCODING 1459
SWIDTH 0 0
DWIDTH 0 0
BBX 7 3 3 -4
BITMAP
FA
20
22
ENDCHAR
STARTCHAR 05B4
ENCODING 1460
SWIDTH 0 0
DWIDTH 0 0
BBX 1 1 6 -2
BITMAP
80
ENDCHAR
STARTCHAR 05B5
ENCODING 1461
SWIDTH 0 0
DWIDTH 0 0
BBX 3 1 5 -2
BITMAP
A0
ENDCHAR
STARTCHAR 05B6
ENCODING 1462
SWIDTH 0 0
DWIDTH 0 0
BBX 3 3 5 -4
BITMAP
A0
00
40
ENDCHAR
STARTCHAR 05B7
ENCODING 1463
SWIDTH 0 0
DWIDTH 0 0
BBX 6 1 4 -2
BITMAP
FC
ENDCHAR
STARTCHAR 05B8
ENCODING 1464
SWIDTH 0 0
DWIDTH 0 0
BBX 5 4 5 -5
BITMAP
F8
20
20
20
ENDCHAR
STARTCHAR 05B9
ENCODING 1465
SWIDTH 0 0
DWIDTH 0 0
BBX 1 1 -1 14
BITMAP
80
ENDCHAR
STARTCHAR 05BB
ENCODING 1467
SWIDTH 0 0
DWIDTH 0 0
BBX 5 3 4 -4
BITMAP
80
20
08
ENDCHAR
STARTCHAR 05BC
ENCODING 1468
SWIDTH 0 0
DWIDTH 0 0
BBX 2 2 5 5
BITMAP
C0
C0
ENDCHAR
STARTCHAR 05BD
ENCODING 1469
SWIDTH 0 0
DWIDTH 0 0
BBX 1 4 6 -5
BITMAP
80
80
80
80
ENDCHAR
STARTCHAR 05BE
ENCODING 1470
SWIDTH 360 0
DWIDTH 8 0
BBX 6 2 1 10
BITMAP
7C
F8
ENDCHAR
STARTCHAR 05BF
ENCODING 1471
SWIDTH 0 0
DWIDTH 0 0
BBX 6 1 2 14
BITMAP
FC
ENDCHAR
STARTCHAR 05C0
ENCODING 1472
SWIDTH 270 0
DWIDTH 6 0
BBX 1 12 2 0
BITMAP
80
80
80
80
80
80
80
80
80
80
80
80
ENDCHAR
STARTCHAR 05C1
ENCODING 1473
SWIDTH 0 0
DWIDTH 0 0
BBX 1 1 13 14
BITMAP
80
ENDCHAR
STARTCHAR 05C2
ENCODING 1474
SWIDTH 0 0
DWIDTH 0 0
BBX 1 1 2 14
BITMAP
80
ENDCHAR
STARTCHAR 05C3
ENCODING 1475
SWIDTH 270 0
DWIDTH 6 0
BBX 2 12 2 0
BITMAP
C0
C0
00
00
00
00
00
00
00
00
C0
C0
ENDCHAR
STARTCHAR 05C4
ENCODING 1476
SWIDTH 0 0
DWIDTH 0 0
BBX 1 1 5 14
BITMAP
80
ENDCHAR
STARTCHAR 05D0
ENCODING 1488
SWIDTH 630 0
DWIDTH 14 0
BBX 12 12 1 0
BITMAP
4060
E060
7060
3C40
3EC0
6780
6380
4180
C0C0
C060
C070
C020
ENDCHAR
STARTCHAR 05D1
ENCODING 1489
SWIDTH 540 0
DWIDTH 12 0
BBX 12 12 0 0
BITMAP
3F00
7FC0
00C0
00C0
00C0
00C0
00C0
00C0
00C0
00C0
7FF0
FFE0
ENDCHAR
STARTCHAR 05D2
ENCODING 1490
SWIDTH 405 0
DWIDTH 9 0
BBX 8 12 0 0
BITMAP
20
78
1C
0C
0C
0E
06
06
1E
36
E7
43
ENDCHAR
STARTCHAR 05D3
ENCODING 1491
SWIDTH 495 0
DWIDTH 11 0
BBX 11 12 0 0
BITMAP
7FE0
FFC0
0180
0180
0180
0180
0180
0180
0180
0180
0180
0180
ENDCHAR
STARTCHAR 05D4
ENCODING 1492
SWIDTH 720 0
DWIDTH 16 0
BBX 13 12 1 0
BITMAP
7FF0
FFF8
0018
0018
0018
3018
3018
3018
3018
3018
3018
3018
ENDCHAR
STARTCHAR 05D5
ENCODING 1493
SWIDTH 315 0
DWIDTH 7 0
BBX 5 12 0 0
BITMAP
60
F0
38
18
18
18
18
18
18
18
18
18
ENDCHAR
STARTCHAR 05D6
ENCODING 1494
SWIDTH 315 0
DWIDTH 7 0
BBX 7 12 0 0
BITMAP
40
F8
3E
1E
30
30
30
30
30
30
30
30
ENDCHAR
STARTCHAR 05D7
ENCODING 1495
SWIDTH 720 0
DWIDTH 16 0
BBX 13 12 1 0
BITMAP
7FF0
FFF8
3018
3018
3018
3018
3018
3018
3018
3018
3018
3018
ENDCHAR
STARTCHAR 05D8
ENCODING 1496
SWIDTH 630 0
DWIDTH 14 0
BBX 12 12 1 0
BITMAP
C1C0
C3E0
C070
C030
4030
6030
6030
6060
60C0
2380
3F00
3C00
ENDCHAR
STARTCHAR 05D9
ENCODING 1497
SWIDTH 315 0
DWIDTH 7 0
BBX 5 8 0 4
BITMAP
60
F0
38
18
18
18
18
30
ENDCHAR
STARTCHAR 05DA
ENCODING 1498
SWIDTH 540 0
DWIDTH 12 0
BBX 10 15 0 -3
BITMAP
7FC0
FFC0
00C0
00C0
00C0
00C0
00C0
00C0
00C0
00C0
00C0
00C0
00C0
00C0
00C0
ENDCHAR
STARTCHAR 05DB
ENCODING 1499
SWIDTH 585 0
DWIDTH 13 0
BBX 10 12 1 0
BITMAP
3F00
7F80
01C0
00C0
00C0
00C0
00C0
00C0
0180
0180
7F80
FF00
ENDCHAR
STARTCHAR 05DC
ENCODING 1500
SWIDTH 540 0
DWIDTH 12 0
BBX 10 17 1 0
BITMAP
C000
C000
C000
C000
C000
FF80
FFC0
01C0
00C0
00C0
00C0
0180
0380
0700
0E00
7800
6000
ENDCHAR
STARTCHAR 05DD
ENCODING 1501
SWIDTH 675 0
DWIDTH 15 0
BBX 12 12 1 0
BITMAP
7FE0
FFF0
3030
3030
3030
3030
3030
3030
3030
3030
3FF0
3FF0
ENDCHAR
STARTCHAR 05DE
ENCODING 1502
SWIDTH 675 0
DWIDTH 15 0
BBX 12 12 1 0
BITMAP
4780
EFE0
7C60
3860
3030
3030
3030
6030
6030
6030
C7F0
C7E0
ENDCHAR
STARTCHAR 05DF
ENCODING 1503
SWIDTH 315 0
DWIDTH 7 0
BBX 5 15 0 -3
BITMAP
60
F0
38
18
18
18
18
18
18
18
18
18
18
18
18
ENDCHAR
STARTCHAR 05E0
ENCODING 1504
SWIDTH 405 0
DWIDTH 9 0
BBX 7 12 0 0
BITMAP
18
3C
0E
06
06
06
06
06
06
06
7E
FC
ENDCHAR
STARTCHAR 05E1
ENCODING 1505
SWIDTH 675 0
DWIDTH 15 0
BBX 14 12 0 0
BITMAP
7FF8
FFFC
301C
300C
300C
300C
3018
1818
1830
18E0
1F80
1E00
ENDCHAR
STARTCHAR 05E2
ENCODING 1506
SWIDTH 585 0
DWIDTH 13 0
BBX 12 13 0 -1
BITMAP
3030
3030
3030
1830
1830
1860
1860
18C0
0DC0
0F80
1F00
FC00
E000
ENDCHAR
STARTCHAR 05E3
ENCODING 1507
SWIDTH 540 0
DWIDTH 12 0
BBX 10 15 0 -3
BITMAP
7000
7F00
5F80
C1C0
C0C0
F0C0
60C0
00C0
00C0
00C0
00C0
00C0
00C0
00C0
00C0
ENDCHAR
STARTCHAR 05E4
ENCODING 1508
SWIDTH 585 0
DWIDTH 13 0
BBX 11 12 0 0
BITMAP
3800
3F80
2FC0
60E0
6060
7860
3060
0060
0060
0060
7FE0
FFC0
ENDCHAR
STARTCHAR 05E5
ENCODING 1509
SWIDTH 495 0
DWIDTH 11 0
BBX 11 15 0 -3
BITMAP
C060
6060
6060
30C0
31C0
1B80
1F00
0E00
0C00
0C00
0C00
0C00
0C00
0C00
0C00
ENDCHAR
STARTCHAR 05E6
ENCODING 1510
SWIDTH 585 0
DWIDTH 13 0
BBX 12 12 0 0
BITMAP
6030
6030
3030
3820
1C60
0EC0
0780
0380
01C0
00E0
7FF0
FFE0
ENDCHAR
STARTCHAR 05E7
ENCODING 1511
SWIDTH 675 0
DWIDTH 15 0
BBX 13 15 1 -3
BITMAP
7FF0
FFF8
0038
0018
0018
3018
3030
3030
3060
31C0
3780
3600
3000
3000
3000
ENDCHAR
STARTCHAR 05E8
ENCODING 1512
SWIDTH 495 0
DWIDTH 11 0
BBX 8 12 1 0
BITMAP
FE
FF
03
03
03
03
03
03
03
03
03
03
ENDCHAR
STARTCHAR 05E9
ENCODING 1513
SWIDTH 720 0
DWIDTH 16 0
BBX 14 12 1 0
BITMAP
C30C
C30C
C30C
C30C
660C
6618
7C18
7830
6070
31C0
3F80
3C00
ENDCHAR
STARTCHAR 05EA
ENCODING 1514
SWIDTH 675 0
DWIDTH 15 0
BBX 13 12 0 0
BITMAP
3FF0
7FF8
1818
1818
1818
1818
1818
1818
0C18
0C18
7C18
F818
ENDCHAR
STARTCHAR 05F0
ENCODING 1520
SWIDTH 630 0
DWIDTH 14 0
BBX 12 12 0 0
BITMAP
60C0
F1E0
3870
1830
1830
1830
1830
1830
1830
1830
1830
1830
ENDCHAR
STARTCHAR 05F1
ENCODING 1521
SWIDTH 630 0
DWIDTH 14 0
BBX 12 12 0 0
BITMAP
60C0
F1E0
3870
1830
1830
1830
1830
3030
0030
0030
0030
0030
ENDCHAR
STARTCHAR 05F2
ENCODING 1522
SWIDTH 585 0
DWIDTH 13 0
BBX 11 8 0 4
BITMAP
6180
F3C0
38E0
1860
1860
1860
1860
30C0
ENDCHAR
STARTCHAR 05F3
ENCODING 1523
SWIDTH 270 0
DWIDTH 6 0
BBX 4 5 1 9
BITMAP
70
60
60
C0
C0
ENDCHAR
STARTCHAR 05F4
ENCODING 1524
SWIDTH 495 0
DWIDTH 11 0
BBX 8 5 2 9
BITMAP
77
66
66
CC
CC
ENDCHAR
STARTCHAR 060C
ENCODING 1548
SWIDTH 315 0
DWIDTH 7 0
BBX 3 6 2 0
BITMAP
60
C0
C0
E0
E0
E0
ENDCHAR
STARTCHAR 061B
ENCODING 1563
SWIDTH 315 0
DWIDTH 7 0
BBX 2 12 2 0
BITMAP
40
80
80
C0
C0
00
00
00
00
00
C0
C0
ENDCHAR
STARTCHAR 061F
ENCODING 1567
SWIDTH 450 0
DWIDTH 10 0
BBX 8 16 1 0
BITMAP
3F
7F
E0
C0
E0
78
3C
0E
06
06
06
06
00
00
06
06
ENDCHAR
STARTCHAR 0621
ENCODING 1569
SWIDTH 450 0
DWIDTH 10 0
BBX 8 10 1 0
BITMAP
0F
3F
70
C0
E0
70
3F
3F
FC
C0
ENDCHAR
STARTCHAR 0622
ENCODING 1570
SWIDTH 315 0
DWIDTH 7 0
BBX 7 22 0 0
BITMAP
72
9C
00
00
30
30
30
30
30
30
30
30
30
30
30
30
30
30
30
30
30
30
ENDCHAR
STARTCHAR 0623
ENCODING 1571
SWIDTH 315 0
DWIDTH 7 0
BBX 6 26 0 0
BITMAP
1C
20
40
20
1C
70
80
00
30
30
30
30
30
30
30
30
30
30
30
30
30
30
30
30
30
30
ENDCHAR
STARTCHAR 0624
ENCODING 1572
SWIDTH 450 0
DWIDTH 10 0
BBX 9 24 0 -8
BITMAP
0380
0400
0800
0400
0380
0E00
1000
0000
0E00
1F00
1B80
3180
3180
3180
3F80
1F80
0300
0300
0600
0C00
1800
3000
6000
C000
ENDCHAR
STARTCHAR 0625
ENCODING 1573
SWIDTH 315 0
DWIDTH 7 0
BBX 6 27 0 -9
BITMAP
30
30
30
30
30
30
30
30
30
30
30
30
30
30
30
30
30
30
00
00
1C
20
40
20
1C
70
80
ENDCHAR
STARTCHAR 0626
ENCODING 1574
SWIDTH 945 0
DWIDTH 21 0
BBX 20 22 0 -5
BITMAP
1C0000
200000
400000
200000
1C0000
7000F0
8001F0
000300
000600
000C00
100C00
300C00
200C00
200FF0
6007F0
600030
600060
6000E0
7001C0
380780
1FFE00
07F000
ENDCHAR
STARTCHAR 0627
ENCODING 1575
SWIDTH 315 0
DWIDTH 7 0
BBX 2 18 2 0
BITMAP
C0
C0
C0
C0
C0
C0
C0
C0
C0
C0
C0
C0
C0
C0
C0
C0
C0
C0
ENDCHAR
STARTCHAR 0628
ENCODING 1576
SWIDTH 1035 0
DWIDTH 23 0
BBX 21 15 1 -5
BITMAP
000018
000018
000018
400018
C00018
C00018
C00010
F001F0
7FFFE0
1FFE00
000000
000000
008000
01C000
008000
ENDCHAR
STARTCHAR 0629
ENCODING 1577
SWIDTH 540 0
DWIDTH 12 0
BBX 10 15 1 0
BITMAP
1100
3B80
1100
0000
0000
0C00
1E00
3780
6180
61C0
C0C0
C0C0
E180
FF00
3E00
ENDCHAR
STARTCHAR 062A
ENCODING 1578
SWIDTH 1035 0
DWIDTH 23 0
BBX 21 12 1 0
BITMAP
008800
01DC00
008818
000018
000018
400018
C00018
C00018
C00010
F001F0
7FFFE0
1FFE00
ENDCHAR
STARTCHAR 062B
ENCODING 1579
SWIDTH 1035 0
DWIDTH 23 0
BBX 21 15 1 0
BITMAP
002000
007000
002000
008800
01DC00
008818
000018
000018
400018
C00018
C00018
C00010
F001F0
7FFFE0
1FFE00
ENDCHAR
STARTCHAR 062C
ENCODING 1580
SWIDTH 630 0
DWIDTH 14 0
BBX 12 16 1 -8
BITMAP
FC00
FFF0
03F0
0E00
3800
6000
6080
C1C0
C080
C000
C000
C000
6000
7810
3FF0
0FC0
ENDCHAR
STARTCHAR 062D
ENCODING 1581
SWIDTH 630 0
DWIDTH 14 0
BBX 12 16 1 -8
BITMAP
FC00
FFF0
03F0
0E00
3800
6000
6000
C000
C000
C000
C000
C000
6000
7810
3FF0
0FC0
ENDCHAR
STARTCHAR 062E
ENCODING 1582
SWIDTH 630 0
DWIDTH 14 0
BBX 12 22 1 -8
BITMAP
0200
0700
0200
0000
0000
0000
FC00
FFF0
03F0
0E00
3800
6000
6000
C000
C000
C000
C000
C000
6000
7810
3FF0
0FC0
ENDCHAR
STARTCHAR 062F
ENCODING 1583
SWIDTH 540 0
DWIDTH 12 0
BBX 11 12 0 0
BITMAP
0300
0380
01C0
00C0
00C0
00E0
0060
0060
0060
80E0
FFC0
7F00
ENDCHAR
STARTCHAR 0630
ENCODING 1584
SWIDTH 540 0
DWIDTH 12 0
BBX 11 17 0 0
BITMAP
0100
0380
0100
0000
0000
0300
0380
01C0
00C0
00C0
00E0
0060
0060
0060
80E0
FFC0
7F00
ENDCHAR
STARTCHAR 0631
ENCODING 1585
SWIDTH 405 0
DWIDTH 9 0
BBX 10 16 -2 -8
BITMAP
0600
0300
0380
0180
01C0
00C0
00C0
00C0
0180
0380
0700
0E00
1C00
3800
7000
E000
ENDCHAR
STARTCHAR 0632
ENCODING 1586
SWIDTH 405 0
DWIDTH 9 0
BBX 10 21 -2 -8
BITMAP
0400
0E00
0400
0000
0000
0600
0300
0380
0180
01C0
00C0
00C0
00C0
0180
0380
0700
0E00
1C00
3800
7000
E000
ENDCHAR
STARTCHAR 0633
ENCODING 1587
SWIDTH 1485 0
DWIDTH 33 0
BBX 31 17 1 -7
BITMAP
0000000C
0000000E
00000306
00030306
00030306
00018306
00018306
4001C78C
C001FDFC
C001F8F0
C0018000
C0018000
C0010000
E0070000
781E0000
3FF80000
0FE00000
ENDCHAR
STARTCHAR 0634
ENCODING 1588
SWIDTH 1485 0
DWIDTH 33 0
BBX 31 22 1 -7
BITMAP
00000100
00000380
00000100
00000440
00000EE0
0000044C
0000000E
00000306
00030306
00030306
00018306
00018306
4001C78C
C001FDFC
C001F8F0
C0018000
C0018000
C0010000
E0070000
781E0000
3FF80000
0FE00000
ENDCHAR
STARTCHAR 0635
ENCODING 1589
SWIDTH 1575 0
DWIDTH 35 0
BBX 33 17 1 -7
BITMAP
0000001E00
0000003F00
000000E380
000301C180
0003030180
0001860180
00018C0180
4001F80F00
C001FFFE00
C001BFF000
C001800000
C001800000
C001000000
E007000000
781E000000
3FF8000000
0FE0000000
ENDCHAR
STARTCHAR 0636
ENCODING 1590
SWIDTH 1575 0
DWIDTH 35 0
BBX 33 22 1 -7
BITMAP
0000000400
0000000E00
0000000400
0000000000
0000000000
0000001E00
0000003F00
000000E380
000301C180
0003030180
0001860180
00018C0180
4001F80F00
C001FFFE00
C001BFF000
C001800000
C001800000
C001000000
E007000000
781E000000
3FF8000000
0FE0000000
ENDCHAR
STARTCHAR 0637
ENCODING 1591
SWIDTH 810 0
DWIDTH 18 0
BBX 17 18 0 0
BITMAP
060000
060000
060000
060000
060000
060000
060000
060000
061E00
063F00
06E380
07C180
0F0180
0E0180
0C0180
181F00
FFFE00
FFF000
ENDCHAR
STARTCHAR 0638
ENCODING 1592
SWIDTH 810 0
DWIDTH 18 0
BBX 17 18 0 0
BITMAP
060000
060000
060000
060400
060E00
060400
060000
060000
061E00
063F00
06E380
07C180
0F0180
0E0180
0C0180
181F00
FFFE00
FFF000
ENDCHAR
STARTCHAR 0639
ENCODING 1593
SWIDTH 630 0
DWIDTH 14 0
BBX 12 20 1 -8
BITMAP
07C0
1FC0
3800
3000
3000
3800
1E00
07C0
0FC0
3800
6000
E000
C000
C000
C000
C000
6000
7810
3FF0
0FC0
ENDCHAR
STARTCHAR 063A
ENCODING 1594
SWIDTH 630 0
DWIDTH 14 0
BBX 12 25 1 -8
BITMAP
0080
01C0
0080
0000
0000
07C0
1FC0
3800
3000
3000
3800
1E00
07C0
0FC0
3800
6000
E000
C000
C000
C000
C000
6000
7810
3FF0
0FC0
ENDCHAR
STARTCHAR 0640
ENCODING 1600
SWIDTH 405 0
DWIDTH 9 0
BBX 9 2 0 0
BITMAP
FF80
FF80
ENDCHAR
STARTCHAR 0641
ENCODING 1601
SWIDTH 1260 0
DWIDTH 28 0
BBX 26 19 1 -1
BITMAP
00000100
00000380
00000100
00000000
00000000
00000000
00000300
00000F80
00000DC0
000018C0
000018C0
400018C0
C0001FC0
C0000FC0
C0000080
E0000380
70003F00
7FFFFC00
1FFF8000
ENDCHAR
STARTCHAR 0642
ENCODING 1602
SWIDTH 900 0
DWIDTH 20 0
BBX 19 21 1 -8
BITMAP
000440
000EE0
000440
000000
000000
000700
000F80
000DC0
0018C0
0018C0
0018C0
401FC0
C00FC0
C000C0
C00080
C00180
C00380
E00700
701E00
3FF800
0FE000
ENDCHAR
STARTCHAR 0643
ENCODING 1603
SWIDTH 1125 0
DWIDTH 25 0
BBX 22 18 1 0
BITMAP
00000C
00000C
00000C
00000C
00180C
00200C
00400C
00700C
00080C
00300C
00600C
C0000C
C0000C
C0000C
E00018
7001F8
7FFFE0
1FFE00
ENDCHAR
STARTCHAR 0644
ENCODING 1604
SWIDTH 945 0
DWIDTH 21 0
BBX 18 25 1 -7
BITMAP
0000C0
0000C0
0000C0
0000C0
0000C0
0000C0
0000C0
0000C0
0000C0
0000C0
0000C0
0000C0
0000C0
0000C0
0000C0
C000C0
C000C0
C000C0
C000C0
C000C0
C00080
E00380
700F00
3FFC00
0FF000
ENDCHAR
STARTCHAR 0645
ENCODING 1605
SWIDTH 540 0
DWIDTH 12 0
BBX 9 17 2 -8
BITMAP
1C00
3E00
3600
3300
3380
3F80
7F80
E000
C000
C000
C000
C000
C000
C000
C000
C000
C000
ENDCHAR
STARTCHAR 0646
ENCODING 1606
SWIDTH 900 0
DWIDTH 20 0
BBX 18 18 1 -7
BITMAP
002000
007000
002000
000000
000000
000000
0000C0
0000C0
4000C0
C000C0
C000C0
C000C0
C00080
E00080
600300
780E00
3FFC00
0FF000
ENDCHAR
STARTCHAR 0647
ENCODING 1607
SWIDTH 540 0
DWIDTH 12 0
BBX 10 10 1 0
BITMAP
0C00
1E00
3780
6180
61C0
C0C0
C0C0
E180
FF00
3E00
ENDCHAR
STARTCHAR 0648
ENCODING 1608
SWIDTH 450 0
DWIDTH 10 0
BBX 9 16 0 -8
BITMAP
0E00
1F00
1B80
3180
3180
3180
3F80
1F80
0300
0300
0600
0C00
1800
3000
6000
C000
ENDCHAR
STARTCHAR 0649
ENCODING 1609
SWIDTH 945 0
DWIDTH 21 0
BBX 19 17 1 -5
BITMAP
0001E0
0003E0
000600
000C00
001800
201800
601800
401800
401FE0
C00FE0
C00060
C000C0
C001C0
E00380
700F00
3FFC00
0FE000
ENDCHAR
STARTCHAR 064A
ENCODING 1610
SWIDTH 945 0
DWIDTH 21 0
BBX 19 21 1 -9
BITMAP
0001E0
0003E0
000600
000C00
001800
201800
601800
401800
401FE0
C00FE0
C00060
C000C0
C001C0
E00380
700F00
3FFC00
0FE000
000000
044000
0EE000
044000
ENDCHAR
STARTCHAR 064B
ENCODING 1611
SWIDTH 0 0
DWIDTH 0 0
BBX 8 6 3 12
BITMAP
03
3C
C0
03
3C
C0
ENDCHAR
STARTCHAR 064C
ENCODING 1612
SWIDTH 0 0
DWIDTH 0 0
BBX 10 6 3 12
BITMAP
0380
E480
1480
1680
21C0
7E00
ENDCHAR
STARTCHAR 064D
ENCODING 1613
SWIDTH 0 0
DWIDTH 0 0
BBX 8 6 3 -9
BITMAP
03
3C
C0
03
3C
C0
ENDCHAR
STARTCHAR 064E
ENCODING 1614
SWIDTH 0 0
DWIDTH 0 0
BBX 8 3 3 12
BITMAP
03
3C
C0
ENDCHAR
STARTCHAR 064F
ENCODING 1615
SWIDTH 0 0
DWIDTH 0 0
BBX 8 6 3 12
BITMAP
1C
24
24
14
0F
F0
ENDCHAR
STARTCHAR 0650
ENCODING 1616
SWIDTH 0 0
DWIDTH 0 0
BBX 8 3 3 -8
BITMAP
03
3C
C0
ENDCHAR
STARTCHAR 0651
ENCODING 1617
SWIDTH 0 0
DWIDTH 0 0
BBX 8 6 3 12
BITMAP
11
91
91
91
9E
60
ENDCHAR
STARTCHAR 0652
ENCODING 1618
SWIDTH 0 0
DWIDTH 0 0
BBX 6 6 3 12
BITMAP
10
28
44
84
84
78
ENDCHAR
STARTCHAR 0660
ENCODING 1632
SWIDTH 630 0
DWIDTH 14 0
BBX 4 4 5 6
BITMAP
40
F0
F0
40
ENDCHAR
STARTCHAR 0661
ENCODING 1633
SWIDTH 630 0
DWIDTH 14 0
BBX 2 16 6 0
BITMAP
C0
C0
C0
C0
C0
C0
C0
C0
C0
C0
C0
C0
C0
C0
C0
C0
ENDCHAR
STARTCHAR 0662
ENCODING 1634
SWIDTH 630 0
DWIDTH 14 0
BBX 10 16 3 0
BITMAP
C040
C040
E0C0
E080
FF80
DE00
C000
C000
C000
C000
C000
C000
C000
C000
C000
C000
ENDCHAR
STARTCHAR 0663
ENCODING 1635
SWIDTH 630 0
DWIDTH 14 0
BBX 11 16 2 0
BITMAP
C260
C260
C260
E5C0
FDC0
F800
C000
C000
C000
C000
C000
C000
C000
C000
C000
C000
ENDCHAR
STARTCHAR 0664
ENCODING 1636
SWIDTH 630 0
DWIDTH 14 0
BBX 8 16 3 0
BITMAP
06
1E
38
70
60
70
3C
0E
1C
70
C0
C0
E0
7C
1F
03
ENDCHAR
STARTCHAR 0665
ENCODING 1637
SWIDTH 630 0
DWIDTH 14 0
BBX 10 11 2 0
BITMAP
0400
1E00
3B00
7180
61C0
C0C0
C0C0
C0C0
E180
7F00
3E00
ENDCHAR
STARTCHAR 0666
ENCODING 1638
SWIDTH 630 0
DWIDTH 14 0
BBX 8 16 2 0
BITMAP
81
FF
7F
03
03
03
03
03
03
03
03
03
03
03
03
03
ENDCHAR
STARTCHAR 0667
ENCODING 1639
SWIDTH 630 0
DWIDTH 14 0
BBX 14 16 0 0
BITMAP
C00C
600C
6018
3018
3030
1830
1870
0C60
0C60
0CC0
06C0
06C0
0380
0380
0180
0100
ENDCHAR
STARTCHAR 0668
ENCODING 1640
SWIDTH 630 0
DWIDTH 14 0
BBX 14 16 0 0
BITMAP
0200
0600
0700
0700
0D80
0D80
0CC0
18C0
1860
3060
3030
7030
6018
6018
C00C
C00C
ENDCHAR
STARTCHAR 0669
ENCODING 1641
SWIDTH 630 0
DWIDTH 14 0
BBX 7 16 2 0
BITMAP
3C
7C
66
C6
C6
E6
7E
3E
06
06
06
06
06
06
06
06
ENDCHAR
STARTCHAR 066A
ENCODING 1642
SWIDTH 675 0
DWIDTH 15 0
BBX 15 16 0 0
BITMAP
0002
0004
2008
7810
7820
2040
0080
0100
0100
0200
0410
083C
103C
2010
4000
8000
ENDCHAR
STARTCHAR 066B
ENCODING 1643
SWIDTH 315 0
DWIDTH 7 0
BBX 3 6 2 -3
BITMAP
E0
E0
E0
60
60
C0
ENDCHAR
STARTCHAR 066C
ENCODING 1644
SWIDTH 315 0
DWIDTH 7 0
BBX 3 6 2 13
BITMAP
60
C0
C0
E0
E0
E0
ENDCHAR
STARTCHAR 066D
ENCODING 1645
SWIDTH 450 0
DWIDTH 10 0
BBX 9 8 1 2
BITMAP
0800
0800
8F80
7F00
1C00
1C00
3600
2200
ENDCHAR
STARTCHAR 0670
ENCODING 1648
SWIDTH 0 0
DWIDTH 0 0
BBX 1 5 3 12
BITMAP
80
80
80
80
80
ENDCHAR
STARTCHAR 0671
ENCODING 1649
SWIDTH 315 0
DWIDTH 7 0
BBX 7 25 0 0
BITMAP
0E
12
12
CC
24
18
00
30
30
30
30
30
30
30
30
30
30
30
30
30
30
30
30
30
30
ENDCHAR
STARTCHAR 0672
ENCODING 1650
SWIDTH 315 0
DWIDTH 7 0
BBX 7 25 0 0
BITMAP
06
18
18
C6
24
18
00
30
30
30
30
30
30
30
30
30
30
30
30
30
30
30
30
30
30
ENDCHAR
STARTCHAR 0673
ENCODING 1651
SWIDTH 315 0
DWIDTH 7 0
BBX 7 25 0 -7
BITMAP
30
30
30
30
30
30
30
30
30
30
30
30
30
30
30
30
30
30
00
06
18
18
C6
24
18
ENDCHAR
STARTCHAR 0674
ENCODING 1652
SWIDTH 0 0
DWIDTH 0 0
BBX 6 7 0 16
BITMAP
1C
20
40
20
1C
70
80
ENDCHAR
STARTCHAR 0675
ENCODING 1653
SWIDTH 315 0
DWIDTH 7 0
BBX 9 23 2 0
BITMAP
0380
0400
0800
0400
0380
CE00
D000
C000
C000
C000
C000
C000
C000
C000
C000
C000
C000
C000
C000
C000
C000
C000
C000
ENDCHAR
STARTCHAR 0676
ENCODING 1654
SWIDTH 450 0
DWIDTH 10 0
BBX 13 24 0 -8
BITMAP
0038
0040
0080
0040
0038
00E0
0100
0000
0E00
1F00
1B80
3180
3180
3180
3F80
1F80
0300
0300
0600
0C00
1800
3000
6000
C000
ENDCHAR
STARTCHAR 0677
ENCODING 1655
SWIDTH 450 0
DWIDTH 10 0
BBX 10 24 0 -8
BITMAP
38C0
4B00
4A00
2900
1CC0
E380
0400
0000
0E00
1F00
1B80
3180
3180
3180
3F80
1F80
0300
0300
0600
0C00
1800
3000
6000
C000
ENDCHAR
STARTCHAR 0678
ENCODING 1656
SWIDTH 945 0
DWIDTH 21 0
BBX 26 25 1 -5
BITMAP
000001C0
00000200
00000400
00000200
000001C0
00000700
00000800
00000000
0001E000
0003E000
00060000
000C0000
00180000
20180000
60180000
40180000
401FE000
C00FE000
C0006000
C000C000
C001C000
E0038000
700F0000
3FFC0000
0FE00000
ENDCHAR
STARTCHAR 0679
ENCODING 1657
SWIDTH 1035 0
DWIDTH 23 0
BBX 21 15 1 0
BITMAP
008000
008000
00B800
00C800
008800
01F018
000018
000018
400018
C00018
C00018
C00010
F001F0
7FFFE0
1FFE00
ENDCHAR
STARTCHAR 067A
ENCODING 1658
SWIDTH 1035 0
DWIDTH 23 0
BBX 21 16 1 0
BITMAP
004000
00E000
004000
000000
004000
00E000
004018
000018
000018
400018
C00018
C00018
C00010
F001F0
7FFFE0
1FFE00
ENDCHAR
STARTCHAR 067B
ENCODING 1659
SWIDTH 1035 0
DWIDTH 23 0
BBX 21 20 1 -10
BITMAP
000018
000018
000018
400018
C00018
C00018
C00010
F001F0
7FFFE0
1FFE00
000000
000000
000000
008000
01C000
008000
000000
008000
01C000
008000
ENDCHAR
STARTCHAR 067C
ENCODING 1660
SWIDTH 1035 0
DWIDTH 23 0
BBX 21 16 1 -4
BITMAP
011000
03B800
011018
000018
000018
400018
C00018
C00018
E00010
F001F0
7FFFE0
1FFE00
009800
010800
011800
00F000
ENDCHAR
STARTCHAR 067D
ENCODING 1661
SWIDTH 1035 0
DWIDTH 23 0
BBX 21 15 1 0
BITMAP
008800
01DC00
008800
002000
007000
002018
000018
000018
400018
C00018
C00018
C00010
F001F0
7FFFE0
1FFE00
ENDCHAR
STARTCHAR 067E
ENCODING 1662
SWIDTH 1035 0
DWIDTH 23 0
BBX 21 18 1 -8
BITMAP
000018
000018
000018
400018
C00018
C00018
C00010
F001F0
7FFFE0
1FFE00
000000
000000
022000
077000
022000
008000
01C000
008000
ENDCHAR
STARTCHAR 067F
ENCODING 1663
SWIDTH 1035 0
DWIDTH 23 0
BBX 21 15 1 0
BITMAP
022000
077000
022000
008800
01DC00
008818
000018
000018
400018
C00018
C00018
C00010
F001F0
7FFFE0
1FFE00
ENDCHAR
STARTCHAR 0680
ENCODING 1664
SWIDTH 1035 0
DWIDTH 23 0
BBX 21 18 1 -8
BITMAP
000018
000018
000018
400018
C00018
C00018
C00010
F001F0
7FFFE0
1FFE00
000000
000000
008800
01DC00
008800
002200
007700
002200
ENDCHAR
STARTCHAR 0681
ENCODING 1665
SWIDTH 630 0
DWIDTH 14 0
BBX 12 25 1 -8
BITMAP
01C0
0200
0400
0200
01C0
0700
0800
0000
0000
FC00
FFF0
03F0
0E00
3800
6000
6000
C000
C000
C000
C000
C000
6000
7810
3FF0
0FC0
ENDCHAR
STARTCHAR 0682
ENCODING 1666
SWIDTH 630 0
DWIDTH 14 0
BBX 12 25 1 -8
BITMAP
0200
0700
0200
0000
0200
0700
0200
0000
0000
FC00
FFF0
03F0
0E00
3800
6000
6000
C000
C000
C000
C000
C000
6000
7810
3FF0
0FC0
ENDCHAR
STARTCHAR 0683
ENCODING 1667
SWIDTH 630 0
DWIDTH 14 0
BBX 12 16 1 -8
BITMAP
FC00
FFF0
03F0
0E00
3800
6000
6220
C770
C220
C000
C000
C000
6000
7810
3FF0
0FC0
ENDCHAR
STARTCHAR 0684
ENCODING 1668
SWIDTH 630 0
DWIDTH 14 0
BBX 12 16 1 -8
BITMAP
FC00
FFF0
03F0
0E00
3800
6100
6380
C100
C000
C100
C380
C100
6000
7810
3FF0
0FC0
ENDCHAR
STARTCHAR 0685
ENCODING 1669
SWIDTH 630 0
DWIDTH 14 0
BBX 12 24 1 -8
BITMAP
0200
0700
0200
0880
1DC0
0880
0000
0000
FC00
FFF0
03F0
0E00
3800
6000
6000
C000
C000
C000
C000
C000
6000
7810
3FF0
0FC0
ENDCHAR
STARTCHAR 0686
ENCODING 1670
SWIDTH 630 0
DWIDTH 14 0
BBX 12 16 1 -8
BITMAP
FC00
FFF0
03F0
0E00
3800
6220
6770
C220
C080
C1C0
C080
C000
6000
7810
3FF0
0FC0
ENDCHAR
STARTCHAR 0687
ENCODING 1671
SWIDTH 630 0
DWIDTH 14 0
BBX 13 16 1 -8
BITMAP
FC00
FFF0
03F0
0E00
3800
6440
6EE0
C440
C110
C3B8
C110
C000
6000
7810
3FF0
0FC0
ENDCHAR
STARTCHAR 0688
ENCODING 1672
SWIDTH 540 0
DWIDTH 12 0
BBX 11 20 0 0
BITMAP
0800
0800
0B80
0C80
0880
1F00
0000
0000
0300
0380
01C0
00C0
00C0
00E0
0060
0060
0060
80E0
FFC0
7F00
ENDCHAR
STARTCHAR 0689
ENCODING 1673
SWIDTH 540 0
DWIDTH 12 0
BBX 11 16 0 -4
BITMAP
0300
0380
01C0
00C0
00C0
00E0
0060
0060
0060
80E0
FFC0
3F80
0980
1080
1080
0F00
ENDCHAR
STARTCHAR 068A
ENCODING 1674
SWIDTH 540 0
DWIDTH 12 0
BBX 11 17 0 -5
BITMAP
0300
0380
01C0
00C0
00C0
00E0
0060
0060
0060
80E0
FFC0
7F00
0000
0000
0800
1C00
0800
ENDCHAR
STARTCHAR 068B
ENCODING 1675
SWIDTH 540 0
DWIDTH 12 0
BBX 11 25 0 -5
BITMAP
0800
0800
0B80
0C80
0880
1F00
0000
0000
0300
0380
01C0
00C0
00C0
00E0
0060
0060
0060
80E0
FFC0
7F00
0000
0000
0800
1C00
0800
ENDCHAR
STARTCHAR 068C
ENCODING 1676
SWIDTH 540 0
DWIDTH 12 0
BBX 11 17 0 0
BITMAP
0880
1DC0
0880
0000
0000
0300
0380
01C0
00C0
00C0
00E0
0060
0060
0060
80E0
FFC0
7F00
ENDCHAR
STARTCHAR 068D
ENCODING 1677
SWIDTH 540 0
DWIDTH 12 0
BBX 11 17 0 -5
BITMAP
0300
0380
01C0
00C0
00C0
00E0
0060
0060
0060
80E0
FFC0
7F00
0000
0000
2200
7700
2200
ENDCHAR
STARTCHAR 068E
ENCODING 1678
SWIDTH 540 0
DWIDTH 12 0
BBX 11 20 0 0
BITMAP
0200
0700
0200
0880
1DC0
0880
0000
0000
0300
0380
01C0
00C0
00C0
00E0
0060
0060
0060
80E0
FFC0
7F00
ENDCHAR
STARTCHAR 068F
ENCODING 1679
SWIDTH 540 0
DWIDTH 12 0
BBX 11 20 0 0
BITMAP
0880
1DC0
0880
0200
0700
0200
0000
0000
0300
0380
01C0
00C0
00C0
00E0
0060
0060
0060
80E0
FFC0
7F00
ENDCHAR
STARTCHAR 0690
ENCODING 1680
SWIDTH 540 0
DWIDTH 12 0
BBX 11 20 0 0
BITMAP
2200
7700
2200
0880
1DC0
0880
0000
0000
0300
0380
01C0
00C0
00C0
00E0
0060
0060
0060
80E0
FFC0
7F00
ENDCHAR
STARTCHAR 0691
ENCODING 1681
SWIDTH 405 0
DWIDTH 9 0
BBX 10 24 -2 -8
BITMAP
1000
1000
1700
1900
1100
3E00
0000
0000
0600
0300
0380
0180
01C0
00C0
00C0
00C0
0180
0380
0700
0E00
1C00
3800
7000
E000
ENDCHAR
STARTCHAR 0692
ENCODING 1682
SWIDTH 405 0
DWIDTH 9 0
BBX 10 24 -2 -8
BITMAP
3100
1A00
0A00
0C00
0400
0000
0000
0000
0600
0300
0380
0180
01C0
00C0
00C0
00C0
0180
0380
0700
0E00
1C00
3800
7000
E000
ENDCHAR
STARTCHAR 0693
ENCODING 1683
SWIDTH 405 0
DWIDTH 9 0
BBX 10 16 -2 -8
BITMAP
0600
0300
0380
0180
01C0
00C0
00C0
00C0
0180
0300
0780
0CC0
1C40
3C40
7480
E380
ENDCHAR
STARTCHAR 0694
ENCODING 1684
SWIDTH 405 0
DWIDTH 9 0
BBX 10 16 -2 -8
BITMAP
0600
0300
0380
0180
01C0
00C0
00C0
00C0
0180
0380
0700
0E00
1C00
3880
71C0
E080
ENDCHAR
STARTCHAR 0695
ENCODING 1685
SWIDTH 405 0
DWIDTH 9 0
BBX 10 21 -2 -13
BITMAP
0600
0300
0380
0180
01C0
00C0
00C0
00C0
0180
0380
0700
0E00
1C00
3800
7000
E000
0C40
0680
0280
0300
0100
ENDCHAR
STARTCHAR 0696
ENCODING 1686
SWIDTH 405 0
DWIDTH 9 0
BBX 10 16 -2 -8
BITMAP
0600
0300
0380
0180
01C0
10C0
38C0
10C0
0180
0380
0700
0E00
1C00
3880
71C0
E080
ENDCHAR
STARTCHAR 0697
ENCODING 1687
SWIDTH 405 0
DWIDTH 9 0
BBX 10 21 -2 -8
BITMAP
1100
3B80
1100
0000
0000
0600
0300
0380
0180
01C0
00C0
00C0
00C0
0180
0380
0700
0E00
1C00
3800
7000
E000
ENDCHAR
STARTCHAR 0698
ENCODING 1688
SWIDTH 405 0
DWIDTH 9 0
BBX 10 23 -2 -8
BITMAP
0400
0E00
0400
1100
3B80
1100
0000
0600
0300
0380
0180
01C0
00C0
00C0
00C0
0180
0380
0700
0E00
1C00
3800
7000
E000
ENDCHAR
STARTCHAR 0699
ENCODING 1689
SWIDTH 405 0
DWIDTH 9 0
BBX 10 24 -2 -8
BITMAP
2200
7700
2200
0880
1DC0
0880
0000
0000
0600
0300
0380
0180
01C0
00C0
00C0
00C0
0180
0380
0700
0E00
1C00
3800
7000
E000
ENDCHAR
STARTCHAR 069A
ENCODING 1690
SWIDTH 1485 0
DWIDTH 33 0
BBX 31 21 1 -7
BITMAP
00000100
00000380
00000100
00000000
0000000C
0000000E
00000306
00030306
00030306
00018306
00018306
4001C78C
C001FDFC
C001F8F0
C0018000
C0018000
C0010020
E0070070
781E0020
3FF80000
0FE00000
ENDCHAR
STARTCHAR 069B
ENCODING 1691
SWIDTH 1485 0
DWIDTH 33 0
BBX 31 18 1 -8
BITMAP
0000000C
0000000E
00000306
00030306
00030306
00018306
00018306
4001C78C
C001FDFC
C001F8F0
C0018000
C0018000
C0010088
E00701DC
781E0088
3FF80020
0FE00070
00000020
ENDCHAR
STARTCHAR 069C
ENCODING 1692
SWIDTH 1485 0
DWIDTH 33 0
BBX 31 23 1 -8
BITMAP
00000100
00000380
00000100
00000440
00000EE0
0000044C
0000000E
00000306
00030306
00030306
00018306
00018306
4001C78C
C001FDFC
C001F8F0
C0018000
C0018000
C0010088
E00701DC
781E0088
3FF80020
0FE00070
00000020
ENDCHAR
STARTCHAR 069D
ENCODING 1693
SWIDTH 1575 0
DWIDTH 35 0
BBX 33 17 1 -7
BITMAP
0000001E00
0000003F00
000000E380
000301C180
0003030180
0001860180
00018C0180
4001F80F00
C001FFFE00
C001BFF000
C001800000
C001800000
C001044000
E0070EE000
781E044000
3FF8000000
0FE0000000
ENDCHAR
STARTCHAR 069E
ENCODING 1694
SWIDTH 1575 0
DWIDTH 35 0
BBX 33 24 1 -7
BITMAP
0000000400
0000000E00
0000000400
0000001100
0000003B80
0000001100
0000000000
0000001E00
0000003F00
000000E380
000301C180
0003030180
0001860180
00018C0180
4001F80F00
C001FFFE00
C001BFF000
C001800000
C001800000
C001000000
E007000000
781E000000
3FF8000000
0FE0000000
ENDCHAR
STARTCHAR 069F
ENCODING 1695
SWIDTH 810 0
DWIDTH 18 0
BBX 17 18 0 0
BITMAP
060000
060400
060E00
060400
061100
063B80
061100
060000
061E00
063F00
06E380
07C180
0F0180
0E0180
0C0180
181F00
FFFE00
FFF000
ENDCHAR
STARTCHAR 06A0
ENCODING 1696
SWIDTH 630 0
DWIDTH 14 0
BBX 12 27 1 -8
BITMAP
0100
0380
0100
0440
0EE0
0440
0000
07C0
1FC0
3800
3000
3000
3800
1E00
07C0
0FC0
3800
6000
E000
C000
C000
C000
C000
6000
7810
3FF0
0FC0
ENDCHAR
STARTCHAR 06A1
ENCODING 1697
SWIDTH 1260 0
DWIDTH 28 0
BBX 26 13 1 -1
BITMAP
00000300
00000F80
00000DC0
000018C0
000018C0
400018C0
C0001FC0
C0000FC0
C0000080
E0000380
70003F00
7FFFFC00
1FFF8000
ENDCHAR
STARTCHAR 06A2
ENCODING 1698
SWIDTH 1260 0
DWIDTH 28 0
BBX 26 17 1 -5
BITMAP
00000300
00000F80
00000DC0
000018C0
000018C0
400018C0
C0001FC0
C0000FC0
C0000080
E0000380
70003F00
7FFFFC00
1FFF8000
00000000
00000100
00000380
00000100
ENDCHAR
STARTCHAR 06A3
ENCODING 1699
SWIDTH 1260 0
DWIDTH 28 0
BBX 26 23 1 -5
BITMAP
00000100
00000380
00000100
00000000
00000000
00000000
00000300
00000F80
00000DC0
000018C0
000018C0
400018C0
C0001FC0
C0000FC0
C0000080
E0000380
70003F00
7FFFFC00
1FFF8000
00000000
00008000
0001C000
00008000
ENDCHAR
STARTCHAR 06A4
ENCODING 1700
SWIDTH 1260 0
DWIDTH 28 0
BBX 27 21 1 -1
BITMAP
00000100
00000380
00000100
00000440
00000EE0
00000440
00000000
00000000
00000300
00000F80
00000DC0
000018C0
000018C0
400018C0
C0001FC0
C0000FC0
C0000080
E0000380
70003F00
7FFFFC00
1FFF8000
ENDCHAR
STARTCHAR 06A5
ENCODING 1701
SWIDTH 1260 0
DWIDTH 28 0
BBX 27 20 1 -8
BITMAP
00000300
00000F80
00000DC0
000018C0
000018C0
400018C0
C0001FC0
C0000FC0
C0000080
E0000380
70003F00
7FFFFC00
1FFF8000
00000000
00000440
00000EE0
00000440
00000100
00000380
00000100
ENDCHAR
STARTCHAR 06A6
ENCODING 1702
SWIDTH 1260 0
DWIDTH 28 0
BBX 26 21 1 -1
BITMAP
00002200
00007700
00002200
00000880
00001DC0
00000880
00000000
00000000
00000300
00000F80
00000DC0
000018C0
000018C0
400018C0
C0001FC0
C0000FC0
C0000080
E0000380
70003F00
7FFFFC00
1FFF8000
ENDCHAR
STARTCHAR 06A7
ENCODING 1703
SWIDTH 900 0
DWIDTH 20 0
BBX 18 21 1 -8
BITMAP
000100
000380
000100
000000
000000
000700
000F80
000DC0
0018C0
0018C0
0018C0
401FC0
C00FC0
C000C0
C00080
C00180
C00380
E00700
701E00
3FF800
0FE000
ENDCHAR
STARTCHAR 06A8
ENCODING 1704
SWIDTH 900 0
DWIDTH 20 0
BBX 19 24 1 -8
BITMAP
000100
000380
000100
000440
000EE0
000440
000000
000000
000700
000F80
000DC0
0018C0
0018C0
0018C0
401FC0
C00FC0
C000C0
C00080
C00180
C00380
E00700
701E00
3FF800
0FE000
ENDCHAR
STARTCHAR 06A9
ENCODING 1705
SWIDTH 1080 0
DWIDTH 24 0
BBX 23 18 1 0
BITMAP
000002
00001E
00007C
0003E0
000780
000600
000380
0001C0
0000E0
000070
000030
400038
C00018
C00018
E00018
F000F0
7FFFE0
1FFF00
ENDCHAR
STARTCHAR 06AA
ENCODING 1706
SWIDTH 900 0
DWIDTH 20 0
BBX 19 14 0 -5
BITMAP
018000
078000
0E0000
180000
100000
200000
200000
3FFF80
1FFFC0
000060
000020
E00060
FFFFC0
3FFF00
ENDCHAR
STARTCHAR 06AB
ENCODING 1707
SWIDTH 1080 0
DWIDTH 24 0
BBX 23 18 1 0
BITMAP
000002
00001E
00007C
0003E6
0007A2
000622
00039C
0001C0
0000E0
000070
000030
400038
C00018
C00018
E00018
F000F0
7FFFE0
1FFF00
ENDCHAR
STARTCHAR 06AC
ENCODING 1708
SWIDTH 1125 0
DWIDTH 25 0
BBX 22 22 1 0
BITMAP
000040
0000E0
000040
000000
00000C
00000C
00000C
00000C
00180C
00200C
00400C
00700C
00080C
00300C
00600C
C0000C
C0000C
C0000C
E00018
7001F8
7FFFE0
1FFE00
ENDCHAR
STARTCHAR 06AD
ENCODING 1709
SWIDTH 1125 0
DWIDTH 25 0
BBX 22 21 1 0
BITMAP
000100
000380
000100
00044C
000EEC
00044C
00000C
00180C
00200C
00400C
00700C
00080C
00300C
00600C
C0000C
C0000C
C0000C
E00018
7001F8
7FFFE0
1FFE00
ENDCHAR
STARTCHAR 06AE
ENCODING 1710
SWIDTH 1125 0
DWIDTH 25 0
BBX 22 26 1 -8
BITMAP
00000C
00000C
00000C
00000C
00180C
00200C
00400C
00700C
00080C
00300C
00600C
C0000C
C0000C
C0000C
E00018
7001F8
7FFFE0
1FFE00
000000
000000
044000
0EE000
044000
010000
038000
010000
ENDCHAR
STARTCHAR 06AF
ENCODING 1711
SWIDTH 1080 0
DWIDTH 24 0
BBX 23 21 1 0
BITMAP
000002
00001E
00007C
0003E2
00079E
00047C
0003E0
000780
000600
000380
0001C0
0000E0
000070
000030
400038
C00018
C00018
C00018
F000F0
7FFFE0
1FFF00
ENDCHAR
STARTCHAR 06B0
ENCODING 1712
SWIDTH 1080 0
DWIDTH 24 0
BBX 23 21 1 0
BITMAP
000002
00001E
00007C
0003E2
00079E
00047C
0003E6
0007A2
000622
00039C
0001C0
0000E0
000070
000030
400038
C00018
C00018
C00018
F000F0
7FFFE0
1FFF00
ENDCHAR
STARTCHAR 06B1
ENCODING 1713
SWIDTH 1080 0
DWIDTH 24 0
BBX 23 23 1 0
BITMAP
000440
000EE0
000442
00001E
00007C
0003E2
00079E
00047C
0003E0
000780
000600
000380
0001C0
0000E0
000070
000030
400038
C00018
C00018
C00018
F000F0
7FFFE0
1FFF00
ENDCHAR
STARTCHAR 06B2
ENCODING 1714
SWIDTH 1080 0
DWIDTH 24 0
BBX 23 26 1 -5
BITMAP
000002
00001E
00007C
0003E2
00079E
00047C
0003E0
000780
000600
000380
0001C0
0000E0
000070
000030
400038
C00018
C00018
C00018
F000F0
7FFFE0
1FFF00
000000
000000
044000
0EE000
044000
ENDCHAR
STARTCHAR 06B3
ENCODING 1715
SWIDTH 1080 0
DWIDTH 24 0
BBX 23 31 1 -10
BITMAP
000002
00001E
00007C
0003E2
00079E
00047C
0003E0
000780
000600
000380
0001C0
0000E0
000070
000030
400038
C00018
C00018
C00018
F000F0
7FFFE0
1FFF00
000000
000000
000000
010000
038000
010000
000000
010000
038000
010000
ENDCHAR
STARTCHAR 06B4
ENCODING 1716
SWIDTH 1080 0
DWIDTH 24 0
BBX 23 26 1 0
BITMAP
000100
000380
000100
000440
000EE0
000442
00001E
00007C
0003E2
00079E
00047C
0003E0
000780
000600
000380
0001C0
0000E0
000070
000030
400038
C00018
C00018
C00018
F000F0
7FFFE0
1FFF00
ENDCHAR
STARTCHAR 06B5
ENCODING 1717
SWIDTH 945 0
DWIDTH 21 0
BBX 20 32 1 -7
BITMAP
000310
0001A0
0000A0
0000C0
000040
000000
000000
0000C0
0000C0
0000C0
0000C0
0000C0
0000C0
0000C0
0000C0
0000C0
0000C0
0000C0
0000C0
0000C0
0000C0
0000C0
C000C0
C000C0
C000C0
C000C0
C000C0
C00080
E00380
700F00
3FFC00
0FF000
ENDCHAR
STARTCHAR 06B6
ENCODING 1718
SWIDTH 945 0
DWIDTH 21 0
BBX 19 30 1 -7
BITMAP
000040
0000E0
000040
000000
000000
0000C0
0000C0
0000C0
0000C0
0000C0
0000C0
0000C0
0000C0
0000C0
0000C0
0000C0
0000C0
0000C0
0000C0
0000C0
C000C0
C000C0
C000C0
C000C0
C000C0
C00080
E00380
700F00
3FFC00
0FF000
ENDCHAR
STARTCHAR 06B7
ENCODING 1719
SWIDTH 945 0
DWIDTH 21 0
BBX 21 33 1 -7
BITMAP
000040
0000E0
000040
000110
0003B8
000110
000000
000000
0000C0
0000C0
0000C0
0000C0
0000C0
0000C0
0000C0
0000C0
0000C0
0000C0
0000C0
0000C0
0000C0
0000C0
0000C0
C000C0
C000C0
C000C0
C000C0
C000C0
C00080
E00380
700F00
3FFC00
0FF000
ENDCHAR
STARTCHAR 06BA
ENCODING 1722
SWIDTH 900 0
DWIDTH 20 0
BBX 18 12 1 -7
BITMAP
0000C0
0000C0
4000C0
C000C0
C000C0
C000C0
C00080
E00080
600300
780E00
3FFC00
0FF000
ENDCHAR
STARTCHAR 06BB
ENCODING 1723
SWIDTH 900 0
DWIDTH 20 0
BBX 18 20 1 -7
BITMAP
008000
008000
00B800
00C800
008800
01F000
000000
000000
0000C0
0000C0
4000C0
C000C0
C000C0
C000C0
C00080
E00080
600300
780E00
3FFC00
0FF000
ENDCHAR
STARTCHAR 06BC
ENCODING 1724
SWIDTH 900 0
DWIDTH 20 0
BBX 18 22 1 -11
BITMAP
004000
00E000
004000
000000
000000
000000
0000C0
0000C0
4000C0
C000C0
C000C0
C000C0
C00080
E00080
600300
780E00
3FFC00
0FE000
026000
042000
046000
03C000
ENDCHAR
STARTCHAR 06BD
ENCODING 1725
SWIDTH 900 0
DWIDTH 20 0
BBX 18 21 1 -7
BITMAP
002000
007000
002000
008800
01DC00
008800
000000
000000
000000
0000C0
0000C0
4000C0
C000C0
C000C0
C000C0
C00080
E00080
600300
780E00
3FFC00
0FF000
ENDCHAR
STARTCHAR 06BE
ENCODING 1726
SWIDTH 630 0
DWIDTH 14 0
BBX 15 11 -2 0
BITMAP
0780
07E0
03F8
067C
0C3C
0E36
0E76
07E6
03C6
1FFE
FC78
ENDCHAR
STARTCHAR 06C0
ENCODING 1728
SWIDTH 540 0
DWIDTH 12 0
BBX 10 19 1 0
BITMAP
0700
0800
1000
0800
0700
1C00
2000
0000
0000
0C00
1E00
3780
6180
61C0
C0C0
C0C0
E180
FF00
3E00
ENDCHAR
STARTCHAR 06C1
ENCODING 1729
SWIDTH 765 0
DWIDTH 17 0
BBX 17 7 0 0
BITMAP
00F000
01F800
039C00
060C00
8C0600
F80780
700380
ENDCHAR
STARTCHAR 06C2
ENCODING 1730
SWIDTH 765 0
DWIDTH 17 0
BBX 17 16 0 0
BITMAP
003800
004000
008000
004000
003800
00E000
010000
000000
000000
00F000
01F800
039C00
060C00
8C0600
F80780
700380
ENDCHAR
STARTCHAR 06C3
ENCODING 1731
SWIDTH 765 0
DWIDTH 17 0
BBX 17 12 0 0
BITMAP
008800
01DC00
008800
000000
000000
00F000
01F800
039C00
060C00
8C0600
F80780
700380
ENDCHAR
STARTCHAR 06C4
ENCODING 1732
SWIDTH 450 0
DWIDTH 10 0
BBX 11 16 -2 -8
BITMAP
0380
07C0
06E0
0C60
0C60
0C60
0FE0
07E0
30C0
49C0
8B80
8F00
8E00
7C00
3800
7000
ENDCHAR
STARTCHAR 06C5
ENCODING 1733
SWIDTH 450 0
DWIDTH 10 0
BBX 11 16 -2 -8
BITMAP
0380
07C0
06E0
0C60
0C60
0C60
0FE0
07E0
00C0
00C0
0180
E300
3E00
0C00
3800
7000
ENDCHAR
STARTCHAR 06C6
ENCODING 1734
SWIDTH 450 0
DWIDTH 10 0
BBX 9 23 0 -8
BITMAP
1880
0D00
0500
0600
0200
0000
0000
0E00
1F00
1B80
3180
3180
3180
3F80
1F80
0300
0300
0600
0C00
1800
3000
6000
C000
ENDCHAR
STARTCHAR 06C7
ENCODING 1735
SWIDTH 450 0
DWIDTH 10 0
BBX 10 24 0 -8
BITMAP
0700
0900
0900
0500
03C0
3C00
0000
0000
0E00
1F00
1B80
3180
3180
3180
3F80
1F80
0300
0300
0600
0C00
1800
3000
6000
C000
ENDCHAR
STARTCHAR 06C8
ENCODING 1736
SWIDTH 450 0
DWIDTH 10 0
BBX 9 24 0 -8
BITMAP
0200
0200
0200
0200
0200
0000
0000
0000
0E00
1F00
1B80
3180
3180
3180
3F80
1F80
0300
0300
0600
0C00
1800
3000
6000
C000
ENDCHAR
STARTCHAR 06C9
ENCODING 1737
SWIDTH 450 0
DWIDTH 10 0
BBX 10 23 0 -8
BITMAP
0200
0300
0500
0580
08C0
0000
0000
0E00
1F00
1B80
3180
3180
3180
3F80
1F80
0300
0300
0600
0C00
1800
3000
6000
C000
ENDCHAR
STARTCHAR 06CA
ENCODING 1738
SWIDTH 450 0
DWIDTH 10 0
BBX 10 21 0 -8
BITMAP
0880
1DC0
0880
0000
0000
0E00
1F00
1B80
3180
3180
3180
3F80
1F80
0300
0300
0600
0C00
1800
3000
6000
C000
ENDCHAR
STARTCHAR 06CB
ENCODING 1739
SWIDTH 450 0
DWIDTH 10 0
BBX 10 24 0 -8
BITMAP
0200
0700
0200
0880
1DC0
0880
0000
0000
0E00
1F00
1B80
3180
3180
3180
3F80
1F80
0300
0300
0600
0C00
1800
3000
6000
C000
ENDCHAR
STARTCHAR 06CC
ENCODING 1740
SWIDTH 945 0
DWIDTH 21 0
BBX 19 17 1 -5
BITMAP
0001E0
0003E0
000600
000C00
001800
201800
601800
401800
401FE0
C00FE0
C00060
C000C0
C001C0
E00380
700F00
3FFC00
0FE000
ENDCHAR
STARTCHAR 06CD
ENCODING 1741
SWIDTH 945 0
DWIDTH 21 0
BBX 23 17 -3 -5
BITMAP
00001E
00003E
000060
0000C0
700180
9E0180
060180
0C0180
0C01FE
0C00FE
0C0006
0C000C
0C001C
0E0038
0780F0
03FFC0
00FE00
ENDCHAR
STARTCHAR 06CE
ENCODING 1742
SWIDTH 945 0
DWIDTH 21 0
BBX 19 21 1 -5
BITMAP
018800
00D000
005000
006000
0021E0
0003E0
000600
000C00
001800
201800
601800
401800
401FE0
C00FE0
C00060
C000C0
C001C0
E00380
700F00
3FFC00
0FE000
ENDCHAR
STARTCHAR 06D0
ENCODING 1744
SWIDTH 945 0
DWIDTH 21 0
BBX 19 26 1 -14
BITMAP
0001E0
0003E0
000600
000C00
001800
201800
601800
401800
401FE0
C00FE0
C00060
C000C0
C001C0
E00380
700F00
3FFC00
0FE000
000000
000000
010000
038000
010000
000000
010000
038000
010000
ENDCHAR
STARTCHAR 06D1
ENCODING 1745
SWIDTH 945 0
DWIDTH 21 0
BBX 19 24 1 -12
BITMAP
0001E0
0003E0
000600
000C00
001800
201800
601800
401800
401FE0
C00FE0
C00060
C000C0
C001C0
E00380
700F00
3FFC00
0FE000
000000
044000
0EE000
044000
010000
038000
010000
ENDCHAR
STARTCHAR 06D2
ENCODING 1746
SWIDTH 810 0
DWIDTH 18 0
BBX 17 12 1 -2
BITMAP
001E00
003E00
007000
00E000
01C000
078000
1E0000
3C0000
F00000
C00000
FFFF80
7FFF80
ENDCHAR
STARTCHAR 06D3
ENCODING 1747
SWIDTH 810 0
DWIDTH 18 0
BBX 17 16 1 -2
BITMAP
070000
080000
100000
080000
071E00
1C3E00
207000
00E000
01C000
078000
1E0000
3C0000
F00000
C00000
FFFF80
7FFF80
ENDCHAR
STARTCHAR 06D4
ENCODING 1748
SWIDTH 495 0
DWIDTH 11 0
BBX 9 2 1 5
BITMAP
FF80
FF80
ENDCHAR
STARTCHAR 06D5
ENCODING 1749
SWIDTH 540 0
DWIDTH 12 0
BBX 10 10 1 0
BITMAP
0C00
1E00
3780
6180
61C0
C0C0
C0C0
E180
FF00
3E00
ENDCHAR
STARTCHAR 06D6
ENCODING 1750
SWIDTH 0 0
DWIDTH 0 0
BBX 16 9 0 12
BITMAP
0100
0100
0103
0125
0129
3EDE
C000
8000
F800
ENDCHAR
STARTCHAR 06D7
ENCODING 1751
SWIDTH 0 0
DWIDTH 0 0
BBX 12 10 0 12
BITMAP
0050
0200
0230
0250
0270
0210
3DE0
C000
8000
F800
ENDCHAR
STARTCHAR 06D8
ENCODING 1752
SWIDTH 0 0
DWIDTH 0 0
BBX 5 4 0 12
BITMAP
10
28
28
D8
ENDCHAR
STARTCHAR 06D9
ENCODING 1753
SWIDTH 0 0
DWIDTH 0 0
BBX 3 6 1 12
BITMAP
20
A0
60
20
60
E0
ENDCHAR
STARTCHAR 06DA
ENCODING 1754
SWIDTH 0 0
DWIDTH 0 0
BBX 5 6 0 12
BITMAP
F8
40
90
80
80
78
ENDCHAR
STARTCHAR 06DB
ENCODING 1755
SWIDTH 0 0
DWIDTH 0 0
BBX 4 3 0 12
BITMAP
20
00
90
ENDCHAR
STARTCHAR 06DC
ENCODING 1756
SWIDTH 0 0
DWIDTH 0 0
BBX 11 7 0 12
BITMAP
0020
0120
0920
87C0
8400
8400
7800
ENDCHAR
STARTCHAR 06DD
ENCODING 1757
SWIDTH 1170 0
DWIDTH 26 0
BBX 23 23 2 -3
BITMAP
001000
002800
000000
007C00
018300
067CC0
044440
0A44A0
0B83A0
140050
540054
940052
530194
110110
0B01A0
0B29A0
05BB40
0644C0
018300
007C00
000000
002800
001000
ENDCHAR
STARTCHAR 06DE
ENCODING 1758
SWIDTH 855 0
DWIDTH 19 0
BBX 17 17 1 -1
BITMAP
008000
014000
024000
077000
0C9800
1C1C00
100400
700700
880880
500500
300600
1C1C00
0C9800
077000
024000
014000
008000
ENDCHAR
STARTCHAR 06DF
ENCODING 1759
SWIDTH 0 0
DWIDTH 0 0
BBX 3 3 0 12
BITMAP
E0
E0
E0
ENDCHAR
STARTCHAR 06E0
ENCODING 1760
SWIDTH 0 0
DWIDTH 0 0
BBX 3 3 0 12
BITMAP
E0
E0
E0
ENDCHAR
STARTCHAR 06E1
ENCODING 1761
SWIDTH 0 0
DWIDTH 0 0
BBX 6 3 0 12
BITMAP
E0
1C
E0
ENDCHAR
STARTCHAR 06E2
ENCODING 1762
SWIDTH 0 0
DWIDTH 0 0
BBX 4 7 0 12
BITMAP
60
50
70
80
80
80
80
ENDCHAR
STARTCHAR 06E3
ENCODING 1763
SWIDTH 0 0
DWIDTH 0 0
BBX 11 6 0 -8
BITMAP
0020
0920
8520
87C0
8400
7800
ENDCHAR
STARTCHAR 06E4
ENCODING 1764
SWIDTH 225 0
DWIDTH 5 0
BBX 3 1 0 12
BITMAP
E0
ENDCHAR
STARTCHAR 06E5
ENCODING 1765
SWIDTH 450 0
DWIDTH 10 0
BBX 3 6 1 12
BITMAP
60
A0
E0
20
40
80
ENDCHAR
STARTCHAR 06E6
ENCODING 1766
SWIDTH 405 0
DWIDTH 9 0
BBX 6 5 1 12
BITMAP
18
20
40
80
FC
ENDCHAR
STARTCHAR 06E7
ENCODING 1767
SWIDTH 0 0
DWIDTH 0 0
BBX 6 5 0 12
BITMAP
18
20
40
80
FC
ENDCHAR
STARTCHAR 06E8
ENCODING 1768
SWIDTH 0 0
DWIDTH 0 0
BBX 6 6 0 12
BITMAP
10
00
84
84
84
78
ENDCHAR
STARTCHAR 06E9
ENCODING 1769
SWIDTH 630 0
DWIDTH 14 0
BBX 12 16 1 0
BITMAP
0200
0D00
1080
1080
1080
39C0
2040
2040
6060
4020
4020
4020
4020
4020
4020
FFF0
ENDCHAR
STARTCHAR 06EA
ENCODING 1770
SWIDTH 0 0
DWIDTH 0 0
BBX 3 4 0 -6
BITMAP
40
A0
A0
40
ENDCHAR
STARTCHAR 06EB
ENCODING 1771
SWIDTH 225 0
DWIDTH 5 0
BBX 3 3 0 12
BITMAP
40
A0
40
ENDCHAR
STARTCHAR 06EC
ENCODING 1772
SWIDTH 225 0
DWIDTH 5 0
BBX 4 4 0 12
BITMAP
60
F0
F0
60
ENDCHAR
STARTCHAR 06ED
ENCODING 1773
SWIDTH 0 0
DWIDTH 0 0
BBX 4 7 0 -9
BITMAP
60
50
70
80
80
80
80
ENDCHAR
STARTCHAR 06F0
ENCODING 1776
SWIDTH 630 0
DWIDTH 14 0
BBX 4 4 5 6
BITMAP
40
F0
F0
40
ENDCHAR
STARTCHAR 06F1
ENCODING 1777
SWIDTH 630 0
DWIDTH 14 0
BBX 2 16 6 0
BITMAP
C0
C0
C0
C0
C0
C0
C0
C0
C0
C0
C0
C0
C0
C0
C0
C0
ENDCHAR
STARTCHAR 06F2
ENCODING 1778
SWIDTH 630 0
DWIDTH 14 0
BBX 10 16 3 0
BITMAP
C040
C040
E0C0
E080
FF80
DE00
C000
C000
C000
C000
C000
C000
C000
C000
C000
C000
ENDCHAR
STARTCHAR 06F3
ENCODING 1779
SWIDTH 630 0
DWIDTH 14 0
BBX 11 16 2 0
BITMAP
C260
C260
C260
E5C0
FDC0
F800
C000
C000
C000
C000
C000
C000
C000
C000
C000
C000
ENDCHAR
STARTCHAR 06F4
ENCODING 1780
SWIDTH 630 0
DWIDTH 14 0
BBX 9 16 3 0
BITMAP
0380
0F80
9C00
D000
F800
FE00
CF80
C180
C000
C000
C000
C000
C000
C000
C000
C000
ENDCHAR
STARTCHAR 06F5
ENCODING 1781
SWIDTH 630 0
DWIDTH 14 0
BBX 12 16 1 0
BITMAP
0200
0700
0F00
0B80
1980
30C0
30C0
6060
6060
C070
C030
C030
C430
CE30
FBE0
71C0
ENDCHAR
STARTCHAR 06F6
ENCODING 1782
SWIDTH 630 0
DWIDTH 14 0
BBX 7 16 3 0
BITMAP
06
1E
38
60
C0
C0
80
C2
FE
7E
1C
38
70
E0
C0
80
ENDCHAR
STARTCHAR 06F7
ENCODING 1783
SWIDTH 630 0
DWIDTH 14 0
BBX 14 16 0 0
BITMAP
C00C
600C
6018
3018
3030
1830
1870
0C60
0C60
0CC0
06C0
06C0
0380
0380
0180
0100
ENDCHAR
STARTCHAR 06F8
ENCODING 1784
SWIDTH 630 0
DWIDTH 14 0
BBX 14 16 0 0
BITMAP
0200
0600
0700
0700
0D80
0D80
0CC0
18C0
1860
3060
3030
7030
6018
6018
C00C
C00C
ENDCHAR
STARTCHAR 06F9
ENCODING 1785
SWIDTH 630 0
DWIDTH 14 0
BBX 7 16 2 0
BITMAP
3C
7C
66
C6
C6
E6
7E
3E
06
06
06
06
06
06
06
06
ENDCHAR
STARTCHAR 0901
ENCODING 2305
SWIDTH 0 0
DWIDTH 0 0
BBX 10 6 -8 15
BITMAP
0800
0C00
8040
6180
7F80
1E00
ENDCHAR
STARTCHAR 0902
ENCODING 2306
SWIDTH 0 0
DWIDTH 0 0
BBX 2 2 -4 16
BITMAP
80
C0
ENDCHAR
STARTCHAR 0903
ENCODING 2307
SWIDTH 225 0
DWIDTH 5 0
BBX 2 8 1 2
BITMAP
80
C0
00
00
00
00
80
C0
ENDCHAR
STARTCHAR 0905
ENCODING 2309
SWIDTH 765 0
DWIDTH 17 0
BBX 17 14 1 0
BITMAP
1F1F80
3F9F80
20CC00
00CC00
01CC00
1F8C00
1F0C00
81BC00
C0EC00
60CC00
30CC00
1FCC00
0F8C00
000C00
ENDCHAR
STARTCHAR 0906
ENCODING 2310
SWIDTH 1035 0
DWIDTH 23 0
BBX 23 14 1 0
BITMAP
1F1FFE
3F9FFE
20CC30
00CC30
01CC30
1F8C30
1F0C30
81BC30
C0EC30
60CC30
30CC30
1FCC30
0F8C30
000C30
ENDCHAR
STARTCHAR 0907
ENCODING 2311
SWIDTH 495 0
DWIDTH 11 0
BBX 12 18 0 -4
BITMAP
FFF0
FFF0
0300
3F00
7F00
6000
6000
6F80
3FC0
10C0
00C0
31C0
3F80
3F00
0400
0600
0300
0100
ENDCHAR
STARTCHAR 0908
ENCODING 2312
SWIDTH 495 0
DWIDTH 11 0
BBX 12 24 0 -4
BITMAP
03E0
07F0
0610
0600
0600
0300
FFF0
FFF0
0300
3F00
7F00
6000
6000
6F80
3FC0
10C0
00C0
31C0
3F80
3F00
0400
0600
0300
0100
ENDCHAR
STARTCHAR 0909
ENCODING 2313
SWIDTH 585 0
DWIDTH 13 0
BBX 14 14 0 0
BITMAP
FFFC
FFFC
0020
0030
0030
0FF0
0FC0
00C0
4060
6060
3060
18E0
1FC0
0780
ENDCHAR
STARTCHAR 090A
ENCODING 2314
SWIDTH 720 0
DWIDTH 16 0
BBX 17 14 0 0
BITMAP
FFFF80
FFFF80
004000
006000
006000
0FE000
0FC000
00DE00
407F00
606300
306300
18E700
1FC200
078000
ENDCHAR
STARTCHAR 090B
ENCODING 2315
SWIDTH 855 0
DWIDTH 19 0
BBX 19 16 0 -2
BITMAP
FFFFE0
FFFFE0
00C000
00C000
3CCC00
7FCE00
41FE00
00FE00
07C200
3EC700
78CC00
60D800
00D800
00DC60
000FE0
0007C0
ENDCHAR
STARTCHAR 090C
ENCODING 2316
SWIDTH 765 0
DWIDTH 17 0
BBX 18 14 0 0
BITMAP
FFFFC0
FFFFC0
003000
1C7800
3FFC00
71C600
618200
638E00
611E00
203800
303000
183100
081F00
000E00
ENDCHAR
STARTCHAR 090D
ENCODING 2317
SWIDTH 585 0
DWIDTH 13 0
BBX 15 23 0 -4
BITMAP
0202
0104
01FC
00F8
0000
FFFC
FFFC
3060
3060
3060
3060
3060
3060
3060
3060
30C0
1C00
0F00
03C0
00E0
0060
0060
0020
ENDCHAR
STARTCHAR 090E
ENCODING 2318
SWIDTH 585 0
DWIDTH 13 0
BBX 14 24 0 -4
BITMAP
2000
2000
31C0
1FE0
0E20
0020
FFFC
FFFC
3060
3060
3060
3060
3060
3060
3060
3060
30C0
1C00
0F00
03C0
00E0
0060
0060
0020
ENDCHAR
STARTCHAR 090F
ENCODING 2319
SWIDTH 585 0
DWIDTH 13 0
BBX 14 18 0 -4
BITMAP
FFFC
FFFC
3060
3060
3060
3060
3060
3060
3060
3060
30C0
1C00
0F00
03C0
00E0
0060
0060
0020
ENDCHAR
STARTCHAR 0910
ENCODING 2320
SWIDTH 585 0
DWIDTH 13 0
BBX 14 24 0 -4
BITMAP
3C00
3F00
0380
00C0
0040
0060
FFFC
FFFC
3060
3060
3060
3060
3060
3060
3060
3060
30C0
1C00
0F00
03C0
00E0
0060
0060
0020
ENDCHAR
STARTCHAR 0911
ENCODING 2321
SWIDTH 1035 0
DWIDTH 23 0
BBX 24 19 1 0
BITMAP
000101
000082
0000FE
00007C
000000
1F1FFE
3F9FFE
20CC30
00CC30
01CC30
1F8C30
1F0C30
81BC30
C0EC30
60CC30
30CC30
1FCC30
0F8C30
000C30
ENDCHAR
STARTCHAR 0912
ENCODING 2322
SWIDTH 1035 0
DWIDTH 23 0
BBX 23 20 1 0
BITMAP
001000
001000
0018E0
000FF0
000710
000010
1F1FFE
3F9FFE
20CC30
00CC30
01CC30
1F8C30
1F0C30
81BC30
C0EC30
60CC30
30CC30
1FCC30
0F8C30
000C30
ENDCHAR
STARTCHAR 0913
ENCODING 2323
SWIDTH 1035 0
DWIDTH 23 0
BBX 23 20 1 0
BITMAP
001E00
001F80
0001C0
000060
000020
000030
1F1FFE
3F9FFE
20CC30
00CC30
01CC30
1F8C30
1F0C30
81BC30
C0EC30
60CC30
30CC30
1FCC30
0F8C30
000C30
ENDCHAR
STARTCHAR 0914
ENCODING 2324
SWIDTH 1035 0
DWIDTH 23 0
BBX 23 20 1 0
BITMAP
000F00
000F80
0000C0
000F40
000FE0
000070
1F1FFE
3F9FFE
20CC30
00CC30
01CC30
1F8C30
1F0C30
81BC30
C0EC30
60CC30
30CC30
1FCC30
0F8C30
000C30
ENDCHAR
STARTCHAR 0915
ENCODING 2325
SWIDTH 720 0
DWIDTH 16 0
BBX 17 14 0 0
BITMAP
FFFF80
FFFF80
018000
018000
3DBC00
7DFC00
61C600
618600
638600
3F8600
1D8600
018C00
018C00
018000
ENDCHAR
STARTCHAR 0916
ENCODING 2326
SWIDTH 720 0
DWIDTH 16 0
BBX 17 14 0 0
BITMAP
FFFF80
FFFF80
0C0C00
0CEC00
0DEC00
7D8C00
798C00
31FC00
30FC00
180C00
0C0C00
07FC00
03FC00
000C00
ENDCHAR
STARTCHAR 0917
ENCODING 2327
SWIDTH 585 0
DWIDTH 13 0
BBX 14 14 0 0
BITMAP
FFFC
FFFC
1860
1860
1860
1860
1860
7860
7860
3860
1060
0060
0060
0060
ENDCHAR
STARTCHAR 0918
ENCODING 2328
SWIDTH 675 0
DWIDTH 15 0
BBX 16 14 0 0
BITMAP
FFFF
FFFF
6018
6018
7018
3F18
1F18
3818
3038
3078
1FD8
0F18
0018
0018
ENDCHAR
STARTCHAR 0919
ENCODING 2329
SWIDTH 675 0
DWIDTH 15 0
BBX 16 14 0 0
BITMAP
FFFF
FFFF
00C0
0FC0
3FC0
3008
300C
33C0
1FE0
8830
4030
7070
3FE0
0FC0
ENDCHAR
STARTCHAR 091A
ENCODING 2330
SWIDTH 630 0
DWIDTH 14 0
BBX 15 14 0 0
BITMAP
FFFE
FFFE
0030
0030
FF30
FF30
1830
3030
3070
30F0
3FB0
1F30
0030
0030
ENDCHAR
STARTCHAR 091B
ENCODING 2331
SWIDTH 585 0
DWIDTH 13 0
BBX 14 14 0 0
BITMAP
FFFC
FFFC
00C0
3CE0
7DF0
6110
6110
3C90
3CF0
6060
6060
60C0
3F80
1E00
ENDCHAR
STARTCHAR 091C
ENCODING 2332
SWIDTH 675 0
DWIDTH 15 0
BBX 16 14 0 0
BITMAP
FFFF
FFFF
0018
0018
07F8
87F8
4318
6198
3198
1F98
0F18
0018
0018
0018
ENDCHAR
STARTCHAR 091D
ENCODING 2333
SWIDTH 765 0
DWIDTH 17 0
BBX 18 18 0 -4
BITMAP
FFFFC0
FFFFC0
018600
1F8600
7F8600
600600
600E00
67BE00
3FF600
106600
006600
30E600
3FC600
1F8600
060000
030000
010000
008000
ENDCHAR
STARTCHAR 091E
ENCODING 2334
SWIDTH 720 0
DWIDTH 16 0
BBX 17 14 0 0
BITMAP
FFFF80
FFFF80
000C00
000C00
1E0C00
3F0C00
238C00
81FC00
41EC00
618C00
3F8C00
1E0C00
000C00
000C00
ENDCHAR
STARTCHAR 091F
ENCODING 2335
SWIDTH 540 0
DWIDTH 12 0
BBX 13 14 0 0
BITMAP
FFF8
FFF8
0180
0180
0F80
3F80
3800
6000
6000
6000
6000
3860
3FE0
0FC0
ENDCHAR
STARTCHAR 0920
ENCODING 2336
SWIDTH 585 0
DWIDTH 13 0
BBX 14 14 0 0
BITMAP
FFFC
FFFC
0300
0300
0380
1EE0
3860
7030
6030
6030
6070
30E0
3FE0
0F80
ENDCHAR
STARTCHAR 0921
ENCODING 2337
SWIDTH 585 0
DWIDTH 13 0
BBX 14 14 0 0
BITMAP
FFFC
FFFC
00C0
0FC0
3FC0
3000
3000
33C0
1FE0
8830
4030
7070
3FE0
0FC0
ENDCHAR
STARTCHAR 0922
ENCODING 2338
SWIDTH 540 0
DWIDTH 12 0
BBX 13 14 0 0
BITMAP
FFF8
FFF8
0180
0180
0F80
3F80
7800
6000
61C0
63E0
6360
3160
3FC0
0F80
ENDCHAR
STARTCHAR 0923
ENCODING 2339
SWIDTH 675 0
DWIDTH 15 0
BBX 16 14 0 0
BITMAP
FFFF
FFFF
6318
6318
6318
6318
6318
6318
6318
3F18
1E18
0018
0018
0018
ENDCHAR
STARTCHAR 0924
ENCODING 2340
SWIDTH 585 0
DWIDTH 13 0
BBX 14 14 0 0
BITMAP
FFFC
FFFC
0060
0060
1FE0
3FE0
6060
6060
6060
2060
3060
1060
0860
0460
ENDCHAR
STARTCHAR 0925
ENCODING 2341
SWIDTH 630 0
DWIDTH 14 0
BBX 14 14 1 0
BITMAP
3DFC
7FFC
6660
6660
3660
0E60
FC60
7060
6060
31E0
1FE0
0F60
0060
0060
ENDCHAR
STARTCHAR 0926
ENCODING 2342
SWIDTH 540 0
DWIDTH 12 0
BBX 13 17 0 -3
BITMAP
FFF8
FFF8
0180
0180
0F80
3F80
3800
6000
6000
6000
60C0
30E0
3FE0
0FC0
0060
0020
0030
ENDCHAR
STARTCHAR 0927
ENCODING 2343
SWIDTH 630 0
DWIDTH 14 0
BBX 14 14 1 0
BITMAP
78FC
C4FC
CC60
C860
6060
3E60
3E60
7060
6060
60E0
61E0
3F60
1E60
0060
ENDCHAR
STARTCHAR 0928
ENCODING 2344
SWIDTH 540 0
DWIDTH 12 0
BBX 13 14 0 0
BITMAP
FFF8
FFF8
00C0
00C0
00C0
00C0
7FC0
7FC0
78C0
38C0
18C0
00C0
00C0
00C0
ENDCHAR
STARTCHAR 0929
ENCODING 2345
SWIDTH 540 0
DWIDTH 12 0
BBX 13 15 0 -1
BITMAP
FFF8
FFF8
00C0
00C0
00C0
00C0
7FC0
7FC0
78C0
38C0
18C0
00C0
00C0
10C0
1800
ENDCHAR
STARTCHAR 092A
ENCODING 2346
SWIDTH 540 0
DWIDTH 12 0
BBX 13 14 0 0
BITMAP
FFF8
FFF8
60C0
60C0
60C0
60C0
60C0
60C0
61C0
3FC0
1EC0
00C0
00C0
00C0
ENDCHAR
STARTCHAR 092B
ENCODING 2347
SWIDTH 720 0
DWIDTH 16 0
BBX 17 14 0 0
BITMAP
FFFF80
FFFF80
618000
618000
61BC00
61FE00
61C600
618600
638600
3F8600
1D8600
018C00
018C00
018000
ENDCHAR
STARTCHAR 092C
ENCODING 2348
SWIDTH 585 0
DWIDTH 13 0
BBX 14 14 0 0
BITMAP
FFFC
FFFC
0060
0060
1E60
3E60
7860
6460
66E0
73E0
3F60
1E60
0060
0060
ENDCHAR
STARTCHAR 092D
ENCODING 2349
SWIDTH 630 0
DWIDTH 14 0
BBX 15 14 0 0
BITMAP
79FE
F9FE
CC30
CC30
CC30
3C30
0C30
3FF0
3FF0
3C30
1C30
0C30
0030
0030
ENDCHAR
STARTCHAR 092E
ENCODING 2350
SWIDTH 540 0
DWIDTH 12 0
BBX 13 14 0 0
BITMAP
FFF8
FFF8
18C0
18C0
18C0
18C0
18C0
7FC0
7FC0
78C0
38C0
18C0
00C0
00C0
ENDCHAR
STARTCHAR 092F
ENCODING 2351
SWIDTH 630 0
DWIDTH 14 0
BBX 15 14 0 0
BITMAP
FFFE
FFFE
0630
0630
0630
0630
0C30
7830
3030
3870
1FF0
07B0
0030
0030
ENDCHAR
STARTCHAR 0930
ENCODING 2352
SWIDTH 405 0
DWIDTH 9 0
BBX 10 14 0 0
BITMAP
FFC0
FFC0
0C00
0C00
0C00
7C00
7800
7800
3000
3000
1800
0C00
0700
0100
ENDCHAR
STARTCHAR 0931
ENCODING 2353
SWIDTH 405 0
DWIDTH 9 0
BBX 10 16 0 -2
BITMAP
FFC0
FFC0
0C00
0C00
0C00
7C00
7800
7800
3000
3000
1800
0C00
0700
0100
2000
3000
ENDCHAR
STARTCHAR 0932
ENCODING 2354
SWIDTH 675 0
DWIDTH 15 0
BBX 16 14 0 0
BITMAP
FFFF
FFFF
0018
0018
1E38
3F78
71D8
6198
6198
6318
2318
3018
1818
0818
ENDCHAR
STARTCHAR 0933
ENCODING 2355
SWIDTH 720 0
DWIDTH 16 0
BBX 17 14 0 0
BITMAP
FFFF80
FFFF80
003000
003000
1C3800
3E7C00
73E600
61C600
618600
638600
630600
778C00
3EFC00
1C3800
ENDCHAR
STARTCHAR 0934
ENCODING 2356
SWIDTH 720 0
DWIDTH 16 0
BBX 17 17 0 -3
BITMAP
FFFF80
FFFF80
003000
003000
1C3800
3E7C00
73E600
61C600
618600
638600
630600
778C00
3EFC00
1C3800
000000
010000
018000
ENDCHAR
STARTCHAR 0935
ENCODING 2357
SWIDTH 585 0
DWIDTH 13 0
BBX 14 14 0 0
BITMAP
FFFC
FFFC
0060
0060
1E60
3E60
6060
6060
60E0
71E0
3F60
1E60
0060
0060
ENDCHAR
STARTCHAR 0936
ENCODING 2358
SWIDTH 675 0
DWIDTH 15 0
BBX 15 14 1 0
BITMAP
1E7E
3E7E
3330
3330
3330
3330
1E30
0E30
EC30
F830
7830
0E30
0730
0230
ENDCHAR
STARTCHAR 0937
ENCODING 2359
SWIDTH 540 0
DWIDTH 12 0
BBX 13 14 0 0
BITMAP
FFF8
FFF8
70C0
68C0
68C0
64C0
62C0
61C0
61C0
3FC0
1EC0
00C0
00C0
00C0
ENDCHAR
STARTCHAR 0938
ENCODING 2360
SWIDTH 630 0
DWIDTH 14 0
BBX 15 14 0 0
BITMAP
FFFE
FFFE
0C30
0C30
0C30
7C30
7C30
7FF0
33F0
3030
1830
0C30
0730
0130
ENDCHAR
STARTCHAR 0939
ENCODING 2361
SWIDTH 495 0
DWIDTH 11 0
BBX 12 19 0 -5
BITMAP
FFF0
FFF0
0180
0180
1F80
3F80
3000
3000
3780
1FC0
30C0
60C0
60C0
6180
3000
3800
1F00
0780
0180
ENDCHAR
STARTCHAR 093C
ENCODING 2364
SWIDTH 0 0
DWIDTH 0 0
BBX 2 2 -6 -2
BITMAP
80
C0
ENDCHAR
STARTCHAR 093D
ENCODING 2365
SWIDTH 495 0
DWIDTH 11 0
BBX 9 13 1 1
BITMAP
3F80
7F80
6000
6000
3000
1C00
0F00
0380
0180
8180
6180
3F00
1E00
ENDCHAR
STARTCHAR 093E
ENCODING 2366
SWIDTH 270 0
DWIDTH 6 0
BBX 7 14 0 0
BITMAP
FE
FE
30
30
30
30
30
30
30
30
30
30
30
30
ENDCHAR
STARTCHAR 093F
ENCODING 2367
SWIDTH 270 0
DWIDTH 6 0
BBX 11 20 0 0
BITMAP
3E00
7F00
6380
6080
6040
3060
FE00
FE00
3000
3000
3000
3000
3000
3000
3000
3000
3000
3000
3000
3000
ENDCHAR
STARTCHAR 0940
ENCODING 2368
SWIDTH 270 0
DWIDTH 6 0
BBX 12 20 -5 0
BITMAP
7800
FE00
C600
C300
C180
6080
07F0
07F0
0180
0180
0180
0180
0180
0180
0180
0180
0180
0180
0180
0180
ENDCHAR
STARTCHAR 0941
ENCODING 2369
SWIDTH 0 0
DWIDTH 0 0
BBX 10 7 -10 -7
BITMAP
0780
87C0
40C0
60C0
30C0
1F80
0700
ENDCHAR
STARTCHAR 0942
ENCODING 2370
SWIDTH 0 0
DWIDTH 0 0
BBX 10 7 -7 -7
BITMAP
3800
7E00
C300
C180
C080
F840
7800
ENDCHAR
STARTCHAR 0943
ENCODING 2371
SWIDTH 0 0
DWIDTH 0 0
BBX 6 7 -6 -6
BITMAP
30
60
C0
C0
C4
FC
78
ENDCHAR
STARTCHAR 0944
ENCODING 2372
SWIDTH 0 0
DWIDTH 0 0
BBX 6 9 -5 -8
BITMAP
60
C0
C0
70
70
E0
C4
FC
78
ENDCHAR
STARTCHAR 0945
ENCODING 2373
SWIDTH 0 0
DWIDTH 0 0
BBX 9 4 -7 15
BITMAP
8080
4100
7F00
3E00
ENDCHAR
STARTCHAR 0946
ENCODING 2374
SWIDTH 0 0
DWIDTH 0 0
BBX 9 6 -11 14
BITMAP
8000
8000
C700
7F80
3880
0080
ENDCHAR
STARTCHAR 0947
ENCODING 2375
SWIDTH 0 0
DWIDTH 0 0
BBX 9 6 -11 14
BITMAP
F000
FC00
0E00
0300
0100
0180
ENDCHAR
STARTCHAR 0948
ENCODING 2376
SWIDTH 0 0
DWIDTH 0 0
BBX 8 6 -10 14
BITMAP
F0
F8
0C
F4
FE
07
ENDCHAR
STARTCHAR 0949
ENCODING 2377
SWIDTH 270 0
DWIDTH 6 0
BBX 9 19 -1 0
BITMAP
8080
4100
7F00
3E00
0000
7F00
7F00
1800
1800
1800
1800
1800
1800
1800
1800
1800
1800
1800
1800
ENDCHAR
STARTCHAR 094A
ENCODING 2378
SWIDTH 270 0
DWIDTH 6 0
BBX 12 20 -5 0
BITMAP
8000
8000
C700
7F80
3880
0080
07F0
07F0
0180
0180
0180
0180
0180
0180
0180
0180
0180
0180
0180
0180
ENDCHAR
STARTCHAR 094B
ENCODING 2379
SWIDTH 270 0
DWIDTH 6 0
BBX 12 20 -5 0
BITMAP
F000
FC00
0E00
0300
0100
0180
07F0
07F0
0180
0180
0180
0180
0180
0180
0180
0180
0180
0180
0180
0180
ENDCHAR
STARTCHAR 094C
ENCODING 2380
SWIDTH 270 0
DWIDTH 6 0
BBX 11 20 -4 0
BITMAP
F000
F800
0C00
F400
FE00
0700
0FE0
0FE0
0300
0300
0300
0300
0300
0300
0300
0300
0300
0300
0300
0300
ENDCHAR
STARTCHAR 094D
ENCODING 2381
SWIDTH 0 0
DWIDTH 0 0
BBX 7 6 -6 -7
BITMAP
C0
F0
38
18
0C
02
ENDCHAR
STARTCHAR 0950
ENCODING 2384
SWIDTH 945 0
DWIDTH 21 0
BBX 20 18 0 1
BITMAP
000200
000300
002010
001020
001860
1F0780
3F8000
20C0C0
00C1E0
01C330
1F8230
1F0630
818C30
C0F9E0
60C1C0
30C000
1FC000
0F8000
ENDCHAR
STARTCHAR 0951
ENCODING 2385
SWIDTH 0 0
DWIDTH 0 0
BBX 2 5 -4 15
BITMAP
C0
C0
C0
C0
C0
ENDCHAR
STARTCHAR 0952
ENCODING 2386
SWIDTH 0 0
DWIDTH 0 0
BBX 7 1 -7 -3
BITMAP
FE
ENDCHAR
STARTCHAR 0953
ENCODING 2387
SWIDTH 0 0
DWIDTH 0 0
BBX 5 3 -8 15
BITMAP
C0
60
18
ENDCHAR
STARTCHAR 0954
ENCODING 2388
SWIDTH 0 0
DWIDTH 0 0
BBX 5 3 -5 15
BITMAP
18
30
C0
ENDCHAR
STARTCHAR 0958
ENCODING 2392
SWIDTH 720 0
DWIDTH 16 0
BBX 17 15 0 -1
BITMAP
FFFF80
FFFF80
018000
018000
3DBC00
7DFC00
61C600
618600
638600
3F8600
1D8600
018C00
018C00
418000
600000
ENDCHAR
STARTCHAR 0959
ENCODING 2393
SWIDTH 720 0
DWIDTH 16 0
BBX 17 17 0 -3
BITMAP
FFFF80
FFFF80
0C0C00
0CEC00
0DEC00
7D8C00
798C00
31FC00
30FC00
180C00
0C0C00
07FC00
03FC00
000C00
000000
020000
030000
ENDCHAR
STARTCHAR 095A
ENCODING 2394
SWIDTH 585 0
DWIDTH 13 0
BBX 14 15 0 -1
BITMAP
FFFC
FFFC
1860
1860
1860
1860
1860
7860
7860
3860
1060
0060
0060
1060
1800
ENDCHAR
STARTCHAR 095B
ENCODING 2395
SWIDTH 675 0
DWIDTH 15 0
BBX 16 15 0 -1
BITMAP
FFFF
FFFF
0018
0018
07F8
87F8
4318
6198
3198
1F98
0F18
0018
0018
0818
0C00
ENDCHAR
STARTCHAR 095C
ENCODING 2396
SWIDTH 585 0
DWIDTH 13 0
BBX 14 18 0 -4
BITMAP
FFFC
FFFC
00C0
0FC0
3FC0
3000
3000
33C0
1FE0
8830
4030
7070
3FE0
0FC0
0000
0000
0200
0300
ENDCHAR
STARTCHAR 095D
ENCODING 2397
SWIDTH 540 0
DWIDTH 12 0
BBX 13 18 0 -4
BITMAP
FFF8
FFF8
0180
0180
0F80
3F80
7800
6000
61C0
63E0
6360
3160
3FC0
0F80
0000
0000
0400
0600
ENDCHAR
STARTCHAR 095E
ENCODING 2398
SWIDTH 720 0
DWIDTH 16 0
BBX 17 14 0 0
BITMAP
FFFF80
FFFF80
618000
618000
61BC00
61FE00
61C600
618600
638600
3F8600
1D8600
018C00
218C00
318000
ENDCHAR
STARTCHAR 095F
ENCODING 2399
SWIDTH 630 0
DWIDTH 14 0
BBX 15 16 0 -2
BITMAP
FFFE
FFFE
0630
0630
0630
0630
0C30
7830
3030
3870
1FF0
07B0
0030
0030
0800
0C00
ENDCHAR
STARTCHAR 0960
ENCODING 2400
SWIDTH 900 0
DWIDTH 20 0
BBX 21 17 0 -3
BITMAP
FFFFF8
FFFFF8
00C000
00C000
3CCE00
7FCE00
41FE00
00FE00
07C700
3EDC00
78D800
60D880
00CF80
00C300
000310
0003F0
0001E0
ENDCHAR
STARTCHAR 0961
ENCODING 2401
SWIDTH 765 0
DWIDTH 17 0
BBX 18 17 0 -3
BITMAP
FFFFC0
FFFFC0
003000
1C7800
3FFC00
71C600
618200
638E00
611E00
201800
301800
180E00
081E00
001800
001880
001F80
000700
ENDCHAR
STARTCHAR 0962
ENCODING 2402
SWIDTH 0 0
DWIDTH 0 0
BBX 10 8 -9 -9
BITMAP
7380
FFC0
8C40
89C0
8200
4200
0200
01C0
ENDCHAR
STARTCHAR 0963
ENCODING 2403
SWIDTH 0 0
DWIDTH 0 0
BBX 10 8 -8 -9
BITMAP
6700
FF80
9880
8180
4200
0180
0200
03C0
ENDCHAR
STARTCHAR 0964
ENCODING 2404
SWIDTH 270 0
DWIDTH 6 0
BBX 2 14 2 0
BITMAP
C0
C0
C0
C0
C0
C0
C0
C0
C0
C0
C0
C0
C0
C0
ENDCHAR
STARTCHAR 0965
ENCODING 2405
SWIDTH 450 0
DWIDTH 10 0
BBX 6 14 2 0
BITMAP
CC
CC
CC
CC
CC
CC
CC
CC
CC
CC
CC
CC
CC
CC
ENDCHAR
STARTCHAR 0966
ENCODING 2406
SWIDTH 630 0
DWIDTH 14 0
BBX 9 10 2 2
BITMAP
3E00
7F00
6300
C180
C180
C180
C180
6300
7F00
3E00
ENDCHAR
STARTCHAR 0967
ENCODING 2407
SWIDTH 630 0
DWIDTH 14 0
BBX 6 16 4 -2
BITMAP
78
FC
CC
CC
CC
78
38
70
E0
60
30
18
0C
0C
1C
08
ENDCHAR
STARTCHAR 0968
ENCODING 2408
SWIDTH 630 0
DWIDTH 14 0
BBX 9 14 2 0
BITMAP
7E00
FF00
8380
0180
0180
0180
6180
7300
7E00
3C00
0600
0700
0300
0380
ENDCHAR
STARTCHAR 0969
ENCODING 2409
SWIDTH 630 0
DWIDTH 14 0
BBX 8 15 3 -1
BITMAP
7C
FE
86
06
0E
7C
7E
03
03
C7
FE
7C
18
08
04
ENDCHAR
STARTCHAR 096A
ENCODING 2410
SWIDTH 630 0
DWIDTH 14 0
BBX 11 13 1 1
BITMAP
C020
6060
31C0
1B80
0F00
0E00
0E00
1B00
3180
3180
3180
1F00
0E00
ENDCHAR
STARTCHAR 096B
ENCODING 2411
SWIDTH 630 0
DWIDTH 14 0
BBX 9 14 2 0
BITMAP
6000
6000
C000
C000
C600
C700
C700
7F00
3E00
0200
0300
0100
0180
0100
ENDCHAR
STARTCHAR 096C
ENCODING 2412
SWIDTH 630 0
DWIDTH 14 0
BBX 9 16 2 -2
BITMAP
3C00
FE00
C200
C000
C000
7C00
7C00
E000
C000
C700
C700
7E00
3E00
0300
0100
0180
ENDCHAR
STARTCHAR 096D
ENCODING 2413
SWIDTH 630 0
DWIDTH 14 0
BBX 12 11 1 1
BITMAP
C1C0
C3E0
C330
6330
63F0
61F0
3030
3030
1C60
0FE0
0780
ENDCHAR
STARTCHAR 096E
ENCODING 2414
SWIDTH 630 0
DWIDTH 14 0
BBX 10 14 2 0
BITMAP
00C0
0180
0300
0600
0C00
1800
3000
6000
C000
C000
C200
C700
7E00
3C00
ENDCHAR
STARTCHAR 096F
ENCODING 2415
SWIDTH 630 0
DWIDTH 14 0
BBX 9 15 2 -1
BITMAP
3C00
7E00
C600
C600
C600
6C00
3800
1800
0C00
0700
0300
0180
0180
0380
0100
ENDCHAR
STARTCHAR 0970
ENCODING 2416
SWIDTH 405 0
DWIDTH 9 0
BBX 4 4 2 1
BITMAP
60
90
90
60
ENDCHAR
STARTCHAR 0E01
ENCODING 3585
SWIDTH 630 0
DWIDTH 14 0
BBX 11 12 1 0
BITMAP
1F80
7FC0
E0C0
C060
7860
3060
6060
6060
6060
6060
6060
6060
ENDCHAR
STARTCHAR 0E02
ENCODING 3586
SWIDTH 630 0
DWIDTH 14 0
BBX 11 12 1 0
BITMAP
3E60
7F60
E360
9360
9360
6660
0C60
1860
1860
1860
3FE0
3FC0
ENDCHAR
STARTCHAR 0E03
ENCODING 3587
SWIDTH 630 0
DWIDTH 14 0
BBX 12 12 0 0
BITMAP
3630
7FB0
E9B0
91B0
91B0
6330
0630
0C30
0C30
0C30
1FF0
1FE0
ENDCHAR
STARTCHAR 0E04
ENCODING 3588
SWIDTH 630 0
DWIDTH 14 0
BBX 10 12 2 0
BITMAP
3F00
7F80
E1C0
C0C0
CCC0
D2C0
D2C0
FCC0
60C0
60C0
60C0
60C0
ENDCHAR
STARTCHAR 0E05
ENCODING 3589
SWIDTH 630 0
DWIDTH 14 0
BBX 10 12 2 0
BITMAP
3B00
7F80
E4C0
C0C0
CCC0
D2C0
D2C0
FCC0
60C0
60C0
60C0
60C0
ENDCHAR
STARTCHAR 0E06
ENCODING 3590
SWIDTH 720 0
DWIDTH 16 0
BBX 13 12 1 0
BITMAP
3718
7F98
E998
9198
9118
6318
0618
1F18
26D8
2638
2638
1C18
ENDCHAR
STARTCHAR 0E07
ENCODING 3591
SWIDTH 450 0
DWIDTH 10 0
BBX 8 12 0 0
BITMAP
06
09
09
07
C3
63
63
33
33
1B
1F
0E
ENDCHAR
STARTCHAR 0E08
ENCODING 3592
SWIDTH 540 0
DWIDTH 12 0
BBX 10 12 0 0
BITMAP
3F00
7F80
C1C0
80C0
00C0
30C0
48C0
48C0
38C0
18C0
1FC0
0F80
ENDCHAR
STARTCHAR 0E09
ENCODING 3593
SWIDTH 675 0
DWIDTH 15 0
BBX 13 12 1 0
BITMAP
3F00
7F80
C1C0
80C0
00C0
60C0
90F0
91C8
72C8
34C8
38C8
3070
ENDCHAR
STARTCHAR 0E0A
ENCODING 3594
SWIDTH 630 0
DWIDTH 14 0
BBX 14 15 1 0
BITMAP
000C
0008
0018
3E30
7F20
E360
9360
9360
6660
0C60
1860
1860
1860
3FE0
3FC0
ENDCHAR
STARTCHAR 0E0B
ENCODING 3595
SWIDTH 630 0
DWIDTH 14 0
BBX 15 15 0 0
BITMAP
0006
0004
000C
3618
7F90
E9B0
91B0
91B0
6330
0630
0C30
0C30
0C30
1FF0
1FE0
ENDCHAR
STARTCHAR 0E0C
ENCODING 3596
SWIDTH 900 0
DWIDTH 20 0
BBX 17 12 1 0
BITMAP
1F8180
7FC180
E0E180
C06180
786180
206180
61E180
627980
726580
4A6380
4A6380
31C180
ENDCHAR
STARTCHAR 0E0D
ENCODING 3597
SWIDTH 900 0
DWIDTH 20 0
BBX 17 18 1 -6
BITMAP
1F8180
3FC180
E0E180
C06180
786180
206180
606180
606180
706180
486180
48FF80
30FF00
000000
006000
009180
009180
006300
003E00
ENDCHAR
STARTCHAR 0E0E
ENCODING 3598
SWIDTH 630 0
DWIDTH 14 0
BBX 12 18 0 -6
BITMAP
0FC0
3FE0
7060
6030
3C30
1830
3030
3030
7030
9030
9030
6030
0130
1D30
2330
23B0
26F0
1C30
ENDCHAR
STARTCHAR 0E0F
ENCODING 3599
SWIDTH 630 0
DWIDTH 14 0
BBX 12 18 0 -6
BITMAP
0FC0
3FE0
7060
6030
3C30
1830
3030
3030
7030
9030
9030
6030
0030
6430
9430
8CB0
9570
6230
ENDCHAR
STARTCHAR 0E10
ENCODING 3600
SWIDTH 540 0
DWIDTH 12 0
BBX 10 18 1 -6
BITMAP
3FC0
7FC0
C000
FE00
FF00
0380
6180
9180
9180
7180
3F80
1F00
0080
6940
98C0
8A40
9DC0
64C0
ENDCHAR
STARTCHAR 0E11
ENCODING 3601
SWIDTH 720 0
DWIDTH 16 0
BBX 14 12 0 0
BITMAP
3638
7F7C
EB4C
93CC
938C
630C
030C
060C
060C
060C
060C
060C
ENDCHAR
STARTCHAR 0E12
ENCODING 3602
SWIDTH 900 0
DWIDTH 20 0
BBX 16 12 2 0
BITMAP
3B03
7FC3
E4E3
C063
CC63
D263
D263
CDE3
5A73
726B
6267
61C3
ENDCHAR
STARTCHAR 0E13
ENCODING 3603
SWIDTH 990 0
DWIDTH 22 0
BBX 20 12 1 0
BITMAP
1F0180
7FC180
E0C180
C06180
786180
206180
6061E0
606390
706590
486990
487190
3060E0
ENDCHAR
STARTCHAR 0E14
ENCODING 3604
SWIDTH 630 0
DWIDTH 14 0
BBX 10 12 2 0
BITMAP
3F00
7F80
E1C0
C0C0
CCC0
D2C0
D2C0
CCC0
58C0
70C0
60C0
60C0
ENDCHAR
STARTCHAR 0E15
ENCODING 3605
SWIDTH 630 0
DWIDTH 14 0
BBX 10 12 2 0
BITMAP
3B00
7F80
E4C0
C0C0
CCC0
D2C0
D2C0
CCC0
58C0
70C0
60C0
60C0
ENDCHAR
STARTCHAR 0E16
ENCODING 3606
SWIDTH 630 0
DWIDTH 14 0
BBX 11 12 1 0
BITMAP
1F80
7FC0
E0C0
C060
7860
2060
6060
6060
7060
4860
4860
3060
ENDCHAR
STARTCHAR 0E17
ENCODING 3607
SWIDTH 675 0
DWIDTH 15 0
BBX 12 12 1 0
BITMAP
60E0
91F0
9330
7330
3630
3C30
3C30
3830
3830
3030
3030
3030
ENDCHAR
STARTCHAR 0E18
ENCODING 3608
SWIDTH 540 0
DWIDTH 12 0
BBX 11 12 1 0
BITMAP
3FE0
7FE0
C000
FF00
FF80
8380
6180
6180
6180
6180
FF80
FF00
ENDCHAR
STARTCHAR 0E19
ENCODING 3609
SWIDTH 675 0
DWIDTH 15 0
BBX 13 12 1 0
BITMAP
60C0
90C0
90C0
70C0
30C0
30C0
31F0
32C8
34C8
38C8
38C8
3070
ENDCHAR
STARTCHAR 0E1A
ENCODING 3610
SWIDTH 585 0
DWIDTH 13 0
BBX 10 12 1 0
BITMAP
60C0
90C0
90C0
70C0
30C0
30C0
30C0
30C0
30C0
30C0
7FC0
7F80
ENDCHAR
STARTCHAR 0E1B
ENCODING 3611
SWIDTH 585 0
DWIDTH 13 0
BBX 10 15 1 0
BITMAP
00C0
00C0
00C0
60C0
90C0
90C0
70C0
30C0
30C0
30C0
30C0
30C0
30C0
7FC0
7F80
ENDCHAR
STARTCHAR 0E1C
ENCODING 3612
SWIDTH 630 0
DWIDTH 14 0
BBX 10 12 2 0
BITMAP
60C0
90C0
90C0
E0C0
C0C0
C0C0
C0C0
CCC0
DEC0
F3C0
E1C0
C0C0
ENDCHAR
STARTCHAR 0E1D
ENCODING 3613
SWIDTH 630 0
DWIDTH 14 0
BBX 10 15 2 0
BITMAP
00C0
00C0
00C0
60C0
90C0
90C0
E0C0
C0C0
C0C0
C0C0
CCC0
DEC0
F3C0
E1C0
C0C0
ENDCHAR
STARTCHAR 0E1E
ENCODING 3614
SWIDTH 720 0
DWIDTH 16 0
BBX 13 12 1 0
BITMAP
6118
9118
9398
7298
3298
36D8
3458
3C78
3838
3838
3018
3018
ENDCHAR
STARTCHAR 0E1F
ENCODING 3615
SWIDTH 720 0
DWIDTH 16 0
BBX 13 15 1 0
BITMAP
0018
0018
0018
6118
9118
9398
7298
3298
36D8
3458
3C78
3838
3838
3018
3018
ENDCHAR
STARTCHAR 0E20
ENCODING 3616
SWIDTH 630 0
DWIDTH 14 0
BBX 12 12 0 0
BITMAP
0FC0
3FE0
7060
6030
3C30
1830
3030
3030
7030
9030
9030
6030
ENDCHAR
STARTCHAR 0E21
ENCODING 3617
SWIDTH 675 0
DWIDTH 15 0
BBX 12 12 1 0
BITMAP
3030
4830
4830
3830
1830
1830
7830
9E30
9930
98B0
9870
7030
ENDCHAR
STARTCHAR 0E22
ENCODING 3618
SWIDTH 540 0
DWIDTH 12 0
BBX 9 12 1 0
BITMAP
3180
4980
4980
7180
6180
3980
3980
6180
6180
6180
FF80
FF00
ENDCHAR
STARTCHAR 0E23
ENCODING 3619
SWIDTH 540 0
DWIDTH 12 0
BBX 11 12 1 0
BITMAP
3FE0
7FE0
C000
FF00
FF80
8380
0180
0180
0380
0480
0480
0300
ENDCHAR
STARTCHAR 0E24
ENCODING 3620
SWIDTH 630 0
DWIDTH 14 0
BBX 11 15 1 -3
BITMAP
1F80
7FC0
E0C0
C060
7860
2060
6060
6060
7060
4860
4860
3060
0060
0060
0060
ENDCHAR
STARTCHAR 0E25
ENCODING 3621
SWIDTH 585 0
DWIDTH 13 0
BBX 9 12 2 0
BITMAP
7E00
FF00
8380
0180
7180
F980
CD80
C780
E780
9380
9180
6180
ENDCHAR
STARTCHAR 0E26
ENCODING 3622
SWIDTH 630 0
DWIDTH 14 0
BBX 12 15 0 -3
BITMAP
0FC0
3FE0
7060
6030
3C30
1830
3030
3030
7030
9030
9030
6030
0030
0030
0030
ENDCHAR
STARTCHAR 0E27
ENCODING 3623
SWIDTH 495 0
DWIDTH 11 0
BBX 9 12 0 0
BITMAP
7E00
FF00
8380
0180
0180
0180
0180
0180
0380
0480
0480
0300
ENDCHAR
STARTCHAR 0E28
ENCODING 3624
SWIDTH 630 0
DWIDTH 14 0
BBX 12 15 2 0
BITMAP
0030
0060
00C0
3F80
7F80
E1C0
C0C0
CCC0
D2C0
D2C0
FCC0
60C0
60C0
60C0
60C0
ENDCHAR
STARTCHAR 0E29
ENCODING 3625
SWIDTH 630 0
DWIDTH 14 0
BBX 13 12 1 0
BITMAP
6060
9060
9360
74E0
34E0
3368
31F0
3060
3060
3060
7FE0
7FC0
ENDCHAR
STARTCHAR 0E2A
ENCODING 3626
SWIDTH 585 0
DWIDTH 13 0
BBX 11 15 2 0
BITMAP
0060
00C0
0180
7F00
FF00
8380
0180
7180
F980
CD80
C780
E780
9380
9180
6180
ENDCHAR
STARTCHAR 0E2B
ENCODING 3627
SWIDTH 630 0
DWIDTH 14 0
BBX 11 12 1 0
BITMAP
60C0
9120
9120
70C0
3340
3660
3C60
3860
3860
3060
3060
3060
ENDCHAR
ENDFONT
